G04 #@! TF.GenerationSoftware,KiCad,Pcbnew,(7.0.0-0)*
G04 #@! TF.CreationDate,2023-03-04T10:35:24+00:00*
G04 #@! TF.ProjectId,LeChiffre,4c654368-6966-4667-9265-2e6b69636164,rev?*
G04 #@! TF.SameCoordinates,Original*
G04 #@! TF.FileFunction,AssemblyDrawing,Bot*
%FSLAX46Y46*%
G04 Gerber Fmt 4.6, Leading zero omitted, Abs format (unit mm)*
G04 Created by KiCad (PCBNEW (7.0.0-0)) date 2023-03-04 10:35:24*
%MOMM*%
%LPD*%
G01*
G04 APERTURE LIST*
%ADD10C,0.150000*%
%ADD11C,0.080000*%
%ADD12C,0.075000*%
%ADD13C,0.100000*%
G04 APERTURE END LIST*
D10*
X146060604Y-101116984D02*
X145917747Y-101164603D01*
X145917747Y-101164603D02*
X145679652Y-101164603D01*
X145679652Y-101164603D02*
X145584414Y-101116984D01*
X145584414Y-101116984D02*
X145536795Y-101069365D01*
X145536795Y-101069365D02*
X145489176Y-100974127D01*
X145489176Y-100974127D02*
X145489176Y-100878889D01*
X145489176Y-100878889D02*
X145536795Y-100783651D01*
X145536795Y-100783651D02*
X145584414Y-100736032D01*
X145584414Y-100736032D02*
X145679652Y-100688413D01*
X145679652Y-100688413D02*
X145870128Y-100640794D01*
X145870128Y-100640794D02*
X145965366Y-100593175D01*
X145965366Y-100593175D02*
X146012985Y-100545556D01*
X146012985Y-100545556D02*
X146060604Y-100450318D01*
X146060604Y-100450318D02*
X146060604Y-100355080D01*
X146060604Y-100355080D02*
X146012985Y-100259842D01*
X146012985Y-100259842D02*
X145965366Y-100212223D01*
X145965366Y-100212223D02*
X145870128Y-100164603D01*
X145870128Y-100164603D02*
X145632033Y-100164603D01*
X145632033Y-100164603D02*
X145489176Y-100212223D01*
X145155842Y-100164603D02*
X144917747Y-101164603D01*
X144917747Y-101164603D02*
X144727271Y-100450318D01*
X144727271Y-100450318D02*
X144536795Y-101164603D01*
X144536795Y-101164603D02*
X144298700Y-100164603D01*
X143393938Y-101164603D02*
X143965366Y-101164603D01*
X143679652Y-101164603D02*
X143679652Y-100164603D01*
X143679652Y-100164603D02*
X143774890Y-100307461D01*
X143774890Y-100307461D02*
X143870128Y-100402699D01*
X143870128Y-100402699D02*
X143965366Y-100450318D01*
D11*
X125739050Y-55735944D02*
X125905716Y-55497849D01*
X126024764Y-55735944D02*
X126024764Y-55235944D01*
X126024764Y-55235944D02*
X125834288Y-55235944D01*
X125834288Y-55235944D02*
X125786669Y-55259754D01*
X125786669Y-55259754D02*
X125762859Y-55283563D01*
X125762859Y-55283563D02*
X125739050Y-55331182D01*
X125739050Y-55331182D02*
X125739050Y-55402611D01*
X125739050Y-55402611D02*
X125762859Y-55450230D01*
X125762859Y-55450230D02*
X125786669Y-55474039D01*
X125786669Y-55474039D02*
X125834288Y-55497849D01*
X125834288Y-55497849D02*
X126024764Y-55497849D01*
X125262859Y-55735944D02*
X125548573Y-55735944D01*
X125405716Y-55735944D02*
X125405716Y-55235944D01*
X125405716Y-55235944D02*
X125453335Y-55307373D01*
X125453335Y-55307373D02*
X125500954Y-55354992D01*
X125500954Y-55354992D02*
X125548573Y-55378801D01*
D10*
X145658940Y-116827257D02*
X145658940Y-117620590D01*
X145658940Y-117620590D02*
X145612274Y-117713924D01*
X145612274Y-117713924D02*
X145565607Y-117760590D01*
X145565607Y-117760590D02*
X145472274Y-117807257D01*
X145472274Y-117807257D02*
X145285607Y-117807257D01*
X145285607Y-117807257D02*
X145192274Y-117760590D01*
X145192274Y-117760590D02*
X145145607Y-117713924D01*
X145145607Y-117713924D02*
X145098940Y-117620590D01*
X145098940Y-117620590D02*
X145098940Y-116827257D01*
X144678940Y-116920590D02*
X144632273Y-116873924D01*
X144632273Y-116873924D02*
X144538940Y-116827257D01*
X144538940Y-116827257D02*
X144305607Y-116827257D01*
X144305607Y-116827257D02*
X144212273Y-116873924D01*
X144212273Y-116873924D02*
X144165607Y-116920590D01*
X144165607Y-116920590D02*
X144118940Y-117013924D01*
X144118940Y-117013924D02*
X144118940Y-117107257D01*
X144118940Y-117107257D02*
X144165607Y-117247257D01*
X144165607Y-117247257D02*
X144725607Y-117807257D01*
X144725607Y-117807257D02*
X144118940Y-117807257D01*
D12*
X120623336Y-62514563D02*
X120670955Y-62490754D01*
X120670955Y-62490754D02*
X120718574Y-62443134D01*
X120718574Y-62443134D02*
X120790002Y-62371706D01*
X120790002Y-62371706D02*
X120837621Y-62347896D01*
X120837621Y-62347896D02*
X120885240Y-62347896D01*
X120861431Y-62466944D02*
X120909050Y-62443134D01*
X120909050Y-62443134D02*
X120956669Y-62395515D01*
X120956669Y-62395515D02*
X120980478Y-62300277D01*
X120980478Y-62300277D02*
X120980478Y-62133611D01*
X120980478Y-62133611D02*
X120956669Y-62038373D01*
X120956669Y-62038373D02*
X120909050Y-61990754D01*
X120909050Y-61990754D02*
X120861431Y-61966944D01*
X120861431Y-61966944D02*
X120766193Y-61966944D01*
X120766193Y-61966944D02*
X120718574Y-61990754D01*
X120718574Y-61990754D02*
X120670955Y-62038373D01*
X120670955Y-62038373D02*
X120647145Y-62133611D01*
X120647145Y-62133611D02*
X120647145Y-62300277D01*
X120647145Y-62300277D02*
X120670955Y-62395515D01*
X120670955Y-62395515D02*
X120718574Y-62443134D01*
X120718574Y-62443134D02*
X120766193Y-62466944D01*
X120766193Y-62466944D02*
X120861431Y-62466944D01*
X120456668Y-62014563D02*
X120432859Y-61990754D01*
X120432859Y-61990754D02*
X120385240Y-61966944D01*
X120385240Y-61966944D02*
X120266192Y-61966944D01*
X120266192Y-61966944D02*
X120218573Y-61990754D01*
X120218573Y-61990754D02*
X120194764Y-62014563D01*
X120194764Y-62014563D02*
X120170954Y-62062182D01*
X120170954Y-62062182D02*
X120170954Y-62109801D01*
X120170954Y-62109801D02*
X120194764Y-62181230D01*
X120194764Y-62181230D02*
X120480478Y-62466944D01*
X120480478Y-62466944D02*
X120170954Y-62466944D01*
D11*
X125739050Y-64752944D02*
X125905716Y-64514849D01*
X126024764Y-64752944D02*
X126024764Y-64252944D01*
X126024764Y-64252944D02*
X125834288Y-64252944D01*
X125834288Y-64252944D02*
X125786669Y-64276754D01*
X125786669Y-64276754D02*
X125762859Y-64300563D01*
X125762859Y-64300563D02*
X125739050Y-64348182D01*
X125739050Y-64348182D02*
X125739050Y-64419611D01*
X125739050Y-64419611D02*
X125762859Y-64467230D01*
X125762859Y-64467230D02*
X125786669Y-64491039D01*
X125786669Y-64491039D02*
X125834288Y-64514849D01*
X125834288Y-64514849D02*
X126024764Y-64514849D01*
X125572383Y-64252944D02*
X125262859Y-64252944D01*
X125262859Y-64252944D02*
X125429526Y-64443420D01*
X125429526Y-64443420D02*
X125358097Y-64443420D01*
X125358097Y-64443420D02*
X125310478Y-64467230D01*
X125310478Y-64467230D02*
X125286669Y-64491039D01*
X125286669Y-64491039D02*
X125262859Y-64538658D01*
X125262859Y-64538658D02*
X125262859Y-64657706D01*
X125262859Y-64657706D02*
X125286669Y-64705325D01*
X125286669Y-64705325D02*
X125310478Y-64729134D01*
X125310478Y-64729134D02*
X125358097Y-64752944D01*
X125358097Y-64752944D02*
X125500954Y-64752944D01*
X125500954Y-64752944D02*
X125548573Y-64729134D01*
X125548573Y-64729134D02*
X125572383Y-64705325D01*
X125739050Y-58402944D02*
X125905716Y-58164849D01*
X126024764Y-58402944D02*
X126024764Y-57902944D01*
X126024764Y-57902944D02*
X125834288Y-57902944D01*
X125834288Y-57902944D02*
X125786669Y-57926754D01*
X125786669Y-57926754D02*
X125762859Y-57950563D01*
X125762859Y-57950563D02*
X125739050Y-57998182D01*
X125739050Y-57998182D02*
X125739050Y-58069611D01*
X125739050Y-58069611D02*
X125762859Y-58117230D01*
X125762859Y-58117230D02*
X125786669Y-58141039D01*
X125786669Y-58141039D02*
X125834288Y-58164849D01*
X125834288Y-58164849D02*
X126024764Y-58164849D01*
X125548573Y-57950563D02*
X125524764Y-57926754D01*
X125524764Y-57926754D02*
X125477145Y-57902944D01*
X125477145Y-57902944D02*
X125358097Y-57902944D01*
X125358097Y-57902944D02*
X125310478Y-57926754D01*
X125310478Y-57926754D02*
X125286669Y-57950563D01*
X125286669Y-57950563D02*
X125262859Y-57998182D01*
X125262859Y-57998182D02*
X125262859Y-58045801D01*
X125262859Y-58045801D02*
X125286669Y-58117230D01*
X125286669Y-58117230D02*
X125572383Y-58402944D01*
X125572383Y-58402944D02*
X125262859Y-58402944D01*
D12*
X120623336Y-55275563D02*
X120670955Y-55251754D01*
X120670955Y-55251754D02*
X120718574Y-55204134D01*
X120718574Y-55204134D02*
X120790002Y-55132706D01*
X120790002Y-55132706D02*
X120837621Y-55108896D01*
X120837621Y-55108896D02*
X120885240Y-55108896D01*
X120861431Y-55227944D02*
X120909050Y-55204134D01*
X120909050Y-55204134D02*
X120956669Y-55156515D01*
X120956669Y-55156515D02*
X120980478Y-55061277D01*
X120980478Y-55061277D02*
X120980478Y-54894611D01*
X120980478Y-54894611D02*
X120956669Y-54799373D01*
X120956669Y-54799373D02*
X120909050Y-54751754D01*
X120909050Y-54751754D02*
X120861431Y-54727944D01*
X120861431Y-54727944D02*
X120766193Y-54727944D01*
X120766193Y-54727944D02*
X120718574Y-54751754D01*
X120718574Y-54751754D02*
X120670955Y-54799373D01*
X120670955Y-54799373D02*
X120647145Y-54894611D01*
X120647145Y-54894611D02*
X120647145Y-55061277D01*
X120647145Y-55061277D02*
X120670955Y-55156515D01*
X120670955Y-55156515D02*
X120718574Y-55204134D01*
X120718574Y-55204134D02*
X120766193Y-55227944D01*
X120766193Y-55227944D02*
X120861431Y-55227944D01*
X120170954Y-55227944D02*
X120456668Y-55227944D01*
X120313811Y-55227944D02*
X120313811Y-54727944D01*
X120313811Y-54727944D02*
X120361430Y-54799373D01*
X120361430Y-54799373D02*
X120409049Y-54846992D01*
X120409049Y-54846992D02*
X120456668Y-54870801D01*
D13*
X141527272Y-94947223D02*
X141527272Y-95447223D01*
X141527272Y-95447223D02*
X142527272Y-95447223D01*
X141527272Y-98647223D02*
X142527272Y-98647223D01*
X141527272Y-99147223D02*
X141527272Y-98647223D01*
X142027272Y-94947223D02*
X142027272Y-95447223D01*
X142027272Y-99147223D02*
X142027272Y-98647223D01*
X142127272Y-95847223D02*
X143527272Y-94447223D01*
X142127272Y-98247223D02*
X142127272Y-95847223D01*
X142727272Y-96047223D02*
X142727272Y-98047223D01*
X142727272Y-98047223D02*
X143727272Y-99047223D01*
X143027272Y-94947223D02*
X141527272Y-94947223D01*
X143027272Y-99147223D02*
X141527272Y-99147223D01*
X143527272Y-94447223D02*
X145927272Y-94447223D01*
X143527272Y-99647223D02*
X142127272Y-98247223D01*
X143727272Y-95047223D02*
X142727272Y-96047223D01*
X143727272Y-99047223D02*
X145727272Y-99047223D01*
X145727272Y-95047223D02*
X143727272Y-95047223D01*
X145727272Y-99047223D02*
X146727272Y-98047223D01*
X145927272Y-94447223D02*
X147327272Y-95847223D01*
X145927272Y-99647223D02*
X143527272Y-99647223D01*
X146427272Y-94947223D02*
X147927272Y-94947223D01*
X146427272Y-99147223D02*
X147927272Y-99147223D01*
X146727272Y-96047223D02*
X145727272Y-95047223D01*
X146727272Y-98047223D02*
X146727272Y-96047223D01*
X147327272Y-95847223D02*
X147327272Y-98247223D01*
X147327272Y-98247223D02*
X145927272Y-99647223D01*
X147427272Y-94947223D02*
X147427272Y-95447223D01*
X147427272Y-99147223D02*
X147427272Y-98647223D01*
X147927272Y-94947223D02*
X147927272Y-95447223D01*
X147927272Y-95447223D02*
X146927272Y-95447223D01*
X147927272Y-98647223D02*
X146927272Y-98647223D01*
X147927272Y-99147223D02*
X147927272Y-98647223D01*
X145727272Y-97047223D02*
G75*
G03*
X145727272Y-97047223I-1000000J0D01*
G01*
X124655717Y-54927254D02*
X124655717Y-56177254D01*
X124655717Y-56177254D02*
X126655717Y-56177254D01*
X126655717Y-54927254D02*
X124655717Y-54927254D01*
X126655717Y-56177254D02*
X126655717Y-54927254D01*
X124655717Y-61404253D02*
X124655717Y-62654253D01*
X124655717Y-62654253D02*
X126655717Y-62654253D01*
X126655717Y-61404253D02*
X124655717Y-61404253D01*
X126655717Y-62654253D02*
X126655717Y-61404253D01*
X142962274Y-112497224D02*
X142962274Y-121422224D01*
X142962274Y-121422224D02*
X143937274Y-122397224D01*
X143937274Y-122397224D02*
X146862274Y-122397224D01*
X146862274Y-112497224D02*
X142962274Y-112497224D01*
X146862274Y-122397224D02*
X146862274Y-112497224D01*
X119055717Y-62983254D02*
X119055717Y-61583254D01*
X121525717Y-62983254D02*
X119075717Y-62983254D01*
X121525717Y-62983254D02*
X122095717Y-62433254D01*
X122095717Y-62433254D02*
X122095717Y-61583254D01*
X122095717Y-61583254D02*
X119055717Y-61583254D01*
X126655717Y-65194254D02*
X126655717Y-63944254D01*
X126655717Y-63944254D02*
X124655717Y-63944254D01*
X124655717Y-65194254D02*
X126655717Y-65194254D01*
X124655717Y-63944254D02*
X124655717Y-65194254D01*
X126655717Y-58844254D02*
X126655717Y-57594254D01*
X126655717Y-57594254D02*
X124655717Y-57594254D01*
X124655717Y-58844254D02*
X126655717Y-58844254D01*
X124655717Y-57594254D02*
X124655717Y-58844254D01*
X122095717Y-54344254D02*
X122095717Y-55744254D01*
X119625717Y-54344254D02*
X122075717Y-54344254D01*
X119625717Y-54344254D02*
X119055717Y-54894254D01*
X119055717Y-54894254D02*
X119055717Y-55744254D01*
X119055717Y-55744254D02*
X122095717Y-55744254D01*
M02*
