G04 #@! TF.GenerationSoftware,KiCad,Pcbnew,(7.0.0-0)*
G04 #@! TF.CreationDate,2023-03-04T10:35:24+00:00*
G04 #@! TF.ProjectId,LeChiffre,4c654368-6966-4667-9265-2e6b69636164,rev?*
G04 #@! TF.SameCoordinates,Original*
G04 #@! TF.FileFunction,AssemblyDrawing,Top*
%FSLAX46Y46*%
G04 Gerber Fmt 4.6, Leading zero omitted, Abs format (unit mm)*
G04 Created by KiCad (PCBNEW (7.0.0-0)) date 2023-03-04 10:35:24*
%MOMM*%
%LPD*%
G01*
G04 APERTURE LIST*
%ADD10C,0.150000*%
%ADD11C,0.100000*%
%ADD12C,0.120000*%
G04 APERTURE END LIST*
D10*
X144403937Y-90964603D02*
X144403937Y-91678889D01*
X144403937Y-91678889D02*
X144356318Y-91821746D01*
X144356318Y-91821746D02*
X144261080Y-91916984D01*
X144261080Y-91916984D02*
X144118223Y-91964603D01*
X144118223Y-91964603D02*
X144022985Y-91964603D01*
X144832509Y-91059842D02*
X144880128Y-91012223D01*
X144880128Y-91012223D02*
X144975366Y-90964603D01*
X144975366Y-90964603D02*
X145213461Y-90964603D01*
X145213461Y-90964603D02*
X145308699Y-91012223D01*
X145308699Y-91012223D02*
X145356318Y-91059842D01*
X145356318Y-91059842D02*
X145403937Y-91155080D01*
X145403937Y-91155080D02*
X145403937Y-91250318D01*
X145403937Y-91250318D02*
X145356318Y-91393175D01*
X145356318Y-91393175D02*
X144784890Y-91964603D01*
X144784890Y-91964603D02*
X145403937Y-91964603D01*
X140947034Y-85846747D02*
X140994653Y-85703890D01*
X140994653Y-85703890D02*
X140994653Y-85465795D01*
X140994653Y-85465795D02*
X140947034Y-85370557D01*
X140947034Y-85370557D02*
X140899415Y-85322938D01*
X140899415Y-85322938D02*
X140804177Y-85275319D01*
X140804177Y-85275319D02*
X140708939Y-85275319D01*
X140708939Y-85275319D02*
X140613701Y-85322938D01*
X140613701Y-85322938D02*
X140566082Y-85370557D01*
X140566082Y-85370557D02*
X140518463Y-85465795D01*
X140518463Y-85465795D02*
X140470844Y-85656271D01*
X140470844Y-85656271D02*
X140423225Y-85751509D01*
X140423225Y-85751509D02*
X140375606Y-85799128D01*
X140375606Y-85799128D02*
X140280368Y-85846747D01*
X140280368Y-85846747D02*
X140185130Y-85846747D01*
X140185130Y-85846747D02*
X140089892Y-85799128D01*
X140089892Y-85799128D02*
X140042273Y-85751509D01*
X140042273Y-85751509D02*
X139994653Y-85656271D01*
X139994653Y-85656271D02*
X139994653Y-85418176D01*
X139994653Y-85418176D02*
X140042273Y-85275319D01*
X139994653Y-84941985D02*
X140994653Y-84703890D01*
X140994653Y-84703890D02*
X140280368Y-84513414D01*
X140280368Y-84513414D02*
X140994653Y-84322938D01*
X140994653Y-84322938D02*
X139994653Y-84084843D01*
X139994653Y-83799128D02*
X139994653Y-83180081D01*
X139994653Y-83180081D02*
X140375606Y-83513414D01*
X140375606Y-83513414D02*
X140375606Y-83370557D01*
X140375606Y-83370557D02*
X140423225Y-83275319D01*
X140423225Y-83275319D02*
X140470844Y-83227700D01*
X140470844Y-83227700D02*
X140566082Y-83180081D01*
X140566082Y-83180081D02*
X140804177Y-83180081D01*
X140804177Y-83180081D02*
X140899415Y-83227700D01*
X140899415Y-83227700D02*
X140947034Y-83275319D01*
X140947034Y-83275319D02*
X140994653Y-83370557D01*
X140994653Y-83370557D02*
X140994653Y-83656271D01*
X140994653Y-83656271D02*
X140947034Y-83751509D01*
X140947034Y-83751509D02*
X140899415Y-83799128D01*
X139994653Y-82322938D02*
X139994653Y-82513414D01*
X139994653Y-82513414D02*
X140042273Y-82608652D01*
X140042273Y-82608652D02*
X140089892Y-82656271D01*
X140089892Y-82656271D02*
X140232749Y-82751509D01*
X140232749Y-82751509D02*
X140423225Y-82799128D01*
X140423225Y-82799128D02*
X140804177Y-82799128D01*
X140804177Y-82799128D02*
X140899415Y-82751509D01*
X140899415Y-82751509D02*
X140947034Y-82703890D01*
X140947034Y-82703890D02*
X140994653Y-82608652D01*
X140994653Y-82608652D02*
X140994653Y-82418176D01*
X140994653Y-82418176D02*
X140947034Y-82322938D01*
X140947034Y-82322938D02*
X140899415Y-82275319D01*
X140899415Y-82275319D02*
X140804177Y-82227700D01*
X140804177Y-82227700D02*
X140566082Y-82227700D01*
X140566082Y-82227700D02*
X140470844Y-82275319D01*
X140470844Y-82275319D02*
X140423225Y-82322938D01*
X140423225Y-82322938D02*
X140375606Y-82418176D01*
X140375606Y-82418176D02*
X140375606Y-82608652D01*
X140375606Y-82608652D02*
X140423225Y-82703890D01*
X140423225Y-82703890D02*
X140470844Y-82751509D01*
X140470844Y-82751509D02*
X140566082Y-82799128D01*
X118591833Y-39463640D02*
X119585405Y-39350437D01*
X118656520Y-40031395D02*
X119175760Y-39540891D01*
X119650092Y-39918192D02*
X119017649Y-39415124D01*
X117016741Y-44189946D02*
X118010313Y-44076743D01*
X118010313Y-44076743D02*
X118037266Y-44313308D01*
X118037266Y-44313308D02*
X118006125Y-44460637D01*
X118006125Y-44460637D02*
X117922280Y-44566044D01*
X117922280Y-44566044D02*
X117833045Y-44624138D01*
X117833045Y-44624138D02*
X117649184Y-44693014D01*
X117649184Y-44693014D02*
X117507245Y-44709186D01*
X117507245Y-44709186D02*
X117312603Y-44683435D01*
X117312603Y-44683435D02*
X117212586Y-44646904D01*
X117212586Y-44646904D02*
X117107179Y-44563059D01*
X117107179Y-44563059D02*
X117043694Y-44426511D01*
X117043694Y-44426511D02*
X117016741Y-44189946D01*
X117713872Y-45260769D02*
X117750403Y-45160753D01*
X117750403Y-45160753D02*
X117792326Y-45108049D01*
X117792326Y-45108049D02*
X117881561Y-45049955D01*
X117881561Y-45049955D02*
X117928874Y-45044564D01*
X117928874Y-45044564D02*
X118028890Y-45081096D01*
X118028890Y-45081096D02*
X118081594Y-45123018D01*
X118081594Y-45123018D02*
X118139688Y-45212254D01*
X118139688Y-45212254D02*
X118161251Y-45401505D01*
X118161251Y-45401505D02*
X118124719Y-45501522D01*
X118124719Y-45501522D02*
X118082797Y-45554225D01*
X118082797Y-45554225D02*
X117993561Y-45612320D01*
X117993561Y-45612320D02*
X117946248Y-45617710D01*
X117946248Y-45617710D02*
X117846232Y-45581179D01*
X117846232Y-45581179D02*
X117793528Y-45539256D01*
X117793528Y-45539256D02*
X117735434Y-45450021D01*
X117735434Y-45450021D02*
X117713872Y-45260769D01*
X117713872Y-45260769D02*
X117655777Y-45171534D01*
X117655777Y-45171534D02*
X117603074Y-45129612D01*
X117603074Y-45129612D02*
X117503057Y-45093080D01*
X117503057Y-45093080D02*
X117313805Y-45114642D01*
X117313805Y-45114642D02*
X117224570Y-45172737D01*
X117224570Y-45172737D02*
X117182648Y-45225440D01*
X117182648Y-45225440D02*
X117146116Y-45325457D01*
X117146116Y-45325457D02*
X117167679Y-45514709D01*
X117167679Y-45514709D02*
X117225773Y-45603944D01*
X117225773Y-45603944D02*
X117278476Y-45645866D01*
X117278476Y-45645866D02*
X117378493Y-45682398D01*
X117378493Y-45682398D02*
X117567745Y-45660835D01*
X117567745Y-45660835D02*
X117656980Y-45602741D01*
X117656980Y-45602741D02*
X117698902Y-45550037D01*
X117698902Y-45550037D02*
X117735434Y-45450021D01*
X118279844Y-46442390D02*
X118258282Y-46253138D01*
X118258282Y-46253138D02*
X118200188Y-46163903D01*
X118200188Y-46163903D02*
X118147484Y-46121981D01*
X118147484Y-46121981D02*
X117994764Y-46043527D01*
X117994764Y-46043527D02*
X117800122Y-46017776D01*
X117800122Y-46017776D02*
X117421618Y-46060901D01*
X117421618Y-46060901D02*
X117332383Y-46118996D01*
X117332383Y-46118996D02*
X117290460Y-46171699D01*
X117290460Y-46171699D02*
X117253929Y-46271716D01*
X117253929Y-46271716D02*
X117275491Y-46460967D01*
X117275491Y-46460967D02*
X117333585Y-46550203D01*
X117333585Y-46550203D02*
X117386289Y-46592125D01*
X117386289Y-46592125D02*
X117486306Y-46628657D01*
X117486306Y-46628657D02*
X117722870Y-46601704D01*
X117722870Y-46601704D02*
X117812106Y-46543609D01*
X117812106Y-46543609D02*
X117854028Y-46490906D01*
X117854028Y-46490906D02*
X117890560Y-46390889D01*
X117890560Y-46390889D02*
X117868997Y-46201638D01*
X117868997Y-46201638D02*
X117810903Y-46112402D01*
X117810903Y-46112402D02*
X117758199Y-46070480D01*
X117758199Y-46070480D02*
X117658183Y-46033948D01*
X152992607Y-40548170D02*
X152282912Y-40629030D01*
X152282912Y-40629030D02*
X152135583Y-40597889D01*
X152135583Y-40597889D02*
X152030176Y-40514044D01*
X152030176Y-40514044D02*
X151966691Y-40377496D01*
X151966691Y-40377496D02*
X151955910Y-40282870D01*
X152112238Y-41654946D02*
X152047550Y-41087190D01*
X152079894Y-41371068D02*
X153073466Y-41257865D01*
X153073466Y-41257865D02*
X152920746Y-41179411D01*
X152920746Y-41179411D02*
X152815339Y-41095566D01*
X152815339Y-41095566D02*
X152757245Y-41006331D01*
X111843268Y-45262616D02*
X111789362Y-44789487D01*
X111789362Y-44789487D02*
X112782934Y-44676284D01*
X111940299Y-46114249D02*
X111875612Y-45546494D01*
X111907956Y-45830372D02*
X112901527Y-45717169D01*
X112901527Y-45717169D02*
X112748807Y-45638715D01*
X112748807Y-45638715D02*
X112643400Y-45554870D01*
X112643400Y-45554870D02*
X112585306Y-45465635D01*
X101729573Y-46557744D02*
X101766105Y-46457727D01*
X101766105Y-46457727D02*
X101849949Y-46352320D01*
X101849949Y-46352320D02*
X101975716Y-46194209D01*
X101975716Y-46194209D02*
X102012248Y-46094193D01*
X102012248Y-46094193D02*
X102001467Y-45999567D01*
X101770293Y-46073833D02*
X101806824Y-45973816D01*
X101806824Y-45973816D02*
X101890669Y-45868409D01*
X101890669Y-45868409D02*
X102074530Y-45799534D01*
X102074530Y-45799534D02*
X102405721Y-45761799D01*
X102405721Y-45761799D02*
X102600363Y-45787550D01*
X102600363Y-45787550D02*
X102705770Y-45871394D01*
X102705770Y-45871394D02*
X102763864Y-45960630D01*
X102763864Y-45960630D02*
X102785427Y-46149881D01*
X102785427Y-46149881D02*
X102748895Y-46249898D01*
X102748895Y-46249898D02*
X102665051Y-46355305D01*
X102665051Y-46355305D02*
X102481189Y-46424181D01*
X102481189Y-46424181D02*
X102149999Y-46461915D01*
X102149999Y-46461915D02*
X101955356Y-46436165D01*
X101955356Y-46436165D02*
X101849949Y-46352320D01*
X101849949Y-46352320D02*
X101791855Y-46263085D01*
X101791855Y-46263085D02*
X101770293Y-46073833D01*
X102850114Y-46717637D02*
X102920193Y-47332705D01*
X102920193Y-47332705D02*
X102503955Y-47044639D01*
X102503955Y-47044639D02*
X102520127Y-47186578D01*
X102520127Y-47186578D02*
X102483595Y-47286595D01*
X102483595Y-47286595D02*
X102441673Y-47339298D01*
X102441673Y-47339298D02*
X102352437Y-47397393D01*
X102352437Y-47397393D02*
X102115873Y-47424346D01*
X102115873Y-47424346D02*
X102015856Y-47387814D01*
X102015856Y-47387814D02*
X101963153Y-47345892D01*
X101963153Y-47345892D02*
X101905058Y-47256656D01*
X101905058Y-47256656D02*
X101872715Y-46972779D01*
X101872715Y-46972779D02*
X101909246Y-46872762D01*
X101909246Y-46872762D02*
X101951169Y-46820059D01*
X129366899Y-42842689D02*
X130360471Y-42729486D01*
X129431587Y-43410444D02*
X129950827Y-42919940D01*
X130425159Y-43297241D02*
X129792716Y-42794173D01*
X129539400Y-44356703D02*
X129474712Y-43788948D01*
X129507056Y-44072826D02*
X130500628Y-43959622D01*
X130500628Y-43959622D02*
X130347908Y-43881168D01*
X130347908Y-43881168D02*
X130242500Y-43797324D01*
X130242500Y-43797324D02*
X130184406Y-43708088D01*
X127780270Y-36571702D02*
X127667067Y-35578130D01*
X127667067Y-35578130D02*
X127903632Y-35551177D01*
X127903632Y-35551177D02*
X128050961Y-35582318D01*
X128050961Y-35582318D02*
X128156368Y-35666163D01*
X128156368Y-35666163D02*
X128214462Y-35755398D01*
X128214462Y-35755398D02*
X128283338Y-35939259D01*
X128283338Y-35939259D02*
X128299510Y-36081198D01*
X128299510Y-36081198D02*
X128273759Y-36275840D01*
X128273759Y-36275840D02*
X128237228Y-36375857D01*
X128237228Y-36375857D02*
X128153383Y-36481264D01*
X128153383Y-36481264D02*
X128016835Y-36544749D01*
X128016835Y-36544749D02*
X127780270Y-36571702D01*
X128851093Y-35874571D02*
X128751077Y-35838040D01*
X128751077Y-35838040D02*
X128698373Y-35796117D01*
X128698373Y-35796117D02*
X128640279Y-35706882D01*
X128640279Y-35706882D02*
X128634888Y-35659569D01*
X128634888Y-35659569D02*
X128671420Y-35559553D01*
X128671420Y-35559553D02*
X128713342Y-35506849D01*
X128713342Y-35506849D02*
X128802578Y-35448755D01*
X128802578Y-35448755D02*
X128991829Y-35427192D01*
X128991829Y-35427192D02*
X129091846Y-35463724D01*
X129091846Y-35463724D02*
X129144549Y-35505646D01*
X129144549Y-35505646D02*
X129202644Y-35594882D01*
X129202644Y-35594882D02*
X129208034Y-35642195D01*
X129208034Y-35642195D02*
X129171503Y-35742211D01*
X129171503Y-35742211D02*
X129129580Y-35794915D01*
X129129580Y-35794915D02*
X129040345Y-35853009D01*
X129040345Y-35853009D02*
X128851093Y-35874571D01*
X128851093Y-35874571D02*
X128761858Y-35932666D01*
X128761858Y-35932666D02*
X128719936Y-35985369D01*
X128719936Y-35985369D02*
X128683404Y-36085386D01*
X128683404Y-36085386D02*
X128704966Y-36274638D01*
X128704966Y-36274638D02*
X128763061Y-36363873D01*
X128763061Y-36363873D02*
X128815764Y-36405795D01*
X128815764Y-36405795D02*
X128915781Y-36442327D01*
X128915781Y-36442327D02*
X129105033Y-36420764D01*
X129105033Y-36420764D02*
X129194268Y-36362670D01*
X129194268Y-36362670D02*
X129236190Y-36309967D01*
X129236190Y-36309967D02*
X129272722Y-36209950D01*
X129272722Y-36209950D02*
X129251159Y-36020698D01*
X129251159Y-36020698D02*
X129193065Y-35931463D01*
X129193065Y-35931463D02*
X129140361Y-35889541D01*
X129140361Y-35889541D02*
X129040345Y-35853009D01*
X130080027Y-35303208D02*
X129606898Y-35357114D01*
X129606898Y-35357114D02*
X129613491Y-35835634D01*
X129613491Y-35835634D02*
X129655413Y-35782931D01*
X129655413Y-35782931D02*
X129744649Y-35724837D01*
X129744649Y-35724837D02*
X129981213Y-35697883D01*
X129981213Y-35697883D02*
X130081230Y-35734415D01*
X130081230Y-35734415D02*
X130133933Y-35776337D01*
X130133933Y-35776337D02*
X130192028Y-35865573D01*
X130192028Y-35865573D02*
X130218981Y-36102137D01*
X130218981Y-36102137D02*
X130182449Y-36202154D01*
X130182449Y-36202154D02*
X130140527Y-36254858D01*
X130140527Y-36254858D02*
X130051291Y-36312952D01*
X130051291Y-36312952D02*
X129814727Y-36339905D01*
X129814727Y-36339905D02*
X129714710Y-36303373D01*
X129714710Y-36303373D02*
X129662007Y-36261451D01*
X134399094Y-37931168D02*
X134285891Y-36937596D01*
X134966849Y-37866481D02*
X134476345Y-37347241D01*
X134853646Y-36872909D02*
X134350578Y-37505352D01*
D11*
X139657271Y-92867223D02*
X139657271Y-90962223D01*
X149817271Y-92867223D02*
X139657271Y-92867223D01*
X139657271Y-90962223D02*
X140292271Y-90327223D01*
X140292271Y-90327223D02*
X149817271Y-90327223D01*
X149817271Y-90327223D02*
X149817271Y-92867223D01*
D12*
X149827273Y-73437224D02*
X150927273Y-74437224D01*
X138527273Y-73437224D02*
X149827273Y-73437224D01*
X150927273Y-74437224D02*
X150927273Y-86637224D01*
X144727273Y-77037224D02*
X144727273Y-83037224D01*
X147727273Y-80037224D02*
X141727273Y-80037224D01*
X150927273Y-86637224D02*
X138527273Y-86637224D01*
X138527273Y-86637224D02*
X138527273Y-73437224D01*
X147727273Y-80037224D02*
G75*
G03*
X147727273Y-80037224I-3000000J0D01*
G01*
D11*
X116900000Y-39920000D02*
X117180744Y-42384058D01*
X118522066Y-42231234D02*
X115839422Y-42536883D01*
X115839422Y-42536883D02*
X116428079Y-47703456D01*
X118599044Y-42906863D02*
X115916400Y-43212511D01*
X118610364Y-43006220D02*
X115927720Y-43311869D01*
X118621685Y-43105577D02*
X115939041Y-43411226D01*
X119110723Y-47397808D02*
X118522066Y-42231234D01*
X116428079Y-47703456D02*
X119110723Y-47397808D01*
X118050145Y-50014690D02*
X117769401Y-47550632D01*
X145558772Y-46259753D02*
X144451997Y-45379384D01*
X158971992Y-44731510D02*
X145558772Y-46259753D01*
X143546371Y-37430810D02*
X144451997Y-45379384D01*
X143546371Y-37430810D02*
X157953163Y-35789363D01*
X157953163Y-35789363D02*
X158971992Y-44731510D01*
X109020723Y-49133688D02*
X110262688Y-48992184D01*
X109381674Y-48679911D02*
X113852747Y-48170496D01*
X113852747Y-48170496D02*
X113184849Y-42308422D01*
X108879219Y-47891724D02*
X109020723Y-49133688D01*
X108713775Y-42817837D02*
X109381674Y-48679911D01*
X113184849Y-42308422D02*
X108713775Y-42817837D01*
X102075191Y-51717473D02*
X106446907Y-51219379D01*
X103337027Y-51573705D02*
X102204995Y-41637986D01*
X106446907Y-51219379D02*
X105314875Y-41283660D01*
X101718600Y-48587722D02*
X102980437Y-48443953D01*
X101299749Y-44911506D02*
X102561585Y-44767738D01*
X100943158Y-41781754D02*
X102075191Y-51717473D01*
X105314875Y-41283660D02*
X100943158Y-41781754D01*
X121342041Y-47695418D02*
X120235266Y-46815049D01*
X140001320Y-45569462D02*
X121342041Y-47695418D01*
X120235266Y-46815049D02*
X119629628Y-41499440D01*
X119629628Y-41499440D02*
X139282480Y-39260280D01*
X139282480Y-39260280D02*
X140001320Y-45569462D01*
X134380000Y-35450000D02*
X131915942Y-35730744D01*
X132068766Y-37072066D02*
X131763117Y-34389422D01*
X131763117Y-34389422D02*
X126596544Y-34978079D01*
X131393137Y-37149044D02*
X131087489Y-34466400D01*
X131293780Y-37160364D02*
X130988131Y-34477720D01*
X131194423Y-37171685D02*
X130888774Y-34489041D01*
X126902192Y-37660723D02*
X132068766Y-37072066D01*
X126596544Y-34978079D02*
X126902192Y-37660723D01*
X124285310Y-36600145D02*
X126749368Y-36319401D01*
M02*
