M48
; DRILL file {KiCad (7.0.0-0)} date Saturday, 04 March 2023 at 10:35:27
; FORMAT={-:-/ absolute / metric / decimal}
; #@! TF.CreationDate,2023-03-04T10:35:27+00:00
; #@! TF.GenerationSoftware,Kicad,Pcbnew,(7.0.0-0)
; #@! TF.FileFunction,Plated,1,2,PTH
FMAT,2
METRIC
; #@! TA.AperFunction,Plated,PTH,ViaDrill
T1C0.400
; #@! TA.AperFunction,Plated,PTH,ComponentDrill
T2C0.700
; #@! TA.AperFunction,Plated,PTH,ComponentDrill
T3C0.750
; #@! TA.AperFunction,Plated,PTH,ComponentDrill
T4C0.800
; #@! TA.AperFunction,Plated,PTH,ComponentDrill
T5C1.000
; #@! TA.AperFunction,Plated,PTH,ComponentDrill
T6C1.092
; #@! TA.AperFunction,Plated,PTH,ComponentDrill
T7C1.100
; #@! TA.AperFunction,Plated,PTH,ComponentDrill
T8C1.200
; #@! TA.AperFunction,Plated,PTH,ComponentDrill
T9C1.470
%
G90
G05
T1
X34.308Y-75.052
X36.812Y-81.173
X37.801Y-84.088
X42.019Y-103.017
X44.051Y-84.84
X45.628Y-103.036
X47.408Y-95.728
X49.642Y-111.818
X57.54Y-79.313
X62.248Y-100.953
X78.98Y-76.926
X79.602Y-113.453
X80.444Y-60.505
X80.693Y-111.571
X82.285Y-98.887
X86.574Y-125.483
X88.304Y-125.113
X88.736Y-122.781
X94.414Y-63.045
X95.646Y-119.891
X96.463Y-85.467
X98.748Y-119.398
X100.032Y-107.324
X107.388Y-126.708
X107.622Y-65.585
X107.863Y-70.274
X109.682Y-66.804
X110.976Y-73.728
X114.214Y-125.177
X115.241Y-89.404
X116.514Y-123.247
X116.531Y-70.597
X118.558Y-111.24
X123.092Y-110.101
X124.55Y-132.696
X124.708Y-91.63
X126.653Y-74.085
X126.709Y-108.025
X127.86Y-94.868
X128.119Y-71.39
X134.167Y-115.885
X136.959Y-118.798
X137.422Y-122.382
X137.472Y-125.38
X137.594Y-114.861
X137.975Y-97.081
X138.483Y-120.068
X139.499Y-76.634
X139.499Y-125.783
X140.261Y-116.512
X140.388Y-123.37
X142.188Y-105.06
X142.547Y-128.323
X143.563Y-55.044
X143.944Y-128.958
X144.325Y-115.623
X144.579Y-123.37
X145.214Y-68.76
X145.468Y-120.83
X145.468Y-128.45
X146.103Y-123.116
X148.852Y-102.443
X149.151Y-68.379
X151.873Y-126.753
X152.707Y-72.951
X153.469Y-92.509
X153.469Y-113.845
X153.469Y-121.846
X155.374Y-95.049
X155.501Y-68.379
X155.501Y-86.032
X156.771Y-55.044
X157.18Y-117.429
X157.47Y-85.397
X157.533Y-68.633
X157.66Y-112.194
X158.422Y-81.841
X159.146Y-68.76
X160.767Y-65.419
X161.364Y-90.709
X161.491Y-68.738
X161.491Y-105.06
X162.441Y-89.743
X163.502Y-108.412
X165.608Y-127.762
X168.582Y-130.101
X168.955Y-72.728
X169.66Y-133.403
X172.876Y-66.105
X173.207Y-72.974
X174.807Y-127.785
X175.709Y-67.293
X176.907Y-73.927
X179.31Y-107.143
X181.864Y-122.853
X184.222Y-85.568
X187.443Y-68.027
X193.31Y-123.21
X197.828Y-102.694
X199.667Y-114.316
X200.31Y-113.461
X201.523Y-76.407
X202.022Y-117.865
X204.167Y-116.578
X204.743Y-58.865
X206.292Y-124.506
X208.729Y-73.416
X213.165Y-91.367
X215.916Y-76.071
X216.494Y-83.588
X217.048Y-94.576
X218.998Y-71.772
X220.726Y-107.442
X222.666Y-75.273
X224.028Y-109.625
X226.691Y-58.187
X233.188Y-108.126
X237.094Y-84.766
X237.101Y-94.366
X239.468Y-106.18
X239.792Y-91.089
X239.991Y-107.352
X242.112Y-98.484
X242.752Y-100.349
X243.235Y-107.432
X243.386Y-75.95
X248.127Y-58.883
X248.471Y-70.066
X250.033Y-78.398
X252.308Y-56.207
X252.384Y-67.565
X253.073Y-93.309
X253.212Y-69.442
X253.224Y-97.625
X253.558Y-92.0
X253.725Y-74.965
X254.402Y-67.113
X255.919Y-85.105
X257.096Y-95.158
X257.556Y-103.886
X258.572Y-105.156
T2
X121.814Y-40.617
X122.676Y-48.188
X124.337Y-40.329
X125.2Y-47.9
X134.531Y-39.168
X135.394Y-46.739
X136.956Y-38.891
X137.818Y-46.462
T3
X110.624Y-44.563
X110.85Y-46.55
T5
X140.927Y-91.597
X142.227Y-72.537
X142.227Y-87.037
X143.467Y-91.597
X144.727Y-72.537
X146.007Y-91.597
X147.227Y-72.537
X147.227Y-87.037
X148.547Y-91.597
T6
X130.985Y-50.687
X131.273Y-53.211
X131.56Y-55.735
X131.848Y-58.258
X132.135Y-60.782
X132.423Y-63.306
X132.71Y-65.829
X133.509Y-50.4
X135.234Y-65.542
X136.032Y-50.112
X136.895Y-57.683
X137.183Y-60.207
X137.47Y-62.731
X137.758Y-65.254
X138.556Y-49.825
X140.281Y-64.967
X141.08Y-49.537
X142.805Y-64.679
X143.603Y-49.25
X145.329Y-64.392
X146.127Y-48.962
X147.852Y-64.104
X148.651Y-48.675
X150.376Y-63.817
X151.174Y-48.387
X152.9Y-63.529
X153.698Y-48.1
X155.423Y-63.242
X156.222Y-47.812
X157.947Y-62.954
X158.745Y-47.525
X160.471Y-62.667
T7
X104.351Y-43.869
X104.639Y-46.393
X104.926Y-48.917
X116.9Y-39.92
X118.05Y-50.015
X124.285Y-36.6
X134.38Y-35.45
T8
X32.322Y-109.62
X34.644Y-90.712
X36.965Y-71.804
X37.029Y-112.314
X39.351Y-93.406
X41.672Y-74.498
X52.116Y-107.596
X55.096Y-88.781
X56.726Y-110.452
X58.077Y-69.965
X59.706Y-91.637
X62.686Y-72.822
X72.025Y-104.761
X75.985Y-86.128
X76.479Y-107.855
X79.946Y-67.494
X80.44Y-89.221
X84.4Y-70.588
X85.696Y-132.011
X89.668Y-113.381
X90.151Y-135.105
X93.629Y-94.747
X94.122Y-116.474
X97.59Y-76.113
X98.083Y-97.84
X102.044Y-79.207
X104.339Y-135.962
X108.302Y-117.341
X108.793Y-139.056
X112.263Y-98.708
X112.756Y-120.435
X116.223Y-80.074
X116.717Y-101.801
X120.678Y-83.167
X123.012Y-139.916
X127.466Y-143.01
X139.727Y-83.587
X144.727Y-85.687
X157.652Y-142.036
X162.396Y-81.932
X163.011Y-142.864
X167.005Y-100.416
X167.756Y-82.76
X171.613Y-118.9
X172.364Y-101.244
X176.194Y-137.375
X176.973Y-119.728
X180.88Y-77.323
X181.554Y-138.203
X185.489Y-95.807
X186.24Y-78.151
X190.098Y-114.291
X190.848Y-96.635
X194.673Y-132.789
X195.457Y-115.119
X198.212Y-68.093
X200.032Y-133.617
X202.821Y-86.578
X203.572Y-68.921
X207.429Y-105.062
X208.18Y-87.406
X212.789Y-105.89
X219.734Y-66.922
X223.369Y-85.622
X225.043Y-68.029
X227.004Y-104.322
X228.677Y-86.729
X232.312Y-105.429
X240.804Y-67.492
X243.784Y-86.307
X246.071Y-68.784
X246.764Y-105.123
X249.051Y-87.599
X252.031Y-106.415
T9
X34.608Y-111.191
X34.718Y-110.62
X36.929Y-92.283
X37.04Y-91.712
X39.251Y-73.375
X39.361Y-72.804
X39.742Y-110.733
X41.22Y-109.444
X42.063Y-91.825
X43.542Y-90.536
X44.385Y-72.917
X45.863Y-71.628
X54.346Y-109.245
X54.476Y-108.679
X57.326Y-90.43
X57.456Y-89.863
X59.493Y-108.967
X60.306Y-71.614
X60.436Y-71.048
X61.015Y-107.73
X62.473Y-90.152
X63.995Y-88.914
X65.453Y-71.336
X66.975Y-70.099
X74.165Y-106.525
X74.325Y-105.966
X78.126Y-87.891
X78.285Y-87.332
X79.319Y-106.516
X80.904Y-105.361
X82.086Y-69.257
X82.246Y-68.698
X83.28Y-87.883
X84.865Y-86.727
X87.241Y-69.249
X87.837Y-133.775
X87.996Y-133.216
X88.826Y-68.093
X91.808Y-115.144
X91.968Y-114.585
X92.991Y-133.766
X94.576Y-132.611
X95.769Y-96.51
X95.929Y-95.951
X96.963Y-115.136
X98.548Y-113.98
X99.73Y-77.877
X99.89Y-77.318
X100.923Y-96.502
X102.508Y-95.346
X104.884Y-77.868
X106.469Y-76.712
X106.479Y-137.726
X106.639Y-137.167
X110.442Y-119.105
X110.602Y-118.546
X111.633Y-137.717
X113.218Y-136.561
X114.403Y-100.471
X114.563Y-99.912
X115.596Y-119.096
X117.181Y-117.94
X118.364Y-81.837
X118.523Y-81.278
X119.557Y-100.463
X121.142Y-99.307
X123.518Y-81.829
X125.103Y-80.673
X125.152Y-141.68
X125.312Y-141.121
X130.307Y-141.671
X131.892Y-140.515
X142.187Y-84.867
X142.227Y-84.287
X147.227Y-83.787
X148.537Y-82.327
X160.247Y-142.111
X160.348Y-142.683
X164.977Y-140.416
X164.991Y-82.006
X165.093Y-82.578
X165.895Y-138.682
X169.6Y-100.49
X169.701Y-101.063
X169.722Y-80.311
X170.64Y-78.578
X174.208Y-118.974
X174.31Y-119.547
X174.33Y-98.795
X175.248Y-97.062
X178.789Y-137.449
X178.891Y-138.022
X178.939Y-117.28
X179.857Y-115.546
X183.475Y-77.397
X183.52Y-135.755
X183.577Y-77.97
X184.438Y-134.021
X188.084Y-95.882
X188.185Y-96.454
X188.206Y-75.703
X189.124Y-73.969
X192.693Y-114.366
X192.794Y-114.938
X192.815Y-94.187
X193.732Y-92.453
X197.268Y-132.863
X197.369Y-133.436
X197.423Y-112.671
X198.341Y-110.937
X200.807Y-68.168
X200.909Y-68.74
X201.998Y-131.168
X202.916Y-129.435
X205.416Y-86.652
X205.517Y-87.224
X205.538Y-66.473
X206.456Y-64.739
X210.025Y-105.136
X210.126Y-105.709
X210.146Y-84.957
X211.064Y-83.224
X214.755Y-103.441
X215.673Y-101.708
X222.321Y-67.132
X222.393Y-67.709
X225.956Y-85.832
X226.028Y-86.409
X227.134Y-65.687
X228.141Y-64.004
X229.591Y-104.532
X229.663Y-105.109
X230.769Y-84.387
X231.776Y-82.704
X234.404Y-103.087
X235.411Y-101.404
X243.383Y-67.792
X243.434Y-68.371
X246.363Y-86.608
X246.414Y-87.187
X248.243Y-66.516
X249.308Y-64.869
X249.343Y-105.423
X249.394Y-106.002
X251.223Y-85.332
X252.289Y-83.685
X254.203Y-104.147
X255.269Y-102.5
T4
G00X145.097Y-43.092
M15
G01X144.803Y-40.508
M16
G05
G00X148.48Y-36.567
M15
G01X146.294Y-36.816
M16
G05
G00X150.837Y-42.236
M15
G01X150.588Y-40.05
M16
G05
T0
M30
