G04 #@! TF.GenerationSoftware,KiCad,Pcbnew,(7.0.0-0)*
G04 #@! TF.CreationDate,2023-03-04T10:35:24+00:00*
G04 #@! TF.ProjectId,LeChiffre,4c654368-6966-4667-9265-2e6b69636164,rev?*
G04 #@! TF.SameCoordinates,Original*
G04 #@! TF.FileFunction,Soldermask,Bot*
G04 #@! TF.FilePolarity,Negative*
%FSLAX46Y46*%
G04 Gerber Fmt 4.6, Leading zero omitted, Abs format (unit mm)*
G04 Created by KiCad (PCBNEW (7.0.0-0)) date 2023-03-04 10:35:24*
%MOMM*%
%LPD*%
G01*
G04 APERTURE LIST*
G04 Aperture macros list*
%AMRoundRect*
0 Rectangle with rounded corners*
0 $1 Rounding radius*
0 $2 $3 $4 $5 $6 $7 $8 $9 X,Y pos of 4 corners*
0 Add a 4 corners polygon primitive as box body*
4,1,4,$2,$3,$4,$5,$6,$7,$8,$9,$2,$3,0*
0 Add four circle primitives for the rounded corners*
1,1,$1+$1,$2,$3*
1,1,$1+$1,$4,$5*
1,1,$1+$1,$6,$7*
1,1,$1+$1,$8,$9*
0 Add four rect primitives between the rounded corners*
20,1,$1+$1,$2,$3,$4,$5,0*
20,1,$1+$1,$4,$5,$6,$7,0*
20,1,$1+$1,$6,$7,$8,$9,0*
20,1,$1+$1,$8,$9,$2,$3,0*%
%AMHorizOval*
0 Thick line with rounded ends*
0 $1 width*
0 $2 $3 position (X,Y) of the first rounded end (center of the circle)*
0 $4 $5 position (X,Y) of the second rounded end (center of the circle)*
0 Add line between two ends*
20,1,$1,$2,$3,$4,$5,0*
0 Add two circle primitives to create the rounded ends*
1,1,$1,$2,$3*
1,1,$1,$4,$5*%
%AMRotRect*
0 Rectangle, with rotation*
0 The origin of the aperture is its center*
0 $1 length*
0 $2 width*
0 $3 Rotation angle, in degrees counterclockwise*
0 Add horizontal line*
21,1,$1,$2,0,0,$3*%
%AMFreePoly0*
4,1,19,0.550000,-0.750000,0.000000,-0.750000,0.000000,-0.744911,-0.071157,-0.744911,-0.207708,-0.704816,-0.327430,-0.627875,-0.420627,-0.520320,-0.479746,-0.390866,-0.500000,-0.250000,-0.500000,0.250000,-0.479746,0.390866,-0.420627,0.520320,-0.327430,0.627875,-0.207708,0.704816,-0.071157,0.744911,0.000000,0.744911,0.000000,0.750000,0.550000,0.750000,0.550000,-0.750000,0.550000,-0.750000,
$1*%
%AMFreePoly1*
4,1,19,0.000000,0.744911,0.071157,0.744911,0.207708,0.704816,0.327430,0.627875,0.420627,0.520320,0.479746,0.390866,0.500000,0.250000,0.500000,-0.250000,0.479746,-0.390866,0.420627,-0.520320,0.327430,-0.627875,0.207708,-0.704816,0.071157,-0.744911,0.000000,-0.744911,0.000000,-0.750000,-0.550000,-0.750000,-0.550000,0.750000,0.000000,0.750000,0.000000,0.744911,0.000000,0.744911,
$1*%
G04 Aperture macros list end*
%ADD10C,1.700000*%
%ADD11C,1.200000*%
%ADD12C,1.750000*%
%ADD13C,3.987800*%
%ADD14HorizOval,2.250000X-0.054968X-0.285445X0.054968X0.285445X0*%
%ADD15C,2.250000*%
%ADD16C,2.000000*%
%ADD17HorizOval,2.250000X-0.739078X-0.644739X0.739078X0.644739X0*%
%ADD18HorizOval,2.250000X-0.064896X-0.283352X0.064896X0.283352X0*%
%ADD19HorizOval,2.250000X-0.761129X-0.618553X0.761129X0.618553X0*%
%ADD20HorizOval,2.250000X-0.079637X-0.279568X0.079637X0.279568X0*%
%ADD21HorizOval,2.250000X-0.792459X-0.577871X0.792459X0.577871X0*%
%ADD22HorizOval,2.250000X0.050977X-0.286184X-0.050977X0.286184X0*%
%ADD23HorizOval,2.250000X-0.458935X-0.866778X0.458935X0.866778X0*%
%ADD24HorizOval,2.250000X0.035930X-0.288460X-0.035930X0.288460X0*%
%ADD25HorizOval,2.250000X-0.503670X-0.841571X0.503670X0.841571X0*%
%ADD26HorizOval,2.250000X0.025841X-0.289538X-0.025841X0.289538X0*%
%ADD27HorizOval,2.250000X-0.532734X-0.823481X0.532734X0.823481X0*%
%ADD28R,1.700000X1.700000*%
%ADD29O,1.700000X1.700000*%
%ADD30R,2.000000X2.000000*%
%ADD31HorizOval,2.250000X-0.019771X-0.290016X0.019771X0.290016X0*%
%ADD32HorizOval,2.250000X-0.654995X-0.730004X0.654995X0.730004X0*%
%ADD33RotRect,2.200000X2.200000X276.500000*%
%ADD34HorizOval,2.200000X0.000000X0.000000X0.000000X0.000000X0*%
%ADD35RotRect,4.400000X1.800000X96.500000*%
%ADD36HorizOval,1.800000X-0.124524X1.092929X0.124524X-1.092929X0*%
%ADD37HorizOval,1.800000X-1.092929X-0.124524X1.092929X0.124524X0*%
%ADD38RoundRect,0.250000X0.660604X-0.276998X0.581361X0.418502X-0.660604X0.276998X-0.581361X-0.418502X0*%
%ADD39HorizOval,1.200000X0.273232X0.031131X-0.273232X-0.031131X0*%
%ADD40RotRect,1.905000X2.000000X96.500000*%
%ADD41HorizOval,1.905000X0.047195X0.005377X-0.047195X-0.005377X0*%
%ADD42RotRect,1.400000X1.400000X96.500000*%
%ADD43C,1.400000*%
%ADD44RotRect,2.200000X2.200000X186.500000*%
%ADD45HorizOval,2.200000X0.000000X0.000000X0.000000X0.000000X0*%
%ADD46R,1.400000X1.200000*%
%ADD47RotRect,1.200000X1.400000X88.000000*%
%ADD48RotRect,1.200000X1.400000X85.000000*%
%ADD49RotRect,1.200000X1.400000X97.000000*%
%ADD50RotRect,1.200000X1.400000X94.000000*%
%ADD51RotRect,1.200000X1.400000X92.000000*%
%ADD52R,1.700000X1.000000*%
%ADD53R,1.300000X0.700000*%
%ADD54RoundRect,0.250000X-0.350000X-0.450000X0.350000X-0.450000X0.350000X0.450000X-0.350000X0.450000X0*%
%ADD55RotRect,1.622000X0.820000X348.000000*%
%ADD56RoundRect,0.205000X-0.635379X-0.074526X0.550136X-0.326515X0.635379X0.074526X-0.550136X0.326515X0*%
%ADD57RotRect,1.622000X0.803000X348.000000*%
%ADD58R,1.622000X0.820000*%
%ADD59RoundRect,0.205000X0.606000X0.205000X-0.606000X0.205000X-0.606000X-0.205000X0.606000X-0.205000X0*%
%ADD60R,1.622000X0.803000*%
%ADD61RotRect,1.622000X0.820000X168.000000*%
%ADD62RoundRect,0.205000X0.635379X0.074526X-0.550136X0.326515X-0.635379X-0.074526X0.550136X-0.326515X0*%
%ADD63RotRect,1.622000X0.803000X168.000000*%
%ADD64RotRect,1.622000X0.820000X14.000000*%
%ADD65RoundRect,0.205000X-0.538405X-0.345515X0.637593X-0.052306X0.538405X0.345515X-0.637593X0.052306X0*%
%ADD66RotRect,1.622000X0.803000X14.000000*%
%ADD67RotRect,1.200000X1.400000X104.000000*%
%ADD68RotRect,1.622000X0.820000X347.500000*%
%ADD69RoundRect,0.205000X-0.636006X-0.068978X0.547265X-0.331303X0.636006X0.068978X-0.547265X0.331303X0*%
%ADD70RotRect,1.622000X0.803000X347.500000*%
%ADD71RotRect,1.622000X0.820000X171.000000*%
%ADD72RoundRect,0.205000X0.630608X0.107677X-0.566470X0.297275X-0.630608X-0.107677X0.566470X-0.297275X0*%
%ADD73RotRect,1.622000X0.803000X171.000000*%
%ADD74RotRect,1.622000X0.820000X350.500000*%
%ADD75RoundRect,0.205000X-0.631524X-0.102170X0.563854X-0.302207X0.631524X0.102170X-0.563854X0.302207X0*%
%ADD76RotRect,1.622000X0.803000X350.500000*%
%ADD77RotRect,1.622000X0.820000X191.000000*%
%ADD78RoundRect,0.205000X0.555750X0.316864X-0.633982X0.085603X-0.555750X-0.316864X0.633982X-0.085603X0*%
%ADD79RotRect,1.622000X0.803000X191.000000*%
%ADD80RotRect,1.622000X0.820000X194.000000*%
%ADD81RoundRect,0.205000X0.538405X0.345515X-0.637593X0.052306X-0.538405X-0.345515X0.637593X-0.052306X0*%
%ADD82RotRect,1.622000X0.803000X194.000000*%
%ADD83RotRect,1.622000X0.820000X189.000000*%
%ADD84RoundRect,0.205000X0.566470X0.297275X-0.630608X0.107677X-0.566470X-0.297275X0.630608X-0.107677X0*%
%ADD85RotRect,1.622000X0.803000X189.000000*%
%ADD86RoundRect,0.150000X-0.825000X-0.150000X0.825000X-0.150000X0.825000X0.150000X-0.825000X0.150000X0*%
%ADD87R,0.800000X1.900000*%
%ADD88C,1.752600*%
%ADD89RotRect,1.752600X1.752600X186.500000*%
%ADD90RotRect,1.622000X0.820000X11.000000*%
%ADD91RoundRect,0.205000X-0.555750X-0.316864X0.633982X-0.085603X0.555750X0.316864X-0.633982X0.085603X0*%
%ADD92RotRect,1.622000X0.803000X11.000000*%
%ADD93FreePoly0,180.000000*%
%ADD94R,1.000000X1.500000*%
%ADD95FreePoly1,180.000000*%
%ADD96RotRect,1.622000X0.820000X9.000000*%
%ADD97RoundRect,0.205000X-0.566470X-0.297275X0.630608X-0.107677X0.566470X0.297275X-0.630608X0.107677X0*%
%ADD98RotRect,1.622000X0.803000X9.000000*%
%ADD99RoundRect,0.250000X0.350000X0.450000X-0.350000X0.450000X-0.350000X-0.450000X0.350000X-0.450000X0*%
%ADD100RotRect,1.622000X0.820000X351.000000*%
%ADD101RoundRect,0.205000X-0.630608X-0.107677X0.566470X-0.297275X0.630608X0.107677X-0.566470X0.297275X0*%
%ADD102RotRect,1.622000X0.803000X351.000000*%
%ADD103RotRect,1.200000X1.400000X76.000000*%
%ADD104RotRect,1.622000X0.820000X353.000000*%
%ADD105RoundRect,0.205000X-0.626466X-0.129619X0.576500X-0.277325X0.626466X0.129619X-0.576500X0.277325X0*%
%ADD106RotRect,1.622000X0.803000X353.000000*%
G04 APERTURE END LIST*
D10*
X47850155Y-69312435D03*
D11*
X48084093Y-65109618D03*
D12*
X47433285Y-69261250D03*
D13*
X42391151Y-68642154D03*
D12*
X37349017Y-68023058D03*
D10*
X36932147Y-67971873D03*
D14*
X39306405Y-73089382D03*
D15*
X39250988Y-73374740D03*
D16*
X36965317Y-71804483D03*
D17*
X45124125Y-72272281D03*
D15*
X44385039Y-72917012D03*
D16*
X41672122Y-74498176D03*
D10*
X45528545Y-88220439D03*
D11*
X45762483Y-84017622D03*
D12*
X45111675Y-88169254D03*
D13*
X40069541Y-87550158D03*
D12*
X35027407Y-86931062D03*
D10*
X34610537Y-86879877D03*
D14*
X36984795Y-91997386D03*
D15*
X36929378Y-92282744D03*
D16*
X34643707Y-90712487D03*
D17*
X42802515Y-91180285D03*
D15*
X42063429Y-91825016D03*
D16*
X39350512Y-93406180D03*
D10*
X43206934Y-107128445D03*
D11*
X43440872Y-102925628D03*
D12*
X42790064Y-107077260D03*
D13*
X37747930Y-106458164D03*
D12*
X32705796Y-105839068D03*
D10*
X32288926Y-105787883D03*
D14*
X34663184Y-110905392D03*
D15*
X34607767Y-111190750D03*
D16*
X32322096Y-109620493D03*
D17*
X40480904Y-110088291D03*
D15*
X39741818Y-110733022D03*
D16*
X37028901Y-112314186D03*
D10*
X69041707Y-67854600D03*
D11*
X69422179Y-63662507D03*
D12*
X68626878Y-67788897D03*
D13*
X63609421Y-66994210D03*
D12*
X58591964Y-66199523D03*
D10*
X58177135Y-66133820D03*
D18*
X60371348Y-71331072D03*
D15*
X60306006Y-71614323D03*
D16*
X58076528Y-69965253D03*
D19*
X66214040Y-70717506D03*
D15*
X65452904Y-71336050D03*
D16*
X62686458Y-72821571D03*
D10*
X66061631Y-86670062D03*
D11*
X66442103Y-82477969D03*
D12*
X65646802Y-86604359D03*
D13*
X60629345Y-85809672D03*
D12*
X55611888Y-85014985D03*
D10*
X55197059Y-84949282D03*
D18*
X57391272Y-90146534D03*
D15*
X57325930Y-90429785D03*
D16*
X55096452Y-88780715D03*
D19*
X63233964Y-89532968D03*
D15*
X62472828Y-90151512D03*
D16*
X59706382Y-91637033D03*
D10*
X63081553Y-105485526D03*
D11*
X63462025Y-101293433D03*
D12*
X62666724Y-105419823D03*
D13*
X57649267Y-104625136D03*
D12*
X52631810Y-103830449D03*
D10*
X52216981Y-103764746D03*
D18*
X54411194Y-108961998D03*
D15*
X54345852Y-109245249D03*
D16*
X52116374Y-107596179D03*
D19*
X60253886Y-108348432D03*
D15*
X59492750Y-108966976D03*
D16*
X56726304Y-110452497D03*
D10*
X87046047Y-84593789D03*
D11*
X87645395Y-80427354D03*
D12*
X86635225Y-84506466D03*
D13*
X81666235Y-83450275D03*
D12*
X76697245Y-82394084D03*
D10*
X76286423Y-82306761D03*
D20*
X78205625Y-87611727D03*
D15*
X78125549Y-87891169D03*
D16*
X75985433Y-86127677D03*
D21*
X84072422Y-87304783D03*
D15*
X83279957Y-87882645D03*
D16*
X80439556Y-89221346D03*
D10*
X83085329Y-103227503D03*
D11*
X83684677Y-99061068D03*
D12*
X82674507Y-103140180D03*
D13*
X77705517Y-102083989D03*
D12*
X72736527Y-101027798D03*
D10*
X72325705Y-100940475D03*
D20*
X74244907Y-106245441D03*
D15*
X74164831Y-106524883D03*
D16*
X72024715Y-104761391D03*
D21*
X80111704Y-105938497D03*
D15*
X79319239Y-106516359D03*
D16*
X76478838Y-107855060D03*
D10*
X108650296Y-74579222D03*
D11*
X109249644Y-70412787D03*
D12*
X108239474Y-74491899D03*
D13*
X103270484Y-73435708D03*
D12*
X98301494Y-72379517D03*
D10*
X97890672Y-72292194D03*
D20*
X99809874Y-77597160D03*
D15*
X99729798Y-77876602D03*
D16*
X97589682Y-76113110D03*
D21*
X105676671Y-77290216D03*
D15*
X104884206Y-77868078D03*
D16*
X102043805Y-79206779D03*
D10*
X104689579Y-93212935D03*
D11*
X105288927Y-89046500D03*
D12*
X104278757Y-93125612D03*
D13*
X99309767Y-92069421D03*
D12*
X94340777Y-91013230D03*
D10*
X93929955Y-90925907D03*
D20*
X95849157Y-96230873D03*
D15*
X95769081Y-96510315D03*
D16*
X93628965Y-94746823D03*
D21*
X101715954Y-95923929D03*
D15*
X100923489Y-96501791D03*
D16*
X98083088Y-97840492D03*
D10*
X100728861Y-111846646D03*
D11*
X101328209Y-107680211D03*
D12*
X100318039Y-111759323D03*
D13*
X95349049Y-110703132D03*
D12*
X90380059Y-109646941D03*
D10*
X89969237Y-109559618D03*
D20*
X91888439Y-114864584D03*
D15*
X91808363Y-115144026D03*
D16*
X89668247Y-113380534D03*
D21*
X97755236Y-114557640D03*
D15*
X96962771Y-115135502D03*
D16*
X94122370Y-116474203D03*
D10*
X127284008Y-78539940D03*
D11*
X127883356Y-74373505D03*
D12*
X126873186Y-78452617D03*
D13*
X121904196Y-77396426D03*
D12*
X116935206Y-76340235D03*
D10*
X116524384Y-76252912D03*
D20*
X118443586Y-81557878D03*
D15*
X118363510Y-81837320D03*
D16*
X116223394Y-80073828D03*
D21*
X124310383Y-81250934D03*
D15*
X123517918Y-81828796D03*
D16*
X120677517Y-83167497D03*
D10*
X123323291Y-97173653D03*
D11*
X123922639Y-93007218D03*
D12*
X122912469Y-97086330D03*
D13*
X117943479Y-96030139D03*
D12*
X112974489Y-94973948D03*
D10*
X112563667Y-94886625D03*
D20*
X114482869Y-100191591D03*
D15*
X114402793Y-100471033D03*
D16*
X112262677Y-98707541D03*
D21*
X120349666Y-99884647D03*
D15*
X119557201Y-100462509D03*
D16*
X116716800Y-101801210D03*
D10*
X119362574Y-115807365D03*
D11*
X119961922Y-111640930D03*
D12*
X118951752Y-115720042D03*
D13*
X113982762Y-114663851D03*
D12*
X109013772Y-113607660D03*
D10*
X108602950Y-113520337D03*
D20*
X110522152Y-118825303D03*
D15*
X110442076Y-119104745D03*
D16*
X108301960Y-117341253D03*
D21*
X116388949Y-118518359D03*
D15*
X115596484Y-119096221D03*
D16*
X112756083Y-120434922D03*
D10*
X115399566Y-134428349D03*
D11*
X115998914Y-130261914D03*
D12*
X114988744Y-134341026D03*
D13*
X110019754Y-133284835D03*
D12*
X105050764Y-132228644D03*
D10*
X104639942Y-132141321D03*
D20*
X106559144Y-137446287D03*
D15*
X106479068Y-137725729D03*
D16*
X104338952Y-135962237D03*
D21*
X112425941Y-137139343D03*
D15*
X111633476Y-137717205D03*
D16*
X108793075Y-139055906D03*
D10*
X171664957Y-75704338D03*
D11*
X170377203Y-71696834D03*
D12*
X171257433Y-75805945D03*
D13*
X166328331Y-77034908D03*
D12*
X161399229Y-78263871D03*
D10*
X160991705Y-78365478D03*
D22*
X165042216Y-82292227D03*
D15*
X165092743Y-82578492D03*
D16*
X162396156Y-81931641D03*
D23*
X170180703Y-79444514D03*
D15*
X169721758Y-80311286D03*
D16*
X167755670Y-82759653D03*
D10*
X176273570Y-94188473D03*
D11*
X174985816Y-90180969D03*
D12*
X175866046Y-94290080D03*
D13*
X170936944Y-95519043D03*
D12*
X166007842Y-96748006D03*
D10*
X165600318Y-96849613D03*
D22*
X169650829Y-100776362D03*
D15*
X169701356Y-101062627D03*
D16*
X167004769Y-100415776D03*
D23*
X174789316Y-97928649D03*
D15*
X174330371Y-98795421D03*
D16*
X172364283Y-101243788D03*
D10*
X180882179Y-112672606D03*
D11*
X179594425Y-108665102D03*
D12*
X180474655Y-112774213D03*
D13*
X175545553Y-114003176D03*
D12*
X170616451Y-115232139D03*
D10*
X170208927Y-115333746D03*
D22*
X174259438Y-119260495D03*
D15*
X174309965Y-119546760D03*
D16*
X171613378Y-118899909D03*
D23*
X179397925Y-116412782D03*
D15*
X178938980Y-117279554D03*
D16*
X176972892Y-119727921D03*
D10*
X185462861Y-131147597D03*
D11*
X184175107Y-127140093D03*
D12*
X185055337Y-131249204D03*
D13*
X180126235Y-132478167D03*
D12*
X175197133Y-133707130D03*
D10*
X174789609Y-133808737D03*
D22*
X178840120Y-137735486D03*
D15*
X178890647Y-138021751D03*
D16*
X176194060Y-137374900D03*
D23*
X183978607Y-134887773D03*
D15*
X183519662Y-135754545D03*
D16*
X181553574Y-138202912D03*
D10*
X190149090Y-71095728D03*
D11*
X188861336Y-67088224D03*
D12*
X189741566Y-71197335D03*
D13*
X184812464Y-72426298D03*
D12*
X179883362Y-73655261D03*
D10*
X179475838Y-73756868D03*
D22*
X183526349Y-77683617D03*
D15*
X183576876Y-77969882D03*
D16*
X180880289Y-77323031D03*
D23*
X188664836Y-74835904D03*
D15*
X188205891Y-75702676D03*
D16*
X186239803Y-78151043D03*
D10*
X194757702Y-89579861D03*
D11*
X193469948Y-85572357D03*
D12*
X194350178Y-89681468D03*
D13*
X189421076Y-90910431D03*
D12*
X184491974Y-92139394D03*
D10*
X184084450Y-92241001D03*
D22*
X188134961Y-96167750D03*
D15*
X188185488Y-96454015D03*
D16*
X185488901Y-95807164D03*
D23*
X193273448Y-93320037D03*
D15*
X192814503Y-94186809D03*
D16*
X190848415Y-96635176D03*
D10*
X199366314Y-108063994D03*
D11*
X198078560Y-104056490D03*
D12*
X198958790Y-108165601D03*
D13*
X194029688Y-109394564D03*
D12*
X189100586Y-110623527D03*
D10*
X188693062Y-110725134D03*
D22*
X192743573Y-114651883D03*
D15*
X192794100Y-114938148D03*
D16*
X190097513Y-114291297D03*
D23*
X197882060Y-111804170D03*
D15*
X197423115Y-112670942D03*
D16*
X195457027Y-115119309D03*
D10*
X203941683Y-126561411D03*
D11*
X202653929Y-122553907D03*
D12*
X203534159Y-126663018D03*
D13*
X198605057Y-127891981D03*
D12*
X193675955Y-129120944D03*
D10*
X193268431Y-129222551D03*
D22*
X197318942Y-133149300D03*
D15*
X197369469Y-133435565D03*
D16*
X194672882Y-132788714D03*
D23*
X202457429Y-130301587D03*
D15*
X201998484Y-131168359D03*
D16*
X200032396Y-133616726D03*
D10*
X207481071Y-61866081D03*
D11*
X206193317Y-57858577D03*
D12*
X207073547Y-61967688D03*
D13*
X202144445Y-63196651D03*
D12*
X197215343Y-64425614D03*
D10*
X196807819Y-64527221D03*
D22*
X200858330Y-68453970D03*
D15*
X200908857Y-68740235D03*
D16*
X198212270Y-68093384D03*
D23*
X205996817Y-65606257D03*
D15*
X205537872Y-66473029D03*
D16*
X203571784Y-68921396D03*
D10*
X212089683Y-80350215D03*
D11*
X210801929Y-76342711D03*
D12*
X211682159Y-80451822D03*
D13*
X206753057Y-81680785D03*
D12*
X201823955Y-82909748D03*
D10*
X201416431Y-83011355D03*
D22*
X205466942Y-86938104D03*
D15*
X205517469Y-87224369D03*
D16*
X202820882Y-86577518D03*
D23*
X210605429Y-84090391D03*
D15*
X210146484Y-84957163D03*
D16*
X208180396Y-87405530D03*
D10*
X216698294Y-98834349D03*
D11*
X215410540Y-94826845D03*
D12*
X216290770Y-98935956D03*
D13*
X211361668Y-100164919D03*
D12*
X206432566Y-101393882D03*
D10*
X206025042Y-101495489D03*
D22*
X210075553Y-105422238D03*
D15*
X210126080Y-105708503D03*
D16*
X207429493Y-105061652D03*
D23*
X215214040Y-102574525D03*
D15*
X214755095Y-103441297D03*
D16*
X212789007Y-105889664D03*
D10*
X229315722Y-61188050D03*
D11*
X228239468Y-57118642D03*
D12*
X228903438Y-61268189D03*
D13*
X223916772Y-62237499D03*
D12*
X218930106Y-63206809D03*
D10*
X218517822Y-63286948D03*
D24*
X222357274Y-67420303D03*
D15*
X222392749Y-67708820D03*
D16*
X219733710Y-66921727D03*
D25*
X227637755Y-64845420D03*
D15*
X227134076Y-65686985D03*
D16*
X225042545Y-68029099D03*
D10*
X232950632Y-79888045D03*
D11*
X231874378Y-75818637D03*
D12*
X232538348Y-79968184D03*
D13*
X227551682Y-80937494D03*
D12*
X222565016Y-81906804D03*
D10*
X222152732Y-81986943D03*
D24*
X225992184Y-86120298D03*
D15*
X226027659Y-86408815D03*
D16*
X223368620Y-85621722D03*
D25*
X231272665Y-83545415D03*
D15*
X230768986Y-84386980D03*
D16*
X228677455Y-86729094D03*
D10*
X236585546Y-98588043D03*
D11*
X235509292Y-94518635D03*
D12*
X236173262Y-98668182D03*
D13*
X231186596Y-99637492D03*
D12*
X226199930Y-100606802D03*
D10*
X225787646Y-100686941D03*
D24*
X229627098Y-104820296D03*
D15*
X229662573Y-105108813D03*
D16*
X227003534Y-104321720D03*
D25*
X234907579Y-102245413D03*
D15*
X234403900Y-103086978D03*
D16*
X232312369Y-105429092D03*
D10*
X250580275Y-62096044D03*
D11*
X249646697Y-57991555D03*
D12*
X250165446Y-62161747D03*
D13*
X245147989Y-62956434D03*
D12*
X240130532Y-63751121D03*
D10*
X239715703Y-63816824D03*
D26*
X243408563Y-68081655D03*
D15*
X243433948Y-68371234D03*
D16*
X240803998Y-67491822D03*
D27*
X248775690Y-65692627D03*
D15*
X248242948Y-66516101D03*
D16*
X246070952Y-68783795D03*
D10*
X253560353Y-80911505D03*
D11*
X252626775Y-76807016D03*
D12*
X253145524Y-80977208D03*
D13*
X248128067Y-81771895D03*
D12*
X243110610Y-82566582D03*
D10*
X242695781Y-82632285D03*
D26*
X246388641Y-86897116D03*
D15*
X246414026Y-87186695D03*
D16*
X243784076Y-86307283D03*
D27*
X251755768Y-84508088D03*
D15*
X251223026Y-85331562D03*
D16*
X249051030Y-87599256D03*
D10*
X256540430Y-99726970D03*
D11*
X255606852Y-95622481D03*
D12*
X256125601Y-99792673D03*
D13*
X251108144Y-100587360D03*
D12*
X246090687Y-101382047D03*
D10*
X245675858Y-101447750D03*
D26*
X249368718Y-105712581D03*
D15*
X249394103Y-106002160D03*
D16*
X246764153Y-105122748D03*
D27*
X254735845Y-103323553D03*
D15*
X254203103Y-104147027D03*
D16*
X252031107Y-106414721D03*
D28*
X140927270Y-91597222D03*
D29*
X143467270Y-91597222D03*
X146007270Y-91597222D03*
X148547270Y-91597222D03*
D10*
X96757085Y-130477601D03*
D11*
X97356433Y-126311166D03*
D12*
X96346263Y-130390278D03*
D13*
X91377273Y-129334087D03*
D12*
X86408283Y-128277896D03*
D10*
X85997461Y-128190573D03*
D20*
X87916663Y-133495539D03*
D15*
X87836587Y-133774981D03*
D16*
X85696471Y-132011489D03*
D21*
X93783460Y-133188595D03*
D15*
X92990995Y-133766457D03*
D16*
X90150594Y-135105158D03*
D10*
X91006764Y-65960077D03*
D11*
X91606112Y-61793642D03*
D12*
X90595942Y-65872754D03*
D13*
X85626952Y-64816563D03*
D12*
X80657962Y-63760372D03*
D10*
X80247140Y-63673049D03*
D20*
X82166342Y-68978015D03*
D15*
X82086266Y-69257457D03*
D16*
X79946150Y-67493965D03*
D21*
X88033139Y-68671071D03*
D15*
X87240674Y-69248933D03*
D16*
X84400273Y-70587634D03*
D30*
X147227272Y-72537223D03*
D16*
X142227273Y-72537224D03*
X144727273Y-72537224D03*
X142227273Y-87037224D03*
X147227273Y-87037224D03*
D10*
X150227272Y-79787224D03*
D11*
X149947272Y-75587224D03*
D12*
X149807272Y-79787224D03*
D13*
X144727272Y-79787224D03*
D12*
X139647272Y-79787224D03*
D10*
X139227272Y-79787224D03*
D31*
X142207500Y-84577239D03*
D15*
X142187272Y-84867224D03*
D16*
X139727272Y-83587224D03*
D32*
X147882276Y-83057227D03*
D15*
X147227272Y-83787224D03*
D16*
X144727272Y-85687224D03*
D10*
X134072708Y-138382180D03*
D11*
X134672056Y-134215745D03*
D12*
X133661886Y-138294857D03*
D13*
X128692896Y-137238666D03*
D12*
X123723906Y-136182475D03*
D10*
X123313084Y-136095152D03*
D20*
X125232286Y-141400118D03*
D15*
X125152210Y-141679560D03*
D16*
X123012094Y-139916068D03*
D21*
X131099083Y-141093174D03*
D15*
X130306618Y-141671036D03*
D16*
X127466217Y-143009737D03*
D33*
X116899999Y-39919999D03*
D34*
X118050144Y-50014689D03*
D10*
X166920692Y-135809014D03*
D11*
X165632938Y-131801510D03*
D12*
X166513168Y-135910621D03*
D13*
X161584066Y-137139584D03*
D12*
X156654964Y-138368547D03*
D10*
X156247440Y-138470154D03*
D22*
X160297951Y-142396903D03*
D15*
X160348478Y-142683168D03*
D16*
X157651891Y-142036317D03*
D23*
X165436438Y-139549190D03*
D15*
X164977493Y-140415962D03*
D16*
X163011405Y-142864329D03*
D35*
X144949999Y-41799999D03*
D36*
X150712716Y-41143420D03*
D37*
X147387339Y-36691244D03*
D38*
X110850000Y-46550000D03*
D39*
X110623593Y-44562855D03*
D40*
X104926461Y-48916695D03*
D41*
X104638925Y-46393022D03*
X104351389Y-43869350D03*
D42*
X122676326Y-48187535D03*
D43*
X125200000Y-47900000D03*
X135394047Y-46738535D03*
X137818362Y-46462319D03*
X136955754Y-38891301D03*
X134531438Y-39167517D03*
X124337391Y-40328982D03*
X121813719Y-40616518D03*
D44*
X134379999Y-35449999D03*
D45*
X124285309Y-36600144D03*
D46*
X51281151Y-74152153D03*
X51281151Y-70752153D03*
X48959539Y-93060157D03*
X48959539Y-89660157D03*
X47907928Y-104348163D03*
X47907928Y-100948163D03*
D47*
X72301709Y-72811108D03*
X72420367Y-69413180D03*
X69321633Y-91626569D03*
X69440291Y-88228641D03*
X67876715Y-102870998D03*
X67995373Y-99473070D03*
D48*
X94002894Y-71080410D03*
X94299224Y-67693348D03*
X90042177Y-89714121D03*
X90338507Y-86327059D03*
X86081459Y-108347834D03*
X86377789Y-104960772D03*
X111646426Y-79699555D03*
X111942756Y-76312493D03*
X107685708Y-98333266D03*
X107982038Y-94946204D03*
X103724991Y-116966979D03*
X104021321Y-113579917D03*
X99753214Y-135597933D03*
X100049544Y-132210871D03*
X130280138Y-83660273D03*
X130576468Y-80273211D03*
X126319421Y-102293984D03*
X126615751Y-98906922D03*
X122358703Y-120927698D03*
X122655033Y-117540636D03*
X118395695Y-139548681D03*
X118692025Y-136161619D03*
D49*
X158176095Y-83587255D03*
X157761739Y-80212599D03*
X162784707Y-102071389D03*
X162370351Y-98696733D03*
X167393317Y-120555523D03*
X166978961Y-117180867D03*
X190572455Y-134187835D03*
X190158099Y-130813179D03*
X176660228Y-78978643D03*
X176245872Y-75603987D03*
X181268840Y-97462778D03*
X180854484Y-94088122D03*
X185877452Y-115946910D03*
X185463096Y-112572254D03*
X206839758Y-132432264D03*
X206425402Y-129057608D03*
X193992209Y-69748998D03*
X193577853Y-66374342D03*
X198755594Y-89493665D03*
X198341238Y-86119009D03*
X203209432Y-106717265D03*
X202795076Y-103342609D03*
D50*
X215432784Y-68354209D03*
X215195612Y-64962491D03*
X219067695Y-87054206D03*
X218830523Y-83662488D03*
X222702608Y-105754204D03*
X222465436Y-102362486D03*
D51*
X236455700Y-68773332D03*
X236337042Y-65375404D03*
X239435777Y-87588794D03*
X239317119Y-84190866D03*
X241007617Y-98828791D03*
X240888959Y-95430863D03*
D52*
X141577271Y-98947222D03*
X147877271Y-98947222D03*
X141577271Y-95147222D03*
X147877271Y-95147222D03*
D46*
X153109272Y-85297224D03*
X153109272Y-81897224D03*
D53*
X151392399Y-90698308D03*
X151392399Y-92598308D03*
X138057399Y-90698308D03*
X138057399Y-92598308D03*
D54*
X124655717Y-55552254D03*
X126655717Y-55552254D03*
D55*
X101950184Y-67194823D03*
X101638316Y-68662044D03*
D56*
X106703165Y-69738612D03*
D57*
X107013265Y-68279704D03*
D58*
X147316270Y-76473222D03*
X147316270Y-74973222D03*
D59*
X142138271Y-74973223D03*
D60*
X142138270Y-76464722D03*
D55*
X94028749Y-104462249D03*
X93716881Y-105929470D03*
D56*
X98781730Y-107006038D03*
D57*
X99091830Y-105547130D03*
D61*
X94821096Y-125639360D03*
X95132964Y-124172139D03*
D62*
X90068117Y-123095573D03*
D63*
X89758015Y-124554479D03*
D64*
X198221944Y-58166161D03*
X198584827Y-59621605D03*
D65*
X203609019Y-58368934D03*
D66*
X203248192Y-56921737D03*
D61*
X121376160Y-92333042D03*
X121688028Y-90865821D03*
D62*
X116623181Y-89789255D03*
D63*
X116313079Y-91248161D03*
D67*
X170225790Y-139354761D03*
X169403256Y-136055755D03*
D68*
X84679141Y-58008272D03*
X84354482Y-59472716D03*
D69*
X89409744Y-60593441D03*
D70*
X89732562Y-59137295D03*
D61*
X113452434Y-129587739D03*
X113764302Y-128120518D03*
D62*
X108699455Y-127043952D03*
D63*
X108389353Y-128502858D03*
D71*
X43587798Y-82933774D03*
X43822450Y-81452242D03*
D72*
X38708201Y-80642225D03*
D73*
X38474878Y-82115361D03*
D54*
X124655717Y-62029253D03*
X126655717Y-62029253D03*
D55*
X76385217Y-95843104D03*
X76073349Y-97310325D03*
D56*
X81138198Y-98386893D03*
D57*
X81448298Y-96927985D03*
D61*
X102742447Y-88372324D03*
X103054315Y-86905103D03*
D62*
X97989468Y-85828537D03*
D63*
X97679366Y-87287443D03*
D61*
X85098916Y-79753178D03*
X85410784Y-78285957D03*
D62*
X80345937Y-77209391D03*
D63*
X80035835Y-78668297D03*
D74*
X62317965Y-60068513D03*
X62070394Y-61547941D03*
D75*
X67177382Y-62402558D03*
D76*
X67423549Y-60931512D03*
D77*
X229266911Y-76193042D03*
X228980697Y-74720601D03*
D78*
X223897832Y-75708611D03*
D79*
X224182423Y-77172707D03*
D64*
X162405830Y-72004420D03*
X162768713Y-73459864D03*
D65*
X167792905Y-72207193D03*
D66*
X167432078Y-70759996D03*
D80*
X163048637Y-132311866D03*
X162685754Y-130856422D03*
D81*
X157661564Y-132109095D03*
D82*
X158022389Y-133556290D03*
D83*
X250007831Y-77090195D03*
X249773179Y-75608663D03*
D84*
X244658930Y-76418682D03*
D85*
X244892251Y-77891818D03*
D64*
X190107188Y-104364075D03*
X190470071Y-105819519D03*
D65*
X195494263Y-104566848D03*
D66*
X195133436Y-103119651D03*
D64*
X171623053Y-108972688D03*
X171985936Y-110428132D03*
D65*
X177010128Y-109175461D03*
D66*
X176649301Y-107728264D03*
D86*
X142437274Y-121892224D03*
X142437274Y-120622224D03*
X142437274Y-119352224D03*
X142437274Y-118082224D03*
X142437274Y-116812224D03*
X142437274Y-115542224D03*
X142437274Y-114272224D03*
X142437274Y-113002224D03*
X147387274Y-113002224D03*
X147387274Y-114272224D03*
X147387274Y-115542224D03*
X147387274Y-116812224D03*
X147387274Y-118082224D03*
X147387274Y-119352224D03*
X147387274Y-120622224D03*
X147387274Y-121892224D03*
D80*
X190885650Y-86082711D03*
X190522767Y-84627267D03*
D81*
X185498577Y-85879940D03*
D82*
X185859402Y-87327135D03*
D87*
X121525716Y-63783253D03*
X119625716Y-63783253D03*
X120575716Y-60783253D03*
D88*
X160470625Y-62666599D03*
X157946953Y-62954135D03*
X155423280Y-63241671D03*
X152899608Y-63529207D03*
X150375935Y-63816743D03*
X147852263Y-64104279D03*
X145328590Y-64391816D03*
X142804918Y-64679352D03*
X140281245Y-64966888D03*
X137757573Y-65254424D03*
X135233900Y-65541960D03*
X132710228Y-65829496D03*
X130985011Y-50687461D03*
X133508683Y-50399925D03*
X136032356Y-50112389D03*
X138556028Y-49824853D03*
X141079701Y-49537317D03*
X143603373Y-49249781D03*
X146127046Y-48962244D03*
X148650718Y-48674708D03*
X151174391Y-48387172D03*
X153698063Y-48099636D03*
X156221736Y-47812100D03*
D89*
X158745407Y-47524563D03*
D88*
X137470037Y-62730752D03*
X132422692Y-63305824D03*
X137182500Y-60207079D03*
X132135155Y-60782151D03*
X136894964Y-57683407D03*
X131847619Y-58258479D03*
X131560083Y-55734806D03*
X131272547Y-53211134D03*
D80*
X200069631Y-123064262D03*
X199706748Y-121608818D03*
D81*
X194682558Y-122861491D03*
D82*
X195043383Y-124308686D03*
D90*
X227532742Y-94408608D03*
X227818956Y-95881049D03*
D91*
X232901823Y-94893041D03*
D92*
X232617230Y-93428943D03*
D64*
X207439166Y-95134430D03*
X207802049Y-96589874D03*
D65*
X212826241Y-95337203D03*
D66*
X212465414Y-93890006D03*
D55*
X120583896Y-71155541D03*
X120272028Y-72622762D03*
D56*
X125336877Y-73699330D03*
D57*
X125646977Y-72240422D03*
D80*
X181590807Y-127650450D03*
X181227924Y-126195006D03*
D81*
X176203734Y-127447679D03*
D82*
X176564559Y-128894874D03*
D55*
X112662462Y-108422966D03*
X112350594Y-109890187D03*
D56*
X117415443Y-110966755D03*
D57*
X117725543Y-109507847D03*
D93*
X154514717Y-51869253D03*
D94*
X153214716Y-51869252D03*
D95*
X151914717Y-51869253D03*
D96*
X247639004Y-95234145D03*
X247873656Y-96715677D03*
D97*
X252987907Y-95905660D03*
D98*
X252754584Y-94432522D03*
D99*
X126655717Y-64569254D03*
X124655717Y-64569254D03*
D100*
X56004154Y-98461901D03*
X55769502Y-99943433D03*
D101*
X60883753Y-100753452D03*
D102*
X61117074Y-99280314D03*
D90*
X220262919Y-57008613D03*
X220549133Y-58481054D03*
D91*
X225632000Y-57493046D03*
D92*
X225347407Y-56028948D03*
D103*
X136928449Y-142164756D03*
X137750983Y-138865750D03*
D64*
X180889963Y-67395808D03*
X181252846Y-68851252D03*
D65*
X186277038Y-67598581D03*
D66*
X185916211Y-66151384D03*
D104*
X35888726Y-100356098D03*
X35705922Y-101844917D03*
D105*
X40845327Y-102475957D03*
D106*
X41027094Y-100995574D03*
D96*
X241678851Y-57603218D03*
X241913503Y-59084750D03*
D97*
X247027754Y-58274733D03*
D98*
X246794431Y-56801595D03*
D71*
X63863830Y-81937991D03*
X64098482Y-80456459D03*
D72*
X58984233Y-79646442D03*
D73*
X58750910Y-81119578D03*
D99*
X126655717Y-58219254D03*
X124655717Y-58219254D03*
D74*
X41086944Y-61458956D03*
X40839373Y-62938384D03*
D75*
X45946361Y-63793001D03*
D76*
X46192528Y-62321955D03*
D80*
X172401515Y-90691325D03*
X172038632Y-89235881D03*
D81*
X167014442Y-90488554D03*
D82*
X167375267Y-91935749D03*
D87*
X119625716Y-53544253D03*
X121525716Y-53544253D03*
X120575716Y-56544253D03*
D61*
X132125577Y-133541569D03*
X132437445Y-132074348D03*
D62*
X127372598Y-130997782D03*
D63*
X127062496Y-132456688D03*
D80*
X208217628Y-76853067D03*
X207854745Y-75397623D03*
D81*
X202830555Y-76650296D03*
D82*
X203191380Y-78097491D03*
M02*
