G04 #@! TF.GenerationSoftware,KiCad,Pcbnew,(7.0.0-0)*
G04 #@! TF.CreationDate,2023-03-04T10:35:24+00:00*
G04 #@! TF.ProjectId,LeChiffre,4c654368-6966-4667-9265-2e6b69636164,rev?*
G04 #@! TF.SameCoordinates,Original*
G04 #@! TF.FileFunction,Other,User*
%FSLAX46Y46*%
G04 Gerber Fmt 4.6, Leading zero omitted, Abs format (unit mm)*
G04 Created by KiCad (PCBNEW (7.0.0-0)) date 2023-03-04 10:35:24*
%MOMM*%
%LPD*%
G01*
G04 APERTURE LIST*
%ADD10C,0.050000*%
G04 APERTURE END LIST*
D10*
X140477272Y-94047223D02*
X140477272Y-100047223D01*
X140477272Y-100047223D02*
X148977272Y-100047223D01*
X148977272Y-94047223D02*
X140477272Y-94047223D01*
X148977272Y-100047223D02*
X148977272Y-94047223D01*
X123805717Y-54602254D02*
X123805717Y-56502254D01*
X123805717Y-56502254D02*
X127505717Y-56502254D01*
X127505717Y-54602254D02*
X123805717Y-54602254D01*
X127505717Y-56502254D02*
X127505717Y-54602254D01*
X123805717Y-61079253D02*
X123805717Y-62979253D01*
X123805717Y-62979253D02*
X127505717Y-62979253D01*
X127505717Y-61079253D02*
X123805717Y-61079253D01*
X127505717Y-62979253D02*
X127505717Y-61079253D01*
X141212274Y-112247224D02*
X148612274Y-112247224D01*
X141212274Y-122647224D02*
X141212274Y-112247224D01*
X148612274Y-112247224D02*
X148612274Y-122647224D01*
X148612274Y-122647224D02*
X141212274Y-122647224D01*
X118825717Y-64983254D02*
X122325717Y-64983254D01*
X122325717Y-64983254D02*
X122325717Y-59583254D01*
X118825717Y-59583254D02*
X118825717Y-64983254D01*
X122325717Y-59583254D02*
X118825717Y-59583254D01*
X155514717Y-50619253D02*
X155514717Y-53119253D01*
X155514717Y-50619253D02*
X150914717Y-50619253D01*
X150914717Y-53119253D02*
X155514717Y-53119253D01*
X150914717Y-53119253D02*
X150914717Y-50619253D01*
X127505717Y-65519254D02*
X127505717Y-63619254D01*
X127505717Y-63619254D02*
X123805717Y-63619254D01*
X123805717Y-65519254D02*
X127505717Y-65519254D01*
X123805717Y-63619254D02*
X123805717Y-65519254D01*
X127505717Y-59169254D02*
X127505717Y-57269254D01*
X127505717Y-57269254D02*
X123805717Y-57269254D01*
X123805717Y-59169254D02*
X127505717Y-59169254D01*
X123805717Y-57269254D02*
X123805717Y-59169254D01*
X122325717Y-52344254D02*
X118825717Y-52344254D01*
X118825717Y-52344254D02*
X118825717Y-57744254D01*
X122325717Y-57744254D02*
X122325717Y-52344254D01*
X118825717Y-57744254D02*
X122325717Y-57744254D01*
M02*
