G04 #@! TF.GenerationSoftware,KiCad,Pcbnew,(7.0.0-0)*
G04 #@! TF.CreationDate,2023-03-04T10:35:24+00:00*
G04 #@! TF.ProjectId,LeChiffre,4c654368-6966-4667-9265-2e6b69636164,rev?*
G04 #@! TF.SameCoordinates,Original*
G04 #@! TF.FileFunction,Paste,Bot*
G04 #@! TF.FilePolarity,Positive*
%FSLAX46Y46*%
G04 Gerber Fmt 4.6, Leading zero omitted, Abs format (unit mm)*
G04 Created by KiCad (PCBNEW (7.0.0-0)) date 2023-03-04 10:35:24*
%MOMM*%
%LPD*%
G01*
G04 APERTURE LIST*
G04 Aperture macros list*
%AMRoundRect*
0 Rectangle with rounded corners*
0 $1 Rounding radius*
0 $2 $3 $4 $5 $6 $7 $8 $9 X,Y pos of 4 corners*
0 Add a 4 corners polygon primitive as box body*
4,1,4,$2,$3,$4,$5,$6,$7,$8,$9,$2,$3,0*
0 Add four circle primitives for the rounded corners*
1,1,$1+$1,$2,$3*
1,1,$1+$1,$4,$5*
1,1,$1+$1,$6,$7*
1,1,$1+$1,$8,$9*
0 Add four rect primitives between the rounded corners*
20,1,$1+$1,$2,$3,$4,$5,0*
20,1,$1+$1,$4,$5,$6,$7,0*
20,1,$1+$1,$6,$7,$8,$9,0*
20,1,$1+$1,$8,$9,$2,$3,0*%
%AMRotRect*
0 Rectangle, with rotation*
0 The origin of the aperture is its center*
0 $1 length*
0 $2 width*
0 $3 Rotation angle, in degrees counterclockwise*
0 Add horizontal line*
21,1,$1,$2,0,0,$3*%
G04 Aperture macros list end*
%ADD10R,1.400000X1.200000*%
%ADD11RotRect,1.200000X1.400000X88.000000*%
%ADD12RotRect,1.200000X1.400000X85.000000*%
%ADD13RotRect,1.200000X1.400000X97.000000*%
%ADD14RotRect,1.200000X1.400000X94.000000*%
%ADD15RotRect,1.200000X1.400000X92.000000*%
%ADD16R,1.700000X1.000000*%
%ADD17R,1.300000X0.700000*%
%ADD18RoundRect,0.250000X-0.350000X-0.450000X0.350000X-0.450000X0.350000X0.450000X-0.350000X0.450000X0*%
%ADD19RotRect,1.622000X0.820000X348.000000*%
%ADD20RoundRect,0.205000X-0.635379X-0.074526X0.550136X-0.326515X0.635379X0.074526X-0.550136X0.326515X0*%
%ADD21RotRect,1.622000X0.803000X348.000000*%
%ADD22R,1.622000X0.820000*%
%ADD23RoundRect,0.205000X0.606000X0.205000X-0.606000X0.205000X-0.606000X-0.205000X0.606000X-0.205000X0*%
%ADD24R,1.622000X0.803000*%
%ADD25RotRect,1.622000X0.820000X168.000000*%
%ADD26RoundRect,0.205000X0.635379X0.074526X-0.550136X0.326515X-0.635379X-0.074526X0.550136X-0.326515X0*%
%ADD27RotRect,1.622000X0.803000X168.000000*%
%ADD28RotRect,1.622000X0.820000X14.000000*%
%ADD29RoundRect,0.205000X-0.538405X-0.345515X0.637593X-0.052306X0.538405X0.345515X-0.637593X0.052306X0*%
%ADD30RotRect,1.622000X0.803000X14.000000*%
%ADD31RotRect,1.200000X1.400000X104.000000*%
%ADD32RotRect,1.622000X0.820000X347.500000*%
%ADD33RoundRect,0.205000X-0.636006X-0.068978X0.547265X-0.331303X0.636006X0.068978X-0.547265X0.331303X0*%
%ADD34RotRect,1.622000X0.803000X347.500000*%
%ADD35RotRect,1.622000X0.820000X171.000000*%
%ADD36RoundRect,0.205000X0.630608X0.107677X-0.566470X0.297275X-0.630608X-0.107677X0.566470X-0.297275X0*%
%ADD37RotRect,1.622000X0.803000X171.000000*%
%ADD38RotRect,1.622000X0.820000X350.500000*%
%ADD39RoundRect,0.205000X-0.631524X-0.102170X0.563854X-0.302207X0.631524X0.102170X-0.563854X0.302207X0*%
%ADD40RotRect,1.622000X0.803000X350.500000*%
%ADD41RotRect,1.622000X0.820000X191.000000*%
%ADD42RoundRect,0.205000X0.555750X0.316864X-0.633982X0.085603X-0.555750X-0.316864X0.633982X-0.085603X0*%
%ADD43RotRect,1.622000X0.803000X191.000000*%
%ADD44RotRect,1.622000X0.820000X194.000000*%
%ADD45RoundRect,0.205000X0.538405X0.345515X-0.637593X0.052306X-0.538405X-0.345515X0.637593X-0.052306X0*%
%ADD46RotRect,1.622000X0.803000X194.000000*%
%ADD47RotRect,1.622000X0.820000X189.000000*%
%ADD48RoundRect,0.205000X0.566470X0.297275X-0.630608X0.107677X-0.566470X-0.297275X0.630608X-0.107677X0*%
%ADD49RotRect,1.622000X0.803000X189.000000*%
%ADD50RoundRect,0.150000X-0.825000X-0.150000X0.825000X-0.150000X0.825000X0.150000X-0.825000X0.150000X0*%
%ADD51R,0.800000X1.900000*%
%ADD52RotRect,1.622000X0.820000X11.000000*%
%ADD53RoundRect,0.205000X-0.555750X-0.316864X0.633982X-0.085603X0.555750X0.316864X-0.633982X0.085603X0*%
%ADD54RotRect,1.622000X0.803000X11.000000*%
%ADD55RotRect,1.622000X0.820000X9.000000*%
%ADD56RoundRect,0.205000X-0.566470X-0.297275X0.630608X-0.107677X0.566470X0.297275X-0.630608X0.107677X0*%
%ADD57RotRect,1.622000X0.803000X9.000000*%
%ADD58RoundRect,0.250000X0.350000X0.450000X-0.350000X0.450000X-0.350000X-0.450000X0.350000X-0.450000X0*%
%ADD59RotRect,1.622000X0.820000X351.000000*%
%ADD60RoundRect,0.205000X-0.630608X-0.107677X0.566470X-0.297275X0.630608X0.107677X-0.566470X0.297275X0*%
%ADD61RotRect,1.622000X0.803000X351.000000*%
%ADD62RotRect,1.200000X1.400000X76.000000*%
%ADD63RotRect,1.622000X0.820000X353.000000*%
%ADD64RoundRect,0.205000X-0.626466X-0.129619X0.576500X-0.277325X0.626466X0.129619X-0.576500X0.277325X0*%
%ADD65RotRect,1.622000X0.803000X353.000000*%
G04 APERTURE END LIST*
D10*
X51281151Y-74152153D03*
X51281151Y-70752153D03*
X48959539Y-93060157D03*
X48959539Y-89660157D03*
X47907928Y-104348163D03*
X47907928Y-100948163D03*
D11*
X72301709Y-72811108D03*
X72420367Y-69413180D03*
X69321633Y-91626569D03*
X69440291Y-88228641D03*
X67876715Y-102870998D03*
X67995373Y-99473070D03*
D12*
X94002894Y-71080410D03*
X94299224Y-67693348D03*
X90042177Y-89714121D03*
X90338507Y-86327059D03*
X86081459Y-108347834D03*
X86377789Y-104960772D03*
X111646426Y-79699555D03*
X111942756Y-76312493D03*
X107685708Y-98333266D03*
X107982038Y-94946204D03*
X103724991Y-116966979D03*
X104021321Y-113579917D03*
X99753214Y-135597933D03*
X100049544Y-132210871D03*
X130280138Y-83660273D03*
X130576468Y-80273211D03*
X126319421Y-102293984D03*
X126615751Y-98906922D03*
X122358703Y-120927698D03*
X122655033Y-117540636D03*
X118395695Y-139548681D03*
X118692025Y-136161619D03*
D13*
X158176095Y-83587255D03*
X157761739Y-80212599D03*
X162784707Y-102071389D03*
X162370351Y-98696733D03*
X167393317Y-120555523D03*
X166978961Y-117180867D03*
X190572455Y-134187835D03*
X190158099Y-130813179D03*
X176660228Y-78978643D03*
X176245872Y-75603987D03*
X181268840Y-97462778D03*
X180854484Y-94088122D03*
X185877452Y-115946910D03*
X185463096Y-112572254D03*
X206839758Y-132432264D03*
X206425402Y-129057608D03*
X193992209Y-69748998D03*
X193577853Y-66374342D03*
X198755594Y-89493665D03*
X198341238Y-86119009D03*
X203209432Y-106717265D03*
X202795076Y-103342609D03*
D14*
X215432784Y-68354209D03*
X215195612Y-64962491D03*
X219067695Y-87054206D03*
X218830523Y-83662488D03*
X222702608Y-105754204D03*
X222465436Y-102362486D03*
D15*
X236455700Y-68773332D03*
X236337042Y-65375404D03*
X239435777Y-87588794D03*
X239317119Y-84190866D03*
X241007617Y-98828791D03*
X240888959Y-95430863D03*
D16*
X141577271Y-98947222D03*
X147877271Y-98947222D03*
X141577271Y-95147222D03*
X147877271Y-95147222D03*
D10*
X153109272Y-85297224D03*
X153109272Y-81897224D03*
D17*
X151392399Y-90698308D03*
X151392399Y-92598308D03*
X138057399Y-90698308D03*
X138057399Y-92598308D03*
D18*
X124655717Y-55552254D03*
X126655717Y-55552254D03*
D19*
X101950184Y-67194823D03*
X101638316Y-68662044D03*
D20*
X106703165Y-69738612D03*
D21*
X107013265Y-68279704D03*
D22*
X147316270Y-76473222D03*
X147316270Y-74973222D03*
D23*
X142138271Y-74973223D03*
D24*
X142138270Y-76464722D03*
D19*
X94028749Y-104462249D03*
X93716881Y-105929470D03*
D20*
X98781730Y-107006038D03*
D21*
X99091830Y-105547130D03*
D25*
X94821096Y-125639360D03*
X95132964Y-124172139D03*
D26*
X90068117Y-123095573D03*
D27*
X89758015Y-124554479D03*
D28*
X198221944Y-58166161D03*
X198584827Y-59621605D03*
D29*
X203609019Y-58368934D03*
D30*
X203248192Y-56921737D03*
D25*
X121376160Y-92333042D03*
X121688028Y-90865821D03*
D26*
X116623181Y-89789255D03*
D27*
X116313079Y-91248161D03*
D31*
X170225790Y-139354761D03*
X169403256Y-136055755D03*
D32*
X84679141Y-58008272D03*
X84354482Y-59472716D03*
D33*
X89409744Y-60593441D03*
D34*
X89732562Y-59137295D03*
D25*
X113452434Y-129587739D03*
X113764302Y-128120518D03*
D26*
X108699455Y-127043952D03*
D27*
X108389353Y-128502858D03*
D35*
X43587798Y-82933774D03*
X43822450Y-81452242D03*
D36*
X38708201Y-80642225D03*
D37*
X38474878Y-82115361D03*
D18*
X124655717Y-62029253D03*
X126655717Y-62029253D03*
D19*
X76385217Y-95843104D03*
X76073349Y-97310325D03*
D20*
X81138198Y-98386893D03*
D21*
X81448298Y-96927985D03*
D25*
X102742447Y-88372324D03*
X103054315Y-86905103D03*
D26*
X97989468Y-85828537D03*
D27*
X97679366Y-87287443D03*
D25*
X85098916Y-79753178D03*
X85410784Y-78285957D03*
D26*
X80345937Y-77209391D03*
D27*
X80035835Y-78668297D03*
D38*
X62317965Y-60068513D03*
X62070394Y-61547941D03*
D39*
X67177382Y-62402558D03*
D40*
X67423549Y-60931512D03*
D41*
X229266911Y-76193042D03*
X228980697Y-74720601D03*
D42*
X223897832Y-75708611D03*
D43*
X224182423Y-77172707D03*
D28*
X162405830Y-72004420D03*
X162768713Y-73459864D03*
D29*
X167792905Y-72207193D03*
D30*
X167432078Y-70759996D03*
D44*
X163048637Y-132311866D03*
X162685754Y-130856422D03*
D45*
X157661564Y-132109095D03*
D46*
X158022389Y-133556290D03*
D47*
X250007831Y-77090195D03*
X249773179Y-75608663D03*
D48*
X244658930Y-76418682D03*
D49*
X244892251Y-77891818D03*
D28*
X190107188Y-104364075D03*
X190470071Y-105819519D03*
D29*
X195494263Y-104566848D03*
D30*
X195133436Y-103119651D03*
D28*
X171623053Y-108972688D03*
X171985936Y-110428132D03*
D29*
X177010128Y-109175461D03*
D30*
X176649301Y-107728264D03*
D50*
X142437274Y-121892224D03*
X142437274Y-120622224D03*
X142437274Y-119352224D03*
X142437274Y-118082224D03*
X142437274Y-116812224D03*
X142437274Y-115542224D03*
X142437274Y-114272224D03*
X142437274Y-113002224D03*
X147387274Y-113002224D03*
X147387274Y-114272224D03*
X147387274Y-115542224D03*
X147387274Y-116812224D03*
X147387274Y-118082224D03*
X147387274Y-119352224D03*
X147387274Y-120622224D03*
X147387274Y-121892224D03*
D44*
X190885650Y-86082711D03*
X190522767Y-84627267D03*
D45*
X185498577Y-85879940D03*
D46*
X185859402Y-87327135D03*
D51*
X121525716Y-63783253D03*
X119625716Y-63783253D03*
X120575716Y-60783253D03*
D44*
X200069631Y-123064262D03*
X199706748Y-121608818D03*
D45*
X194682558Y-122861491D03*
D46*
X195043383Y-124308686D03*
D52*
X227532742Y-94408608D03*
X227818956Y-95881049D03*
D53*
X232901823Y-94893041D03*
D54*
X232617230Y-93428943D03*
D28*
X207439166Y-95134430D03*
X207802049Y-96589874D03*
D29*
X212826241Y-95337203D03*
D30*
X212465414Y-93890006D03*
D19*
X120583896Y-71155541D03*
X120272028Y-72622762D03*
D20*
X125336877Y-73699330D03*
D21*
X125646977Y-72240422D03*
D44*
X181590807Y-127650450D03*
X181227924Y-126195006D03*
D45*
X176203734Y-127447679D03*
D46*
X176564559Y-128894874D03*
D19*
X112662462Y-108422966D03*
X112350594Y-109890187D03*
D20*
X117415443Y-110966755D03*
D21*
X117725543Y-109507847D03*
D55*
X247639004Y-95234145D03*
X247873656Y-96715677D03*
D56*
X252987907Y-95905660D03*
D57*
X252754584Y-94432522D03*
D58*
X126655717Y-64569254D03*
X124655717Y-64569254D03*
D59*
X56004154Y-98461901D03*
X55769502Y-99943433D03*
D60*
X60883753Y-100753452D03*
D61*
X61117074Y-99280314D03*
D52*
X220262919Y-57008613D03*
X220549133Y-58481054D03*
D53*
X225632000Y-57493046D03*
D54*
X225347407Y-56028948D03*
D62*
X136928449Y-142164756D03*
X137750983Y-138865750D03*
D28*
X180889963Y-67395808D03*
X181252846Y-68851252D03*
D29*
X186277038Y-67598581D03*
D30*
X185916211Y-66151384D03*
D63*
X35888726Y-100356098D03*
X35705922Y-101844917D03*
D64*
X40845327Y-102475957D03*
D65*
X41027094Y-100995574D03*
D55*
X241678851Y-57603218D03*
X241913503Y-59084750D03*
D56*
X247027754Y-58274733D03*
D57*
X246794431Y-56801595D03*
D35*
X63863830Y-81937991D03*
X64098482Y-80456459D03*
D36*
X58984233Y-79646442D03*
D37*
X58750910Y-81119578D03*
D58*
X126655717Y-58219254D03*
X124655717Y-58219254D03*
D38*
X41086944Y-61458956D03*
X40839373Y-62938384D03*
D39*
X45946361Y-63793001D03*
D40*
X46192528Y-62321955D03*
D44*
X172401515Y-90691325D03*
X172038632Y-89235881D03*
D45*
X167014442Y-90488554D03*
D46*
X167375267Y-91935749D03*
D51*
X119625716Y-53544253D03*
X121525716Y-53544253D03*
X120575716Y-56544253D03*
D25*
X132125577Y-133541569D03*
X132437445Y-132074348D03*
D26*
X127372598Y-130997782D03*
D27*
X127062496Y-132456688D03*
D44*
X208217628Y-76853067D03*
X207854745Y-75397623D03*
D45*
X202830555Y-76650296D03*
D46*
X203191380Y-78097491D03*
M02*
