M48
; DRILL file {KiCad (7.0.0-0)} date Saturday, 04 March 2023 at 10:35:27
; FORMAT={-:-/ absolute / metric / decimal}
; #@! TF.CreationDate,2023-03-04T10:35:27+00:00
; #@! TF.GenerationSoftware,Kicad,Pcbnew,(7.0.0-0)
; #@! TF.FileFunction,NonPlated,1,2,NPTH
FMAT,2
METRIC
; #@! TA.AperFunction,NonPlated,NPTH,ComponentDrill
T1C1.200
; #@! TA.AperFunction,NonPlated,NPTH,ComponentDrill
T2C1.700
; #@! TA.AperFunction,NonPlated,NPTH,ComponentDrill
T3C1.750
; #@! TA.AperFunction,NonPlated,NPTH,ComponentDrill
T4C3.988
%
G90
G05
T1
X43.441Y-102.926
X45.762Y-84.018
X48.084Y-65.11
X63.462Y-101.293
X66.442Y-82.478
X69.422Y-63.663
X83.685Y-99.061
X87.645Y-80.427
X91.606Y-61.794
X97.356Y-126.311
X101.328Y-107.68
X105.289Y-89.046
X109.25Y-70.413
X115.999Y-130.262
X119.962Y-111.641
X123.923Y-93.007
X127.883Y-74.374
X134.672Y-134.216
X149.947Y-75.587
X165.633Y-131.802
X170.377Y-71.697
X174.986Y-90.181
X179.594Y-108.665
X184.175Y-127.14
X188.861Y-67.088
X193.47Y-85.572
X198.079Y-104.056
X202.654Y-122.554
X206.193Y-57.859
X210.802Y-76.343
X215.411Y-94.827
X228.239Y-57.119
X231.874Y-75.819
X235.509Y-94.519
X249.647Y-57.992
X252.627Y-76.807
X255.607Y-95.622
T2
X32.289Y-105.788
X34.611Y-86.88
X36.932Y-67.972
X43.207Y-107.128
X45.529Y-88.22
X47.85Y-69.312
X52.217Y-103.765
X55.197Y-84.949
X58.177Y-66.134
X63.082Y-105.486
X66.062Y-86.67
X69.042Y-67.855
X72.326Y-100.94
X76.286Y-82.307
X80.247Y-63.673
X83.085Y-103.228
X85.997Y-128.191
X87.046Y-84.594
X89.969Y-109.56
X91.007Y-65.96
X93.93Y-90.926
X96.757Y-130.478
X97.891Y-72.292
X100.729Y-111.847
X104.64Y-132.141
X104.69Y-93.213
X108.603Y-113.52
X108.65Y-74.579
X112.564Y-94.887
X115.4Y-134.428
X116.524Y-76.253
X119.363Y-115.807
X123.313Y-136.095
X123.323Y-97.174
X127.284Y-78.54
X134.073Y-138.382
X139.227Y-79.787
X150.227Y-79.787
X156.247Y-138.47
X160.992Y-78.365
X165.6Y-96.85
X166.921Y-135.809
X170.209Y-115.334
X171.665Y-75.704
X174.79Y-133.809
X176.274Y-94.188
X179.476Y-73.757
X180.882Y-112.673
X184.084Y-92.241
X185.463Y-131.148
X188.693Y-110.725
X190.149Y-71.096
X193.268Y-129.223
X194.758Y-89.58
X196.808Y-64.527
X199.366Y-108.064
X201.416Y-83.011
X203.942Y-126.561
X206.025Y-101.495
X207.481Y-61.866
X212.09Y-80.35
X216.698Y-98.834
X218.518Y-63.287
X222.153Y-81.987
X225.788Y-100.687
X229.316Y-61.188
X232.951Y-79.888
X236.586Y-98.588
X239.716Y-63.817
X242.696Y-82.632
X245.676Y-101.448
X250.58Y-62.096
X253.56Y-80.912
X256.54Y-99.727
T3
X32.706Y-105.839
X35.027Y-86.931
X37.349Y-68.023
X42.79Y-107.077
X45.112Y-88.169
X47.433Y-69.261
X52.632Y-103.83
X55.612Y-85.015
X58.592Y-66.2
X62.667Y-105.42
X65.647Y-86.604
X68.627Y-67.789
X72.737Y-101.028
X76.697Y-82.394
X80.658Y-63.76
X82.675Y-103.14
X86.408Y-128.278
X86.635Y-84.506
X90.38Y-109.647
X90.596Y-65.873
X94.341Y-91.013
X96.346Y-130.39
X98.301Y-72.38
X100.318Y-111.759
X104.279Y-93.126
X105.051Y-132.229
X108.239Y-74.492
X109.014Y-113.608
X112.974Y-94.974
X114.989Y-134.341
X116.935Y-76.34
X118.952Y-115.72
X122.912Y-97.086
X123.724Y-136.182
X126.873Y-78.453
X133.662Y-138.295
X139.647Y-79.787
X149.807Y-79.787
X156.655Y-138.369
X161.399Y-78.264
X166.008Y-96.748
X166.513Y-135.911
X170.616Y-115.232
X171.257Y-75.806
X175.197Y-133.707
X175.866Y-94.29
X179.883Y-73.655
X180.475Y-112.774
X184.492Y-92.139
X185.055Y-131.249
X189.101Y-110.624
X189.742Y-71.197
X193.676Y-129.121
X194.35Y-89.681
X197.215Y-64.426
X198.959Y-108.166
X201.824Y-82.91
X203.534Y-126.663
X206.433Y-101.394
X207.074Y-61.968
X211.682Y-80.452
X216.291Y-98.936
X218.93Y-63.207
X222.565Y-81.907
X226.2Y-100.607
X228.903Y-61.268
X232.538Y-79.968
X236.173Y-98.668
X240.131Y-63.751
X243.111Y-82.567
X246.091Y-101.382
X250.165Y-62.162
X253.146Y-80.977
X256.126Y-99.793
T4
X37.748Y-106.458
X40.07Y-87.55
X42.391Y-68.642
X57.649Y-104.625
X60.629Y-85.81
X63.609Y-66.994
X77.706Y-102.084
X81.666Y-83.45
X85.627Y-64.817
X91.377Y-129.334
X95.349Y-110.703
X99.31Y-92.069
X103.27Y-73.436
X110.02Y-133.285
X113.983Y-114.664
X117.943Y-96.03
X121.904Y-77.396
X128.693Y-137.239
X144.727Y-79.787
X161.584Y-137.14
X166.328Y-77.035
X170.937Y-95.519
X175.546Y-114.003
X180.126Y-132.478
X184.812Y-72.426
X189.421Y-90.91
X194.03Y-109.395
X198.605Y-127.892
X202.144Y-63.197
X206.753Y-81.681
X211.362Y-100.165
X223.917Y-62.237
X227.552Y-80.937
X231.187Y-99.637
X245.148Y-62.956
X248.128Y-81.772
X251.108Y-100.587
T0
M30
