G04 #@! TF.GenerationSoftware,KiCad,Pcbnew,(7.0.0-0)*
G04 #@! TF.CreationDate,2023-03-04T10:35:24+00:00*
G04 #@! TF.ProjectId,LeChiffre,4c654368-6966-4667-9265-2e6b69636164,rev?*
G04 #@! TF.SameCoordinates,Original*
G04 #@! TF.FileFunction,Legend,Top*
G04 #@! TF.FilePolarity,Positive*
%FSLAX46Y46*%
G04 Gerber Fmt 4.6, Leading zero omitted, Abs format (unit mm)*
G04 Created by KiCad (PCBNEW (7.0.0-0)) date 2023-03-04 10:35:24*
%MOMM*%
%LPD*%
G01*
G04 APERTURE LIST*
G04 Aperture macros list*
%AMRoundRect*
0 Rectangle with rounded corners*
0 $1 Rounding radius*
0 $2 $3 $4 $5 $6 $7 $8 $9 X,Y pos of 4 corners*
0 Add a 4 corners polygon primitive as box body*
4,1,4,$2,$3,$4,$5,$6,$7,$8,$9,$2,$3,0*
0 Add four circle primitives for the rounded corners*
1,1,$1+$1,$2,$3*
1,1,$1+$1,$4,$5*
1,1,$1+$1,$6,$7*
1,1,$1+$1,$8,$9*
0 Add four rect primitives between the rounded corners*
20,1,$1+$1,$2,$3,$4,$5,0*
20,1,$1+$1,$4,$5,$6,$7,0*
20,1,$1+$1,$6,$7,$8,$9,0*
20,1,$1+$1,$8,$9,$2,$3,0*%
%AMHorizOval*
0 Thick line with rounded ends*
0 $1 width*
0 $2 $3 position (X,Y) of the first rounded end (center of the circle)*
0 $4 $5 position (X,Y) of the second rounded end (center of the circle)*
0 Add line between two ends*
20,1,$1,$2,$3,$4,$5,0*
0 Add two circle primitives to create the rounded ends*
1,1,$1,$2,$3*
1,1,$1,$4,$5*%
%AMRotRect*
0 Rectangle, with rotation*
0 The origin of the aperture is its center*
0 $1 length*
0 $2 width*
0 $3 Rotation angle, in degrees counterclockwise*
0 Add horizontal line*
21,1,$1,$2,0,0,$3*%
G04 Aperture macros list end*
%ADD10C,0.150000*%
%ADD11C,0.120000*%
%ADD12C,0.100000*%
%ADD13C,1.700000*%
%ADD14C,1.200000*%
%ADD15C,1.750000*%
%ADD16C,3.987800*%
%ADD17HorizOval,2.250000X-0.054968X-0.285445X0.054968X0.285445X0*%
%ADD18C,2.250000*%
%ADD19C,2.000000*%
%ADD20HorizOval,2.250000X-0.739078X-0.644739X0.739078X0.644739X0*%
%ADD21HorizOval,2.250000X-0.064896X-0.283352X0.064896X0.283352X0*%
%ADD22HorizOval,2.250000X-0.761129X-0.618553X0.761129X0.618553X0*%
%ADD23HorizOval,2.250000X-0.079637X-0.279568X0.079637X0.279568X0*%
%ADD24HorizOval,2.250000X-0.792459X-0.577871X0.792459X0.577871X0*%
%ADD25HorizOval,2.250000X0.050977X-0.286184X-0.050977X0.286184X0*%
%ADD26HorizOval,2.250000X-0.458935X-0.866778X0.458935X0.866778X0*%
%ADD27HorizOval,2.250000X0.035930X-0.288460X-0.035930X0.288460X0*%
%ADD28HorizOval,2.250000X-0.503670X-0.841571X0.503670X0.841571X0*%
%ADD29HorizOval,2.250000X0.025841X-0.289538X-0.025841X0.289538X0*%
%ADD30HorizOval,2.250000X-0.532734X-0.823481X0.532734X0.823481X0*%
%ADD31R,1.700000X1.700000*%
%ADD32O,1.700000X1.700000*%
%ADD33R,2.000000X2.000000*%
%ADD34HorizOval,2.250000X-0.019771X-0.290016X0.019771X0.290016X0*%
%ADD35HorizOval,2.250000X-0.654995X-0.730004X0.654995X0.730004X0*%
%ADD36RotRect,1.622000X0.820000X104.000000*%
%ADD37RoundRect,0.205000X0.345515X-0.538405X0.052306X0.637593X-0.345515X0.538405X-0.052306X-0.637593X0*%
%ADD38RotRect,1.622000X0.803000X104.000000*%
%ADD39R,1.622000X0.820000*%
%ADD40RoundRect,0.205000X-0.606000X-0.205000X0.606000X-0.205000X0.606000X0.205000X-0.606000X0.205000X0*%
%ADD41R,1.622000X0.803000*%
%ADD42RotRect,2.200000X2.200000X276.500000*%
%ADD43HorizOval,2.200000X0.000000X0.000000X0.000000X0.000000X0*%
%ADD44RotRect,1.622000X0.820000X173.000000*%
%ADD45RoundRect,0.205000X0.626466X0.129619X-0.576500X0.277325X-0.626466X-0.129619X0.576500X-0.277325X0*%
%ADD46RotRect,1.622000X0.803000X173.000000*%
%ADD47RotRect,1.622000X0.820000X9.000000*%
%ADD48RoundRect,0.205000X-0.566470X-0.297275X0.630608X-0.107677X0.566470X0.297275X-0.630608X0.107677X0*%
%ADD49RotRect,1.622000X0.803000X9.000000*%
%ADD50RotRect,4.400000X1.800000X96.500000*%
%ADD51HorizOval,1.800000X-0.124524X1.092929X0.124524X-1.092929X0*%
%ADD52HorizOval,1.800000X-1.092929X-0.124524X1.092929X0.124524X0*%
%ADD53RotRect,1.622000X0.820000X258.000000*%
%ADD54RoundRect,0.205000X-0.074526X0.635379X-0.326515X-0.550136X0.074526X-0.635379X0.326515X0.550136X0*%
%ADD55RotRect,1.622000X0.803000X258.000000*%
%ADD56R,0.820000X1.622000*%
%ADD57RoundRect,0.205000X-0.205000X0.606000X-0.205000X-0.606000X0.205000X-0.606000X0.205000X0.606000X0*%
%ADD58R,0.803000X1.622000*%
%ADD59RoundRect,0.250000X0.660604X-0.276998X0.581361X0.418502X-0.660604X0.276998X-0.581361X-0.418502X0*%
%ADD60HorizOval,1.200000X0.273232X0.031131X-0.273232X-0.031131X0*%
%ADD61RotRect,1.905000X2.000000X96.500000*%
%ADD62HorizOval,1.905000X0.047195X0.005377X-0.047195X-0.005377X0*%
%ADD63RotRect,1.622000X0.820000X281.000000*%
%ADD64RoundRect,0.205000X-0.316864X0.555750X-0.085603X-0.633982X0.316864X-0.555750X0.085603X0.633982X0*%
%ADD65RotRect,1.622000X0.803000X281.000000*%
%ADD66RotRect,1.622000X0.820000X284.000000*%
%ADD67RoundRect,0.205000X-0.345515X0.538405X-0.052306X-0.637593X0.345515X-0.538405X0.052306X0.637593X0*%
%ADD68RotRect,1.622000X0.803000X284.000000*%
%ADD69RotRect,1.622000X0.820000X261.000000*%
%ADD70RoundRect,0.205000X-0.107677X0.630608X-0.297275X-0.566470X0.107677X-0.630608X0.297275X0.566470X0*%
%ADD71RotRect,1.622000X0.803000X261.000000*%
%ADD72RotRect,1.400000X1.400000X96.500000*%
%ADD73C,1.400000*%
%ADD74RotRect,1.622000X0.820000X78.000000*%
%ADD75RoundRect,0.205000X0.074526X-0.635379X0.326515X0.550136X-0.074526X0.635379X-0.326515X-0.550136X0*%
%ADD76RotRect,1.622000X0.803000X78.000000*%
%ADD77RotRect,2.200000X2.200000X186.500000*%
%ADD78HorizOval,2.200000X0.000000X0.000000X0.000000X0.000000X0*%
%ADD79C,1.752600*%
%ADD80RotRect,1.752600X1.752600X186.500000*%
G04 APERTURE END LIST*
D10*
X137524651Y-91930556D02*
X138238937Y-91930556D01*
X138238937Y-91930556D02*
X138381794Y-91978175D01*
X138381794Y-91978175D02*
X138477032Y-92073413D01*
X138477032Y-92073413D02*
X138524651Y-92216270D01*
X138524651Y-92216270D02*
X138524651Y-92311508D01*
X137619890Y-91501984D02*
X137572271Y-91454365D01*
X137572271Y-91454365D02*
X137524651Y-91359127D01*
X137524651Y-91359127D02*
X137524651Y-91121032D01*
X137524651Y-91121032D02*
X137572271Y-91025794D01*
X137572271Y-91025794D02*
X137619890Y-90978175D01*
X137619890Y-90978175D02*
X137715128Y-90930556D01*
X137715128Y-90930556D02*
X137810366Y-90930556D01*
X137810366Y-90930556D02*
X137953223Y-90978175D01*
X137953223Y-90978175D02*
X138524651Y-91549603D01*
X138524651Y-91549603D02*
X138524651Y-90930556D01*
X152247034Y-77146747D02*
X152294653Y-77003890D01*
X152294653Y-77003890D02*
X152294653Y-76765795D01*
X152294653Y-76765795D02*
X152247034Y-76670557D01*
X152247034Y-76670557D02*
X152199415Y-76622938D01*
X152199415Y-76622938D02*
X152104177Y-76575319D01*
X152104177Y-76575319D02*
X152008939Y-76575319D01*
X152008939Y-76575319D02*
X151913701Y-76622938D01*
X151913701Y-76622938D02*
X151866082Y-76670557D01*
X151866082Y-76670557D02*
X151818463Y-76765795D01*
X151818463Y-76765795D02*
X151770844Y-76956271D01*
X151770844Y-76956271D02*
X151723225Y-77051509D01*
X151723225Y-77051509D02*
X151675606Y-77099128D01*
X151675606Y-77099128D02*
X151580368Y-77146747D01*
X151580368Y-77146747D02*
X151485130Y-77146747D01*
X151485130Y-77146747D02*
X151389892Y-77099128D01*
X151389892Y-77099128D02*
X151342273Y-77051509D01*
X151342273Y-77051509D02*
X151294653Y-76956271D01*
X151294653Y-76956271D02*
X151294653Y-76718176D01*
X151294653Y-76718176D02*
X151342273Y-76575319D01*
X151294653Y-76241985D02*
X152294653Y-76003890D01*
X152294653Y-76003890D02*
X151580368Y-75813414D01*
X151580368Y-75813414D02*
X152294653Y-75622938D01*
X152294653Y-75622938D02*
X151294653Y-75384843D01*
X151294653Y-75099128D02*
X151294653Y-74480081D01*
X151294653Y-74480081D02*
X151675606Y-74813414D01*
X151675606Y-74813414D02*
X151675606Y-74670557D01*
X151675606Y-74670557D02*
X151723225Y-74575319D01*
X151723225Y-74575319D02*
X151770844Y-74527700D01*
X151770844Y-74527700D02*
X151866082Y-74480081D01*
X151866082Y-74480081D02*
X152104177Y-74480081D01*
X152104177Y-74480081D02*
X152199415Y-74527700D01*
X152199415Y-74527700D02*
X152247034Y-74575319D01*
X152247034Y-74575319D02*
X152294653Y-74670557D01*
X152294653Y-74670557D02*
X152294653Y-74956271D01*
X152294653Y-74956271D02*
X152247034Y-75051509D01*
X152247034Y-75051509D02*
X152199415Y-75099128D01*
X151294653Y-73622938D02*
X151294653Y-73813414D01*
X151294653Y-73813414D02*
X151342273Y-73908652D01*
X151342273Y-73908652D02*
X151389892Y-73956271D01*
X151389892Y-73956271D02*
X151532749Y-74051509D01*
X151532749Y-74051509D02*
X151723225Y-74099128D01*
X151723225Y-74099128D02*
X152104177Y-74099128D01*
X152104177Y-74099128D02*
X152199415Y-74051509D01*
X152199415Y-74051509D02*
X152247034Y-74003890D01*
X152247034Y-74003890D02*
X152294653Y-73908652D01*
X152294653Y-73908652D02*
X152294653Y-73718176D01*
X152294653Y-73718176D02*
X152247034Y-73622938D01*
X152247034Y-73622938D02*
X152199415Y-73575319D01*
X152199415Y-73575319D02*
X152104177Y-73527700D01*
X152104177Y-73527700D02*
X151866082Y-73527700D01*
X151866082Y-73527700D02*
X151770844Y-73575319D01*
X151770844Y-73575319D02*
X151723225Y-73622938D01*
X151723225Y-73622938D02*
X151675606Y-73718176D01*
X151675606Y-73718176D02*
X151675606Y-73908652D01*
X151675606Y-73908652D02*
X151723225Y-74003890D01*
X151723225Y-74003890D02*
X151770844Y-74051509D01*
X151770844Y-74051509D02*
X151866082Y-74099128D01*
X202808791Y-121668611D02*
X202129584Y-121837956D01*
X202129584Y-121837956D02*
X202089264Y-121676240D01*
X202089264Y-121676240D02*
X202097415Y-121571147D01*
X202097415Y-121571147D02*
X202145973Y-121490332D01*
X202145973Y-121490332D02*
X202202595Y-121441861D01*
X202202595Y-121441861D02*
X202323904Y-121377261D01*
X202323904Y-121377261D02*
X202420933Y-121353069D01*
X202420933Y-121353069D02*
X202558370Y-121353156D01*
X202558370Y-121353156D02*
X202631121Y-121369371D01*
X202631121Y-121369371D02*
X202711935Y-121417929D01*
X202711935Y-121417929D02*
X202768471Y-121506895D01*
X202768471Y-121506895D02*
X202808791Y-121668611D01*
X201887662Y-120867661D02*
X201919918Y-120997033D01*
X201919918Y-120997033D02*
X201968390Y-121053656D01*
X201968390Y-121053656D02*
X202008797Y-121077935D01*
X202008797Y-121077935D02*
X202121955Y-121118429D01*
X202121955Y-121118429D02*
X202259391Y-121118516D01*
X202259391Y-121118516D02*
X202518137Y-121054003D01*
X202518137Y-121054003D02*
X202574759Y-121005532D01*
X202574759Y-121005532D02*
X202599038Y-120965125D01*
X202599038Y-120965125D02*
X202615253Y-120892374D01*
X202615253Y-120892374D02*
X202582997Y-120763002D01*
X202582997Y-120763002D02*
X202534526Y-120706379D01*
X202534526Y-120706379D02*
X202494119Y-120682100D01*
X202494119Y-120682100D02*
X202421368Y-120665885D01*
X202421368Y-120665885D02*
X202259652Y-120706205D01*
X202259652Y-120706205D02*
X202203030Y-120754677D01*
X202203030Y-120754677D02*
X202178751Y-120795084D01*
X202178751Y-120795084D02*
X202162536Y-120867834D01*
X202162536Y-120867834D02*
X202194792Y-120997207D01*
X202194792Y-120997207D02*
X202243263Y-121053830D01*
X202243263Y-121053830D02*
X202283670Y-121078109D01*
X202283670Y-121078109D02*
X202356421Y-121094324D01*
X201815085Y-120576572D02*
X201702188Y-120123767D01*
X201702188Y-120123767D02*
X202453972Y-120245510D01*
X143974449Y-105573093D02*
X143974449Y-104873093D01*
X143974449Y-104873093D02*
X144141116Y-104873093D01*
X144141116Y-104873093D02*
X144241116Y-104906427D01*
X144241116Y-104906427D02*
X144307783Y-104973093D01*
X144307783Y-104973093D02*
X144341116Y-105039760D01*
X144341116Y-105039760D02*
X144374449Y-105173093D01*
X144374449Y-105173093D02*
X144374449Y-105273093D01*
X144374449Y-105273093D02*
X144341116Y-105406427D01*
X144341116Y-105406427D02*
X144307783Y-105473093D01*
X144307783Y-105473093D02*
X144241116Y-105539760D01*
X144241116Y-105539760D02*
X144141116Y-105573093D01*
X144141116Y-105573093D02*
X143974449Y-105573093D01*
X144607783Y-104873093D02*
X145074449Y-104873093D01*
X145074449Y-104873093D02*
X144774449Y-105573093D01*
X145441116Y-105173093D02*
X145374450Y-105139760D01*
X145374450Y-105139760D02*
X145341116Y-105106427D01*
X145341116Y-105106427D02*
X145307783Y-105039760D01*
X145307783Y-105039760D02*
X145307783Y-105006427D01*
X145307783Y-105006427D02*
X145341116Y-104939760D01*
X145341116Y-104939760D02*
X145374450Y-104906427D01*
X145374450Y-104906427D02*
X145441116Y-104873093D01*
X145441116Y-104873093D02*
X145574450Y-104873093D01*
X145574450Y-104873093D02*
X145641116Y-104906427D01*
X145641116Y-104906427D02*
X145674450Y-104939760D01*
X145674450Y-104939760D02*
X145707783Y-105006427D01*
X145707783Y-105006427D02*
X145707783Y-105039760D01*
X145707783Y-105039760D02*
X145674450Y-105106427D01*
X145674450Y-105106427D02*
X145641116Y-105139760D01*
X145641116Y-105139760D02*
X145574450Y-105173093D01*
X145574450Y-105173093D02*
X145441116Y-105173093D01*
X145441116Y-105173093D02*
X145374450Y-105206427D01*
X145374450Y-105206427D02*
X145341116Y-105239760D01*
X145341116Y-105239760D02*
X145307783Y-105306427D01*
X145307783Y-105306427D02*
X145307783Y-105439760D01*
X145307783Y-105439760D02*
X145341116Y-105506427D01*
X145341116Y-105506427D02*
X145374450Y-105539760D01*
X145374450Y-105539760D02*
X145441116Y-105573093D01*
X145441116Y-105573093D02*
X145574450Y-105573093D01*
X145574450Y-105573093D02*
X145641116Y-105539760D01*
X145641116Y-105539760D02*
X145674450Y-105506427D01*
X145674450Y-105506427D02*
X145707783Y-105439760D01*
X145707783Y-105439760D02*
X145707783Y-105306427D01*
X145707783Y-105306427D02*
X145674450Y-105239760D01*
X145674450Y-105239760D02*
X145641116Y-105206427D01*
X145641116Y-105206427D02*
X145574450Y-105173093D01*
X116997519Y-44135108D02*
X117991091Y-44021905D01*
X117991091Y-44021905D02*
X118018044Y-44258470D01*
X118018044Y-44258470D02*
X117986903Y-44405799D01*
X117986903Y-44405799D02*
X117903058Y-44511206D01*
X117903058Y-44511206D02*
X117813823Y-44569300D01*
X117813823Y-44569300D02*
X117629962Y-44638176D01*
X117629962Y-44638176D02*
X117488023Y-44654348D01*
X117488023Y-44654348D02*
X117293381Y-44628597D01*
X117293381Y-44628597D02*
X117193364Y-44592066D01*
X117193364Y-44592066D02*
X117087957Y-44508221D01*
X117087957Y-44508221D02*
X117024472Y-44371673D01*
X117024472Y-44371673D02*
X116997519Y-44135108D01*
X117694650Y-45205931D02*
X117731181Y-45105915D01*
X117731181Y-45105915D02*
X117773104Y-45053211D01*
X117773104Y-45053211D02*
X117862339Y-44995117D01*
X117862339Y-44995117D02*
X117909652Y-44989726D01*
X117909652Y-44989726D02*
X118009668Y-45026258D01*
X118009668Y-45026258D02*
X118062372Y-45068180D01*
X118062372Y-45068180D02*
X118120466Y-45157416D01*
X118120466Y-45157416D02*
X118142029Y-45346667D01*
X118142029Y-45346667D02*
X118105497Y-45446684D01*
X118105497Y-45446684D02*
X118063575Y-45499387D01*
X118063575Y-45499387D02*
X117974339Y-45557482D01*
X117974339Y-45557482D02*
X117927026Y-45562872D01*
X117927026Y-45562872D02*
X117827010Y-45526341D01*
X117827010Y-45526341D02*
X117774306Y-45484418D01*
X117774306Y-45484418D02*
X117716212Y-45395183D01*
X117716212Y-45395183D02*
X117694650Y-45205931D01*
X117694650Y-45205931D02*
X117636555Y-45116696D01*
X117636555Y-45116696D02*
X117583852Y-45074774D01*
X117583852Y-45074774D02*
X117483835Y-45038242D01*
X117483835Y-45038242D02*
X117294583Y-45059804D01*
X117294583Y-45059804D02*
X117205348Y-45117899D01*
X117205348Y-45117899D02*
X117163426Y-45170602D01*
X117163426Y-45170602D02*
X117126894Y-45270619D01*
X117126894Y-45270619D02*
X117148457Y-45459871D01*
X117148457Y-45459871D02*
X117206551Y-45549106D01*
X117206551Y-45549106D02*
X117259254Y-45591028D01*
X117259254Y-45591028D02*
X117359271Y-45627560D01*
X117359271Y-45627560D02*
X117548523Y-45605997D01*
X117548523Y-45605997D02*
X117637758Y-45547903D01*
X117637758Y-45547903D02*
X117679680Y-45495199D01*
X117679680Y-45495199D02*
X117716212Y-45395183D01*
X118260622Y-46387552D02*
X118239060Y-46198300D01*
X118239060Y-46198300D02*
X118180966Y-46109065D01*
X118180966Y-46109065D02*
X118128262Y-46067143D01*
X118128262Y-46067143D02*
X117975542Y-45988689D01*
X117975542Y-45988689D02*
X117780900Y-45962938D01*
X117780900Y-45962938D02*
X117402396Y-46006063D01*
X117402396Y-46006063D02*
X117313161Y-46064158D01*
X117313161Y-46064158D02*
X117271238Y-46116861D01*
X117271238Y-46116861D02*
X117234707Y-46216878D01*
X117234707Y-46216878D02*
X117256269Y-46406129D01*
X117256269Y-46406129D02*
X117314363Y-46495365D01*
X117314363Y-46495365D02*
X117367067Y-46537287D01*
X117367067Y-46537287D02*
X117467084Y-46573819D01*
X117467084Y-46573819D02*
X117703648Y-46546866D01*
X117703648Y-46546866D02*
X117792884Y-46488771D01*
X117792884Y-46488771D02*
X117834806Y-46436068D01*
X117834806Y-46436068D02*
X117871338Y-46336051D01*
X117871338Y-46336051D02*
X117849775Y-46146800D01*
X117849775Y-46146800D02*
X117791681Y-46057564D01*
X117791681Y-46057564D02*
X117738977Y-46015642D01*
X117738977Y-46015642D02*
X117638961Y-45979110D01*
X37949407Y-75318441D02*
X37864098Y-76013223D01*
X37864098Y-76013223D02*
X37698674Y-75992911D01*
X37698674Y-75992911D02*
X37603482Y-75947640D01*
X37603482Y-75947640D02*
X37545436Y-75873345D01*
X37545436Y-75873345D02*
X37520476Y-75803113D01*
X37520476Y-75803113D02*
X37503641Y-75666711D01*
X37503641Y-75666711D02*
X37515828Y-75567457D01*
X37515828Y-75567457D02*
X37565162Y-75439180D01*
X37565162Y-75439180D02*
X37606371Y-75377072D01*
X37606371Y-75377072D02*
X37680666Y-75319027D01*
X37680666Y-75319027D02*
X37783982Y-75298129D01*
X37783982Y-75298129D02*
X37949407Y-75318441D01*
X36899988Y-75659760D02*
X36956861Y-75196571D01*
X37032914Y-75944750D02*
X37259273Y-75468789D01*
X37259273Y-75468789D02*
X36829170Y-75415979D01*
X36238291Y-75578513D02*
X36295163Y-75115325D01*
X36371216Y-75863504D02*
X36597575Y-75387542D01*
X36597575Y-75387542D02*
X36167472Y-75334732D01*
X250557509Y-74129929D02*
X250448005Y-73438548D01*
X250448005Y-73438548D02*
X250612619Y-73412475D01*
X250612619Y-73412475D02*
X250716603Y-73429755D01*
X250716603Y-73429755D02*
X250792878Y-73485172D01*
X250792878Y-73485172D02*
X250836229Y-73545803D01*
X250836229Y-73545803D02*
X250890010Y-73672280D01*
X250890010Y-73672280D02*
X250905654Y-73771049D01*
X250905654Y-73771049D02*
X250893589Y-73907955D01*
X250893589Y-73907955D02*
X250871095Y-73979016D01*
X250871095Y-73979016D02*
X250815678Y-74055291D01*
X250815678Y-74055291D02*
X250722124Y-74103857D01*
X250722124Y-74103857D02*
X250557509Y-74129929D01*
X251073541Y-73339472D02*
X251534462Y-73266470D01*
X251534462Y-73266470D02*
X251347659Y-74004782D01*
X252094152Y-73177823D02*
X251962460Y-73198681D01*
X251962460Y-73198681D02*
X251901829Y-73242033D01*
X251901829Y-73242033D02*
X251874121Y-73280171D01*
X251874121Y-73280171D02*
X251823918Y-73389368D01*
X251823918Y-73389368D02*
X251811853Y-73526275D01*
X251811853Y-73526275D02*
X251853569Y-73789658D01*
X251853569Y-73789658D02*
X251896921Y-73850290D01*
X251896921Y-73850290D02*
X251935058Y-73877998D01*
X251935058Y-73877998D02*
X252006119Y-73900492D01*
X252006119Y-73900492D02*
X252137810Y-73879634D01*
X252137810Y-73879634D02*
X252198442Y-73836282D01*
X252198442Y-73836282D02*
X252226150Y-73798145D01*
X252226150Y-73798145D02*
X252248644Y-73727084D01*
X252248644Y-73727084D02*
X252222572Y-73562470D01*
X252222572Y-73562470D02*
X252179220Y-73501838D01*
X252179220Y-73501838D02*
X252141083Y-73474130D01*
X252141083Y-73474130D02*
X252070022Y-73451636D01*
X252070022Y-73451636D02*
X251938330Y-73472494D01*
X251938330Y-73472494D02*
X251877699Y-73515846D01*
X251877699Y-73515846D02*
X251849991Y-73553983D01*
X251849991Y-73553983D02*
X251827497Y-73625044D01*
X152990818Y-40647194D02*
X152281123Y-40728054D01*
X152281123Y-40728054D02*
X152133794Y-40696913D01*
X152133794Y-40696913D02*
X152028387Y-40613068D01*
X152028387Y-40613068D02*
X151964902Y-40476520D01*
X151964902Y-40476520D02*
X151954121Y-40381894D01*
X152110449Y-41753970D02*
X152045761Y-41186214D01*
X152078105Y-41470092D02*
X153071677Y-41356889D01*
X153071677Y-41356889D02*
X152918957Y-41278435D01*
X152918957Y-41278435D02*
X152813550Y-41194590D01*
X152813550Y-41194590D02*
X152755456Y-41105355D01*
X111224521Y-70350043D02*
X111909224Y-70495581D01*
X111909224Y-70495581D02*
X111874572Y-70658606D01*
X111874572Y-70658606D02*
X111821176Y-70749490D01*
X111821176Y-70749490D02*
X111742105Y-70800839D01*
X111742105Y-70800839D02*
X111669965Y-70819583D01*
X111669965Y-70819583D02*
X111532615Y-70824466D01*
X111532615Y-70824466D02*
X111434800Y-70803675D01*
X111434800Y-70803675D02*
X111311311Y-70743349D01*
X111311311Y-70743349D02*
X111253031Y-70696883D01*
X111253031Y-70696883D02*
X111201682Y-70617813D01*
X111201682Y-70617813D02*
X111189869Y-70513067D01*
X111189869Y-70513067D02*
X111224521Y-70350043D01*
X111777546Y-71115074D02*
X111687451Y-71538938D01*
X111687451Y-71538938D02*
X111475125Y-71255261D01*
X111475125Y-71255261D02*
X111454334Y-71353076D01*
X111454334Y-71353076D02*
X111407868Y-71411355D01*
X111407868Y-71411355D02*
X111368333Y-71437030D01*
X111368333Y-71437030D02*
X111296192Y-71455774D01*
X111296192Y-71455774D02*
X111133168Y-71421122D01*
X111133168Y-71421122D02*
X111074888Y-71374656D01*
X111074888Y-71374656D02*
X111049214Y-71335121D01*
X111049214Y-71335121D02*
X111030470Y-71262981D01*
X111030470Y-71262981D02*
X111072052Y-71067351D01*
X111072052Y-71067351D02*
X111118518Y-71009072D01*
X111118518Y-71009072D02*
X111158053Y-70983397D01*
X110933444Y-71719450D02*
X110905723Y-71849869D01*
X110905723Y-71849869D02*
X110924467Y-71922010D01*
X110924467Y-71922010D02*
X110950141Y-71961545D01*
X110950141Y-71961545D02*
X111034095Y-72047546D01*
X111034095Y-72047546D02*
X111157584Y-72107872D01*
X111157584Y-72107872D02*
X111418424Y-72163316D01*
X111418424Y-72163316D02*
X111490564Y-72144571D01*
X111490564Y-72144571D02*
X111530099Y-72118897D01*
X111530099Y-72118897D02*
X111576565Y-72060617D01*
X111576565Y-72060617D02*
X111604287Y-71930198D01*
X111604287Y-71930198D02*
X111585543Y-71858058D01*
X111585543Y-71858058D02*
X111559868Y-71818522D01*
X111559868Y-71818522D02*
X111501589Y-71772057D01*
X111501589Y-71772057D02*
X111338564Y-71737405D01*
X111338564Y-71737405D02*
X111266424Y-71756149D01*
X111266424Y-71756149D02*
X111226888Y-71781823D01*
X111226888Y-71781823D02*
X111180423Y-71840103D01*
X111180423Y-71840103D02*
X111152701Y-71970522D01*
X111152701Y-71970522D02*
X111171445Y-72042663D01*
X111171445Y-72042663D02*
X111197120Y-72082198D01*
X111197120Y-72082198D02*
X111255399Y-72128664D01*
X142370104Y-135347222D02*
X143070104Y-135347222D01*
X143070104Y-135347222D02*
X143070104Y-135513889D01*
X143070104Y-135513889D02*
X143036771Y-135613889D01*
X143036771Y-135613889D02*
X142970104Y-135680556D01*
X142970104Y-135680556D02*
X142903437Y-135713889D01*
X142903437Y-135713889D02*
X142770104Y-135747222D01*
X142770104Y-135747222D02*
X142670104Y-135747222D01*
X142670104Y-135747222D02*
X142536771Y-135713889D01*
X142536771Y-135713889D02*
X142470104Y-135680556D01*
X142470104Y-135680556D02*
X142403437Y-135613889D01*
X142403437Y-135613889D02*
X142370104Y-135513889D01*
X142370104Y-135513889D02*
X142370104Y-135347222D01*
X143070104Y-136347222D02*
X143070104Y-136213889D01*
X143070104Y-136213889D02*
X143036771Y-136147222D01*
X143036771Y-136147222D02*
X143003437Y-136113889D01*
X143003437Y-136113889D02*
X142903437Y-136047222D01*
X142903437Y-136047222D02*
X142770104Y-136013889D01*
X142770104Y-136013889D02*
X142503437Y-136013889D01*
X142503437Y-136013889D02*
X142436771Y-136047222D01*
X142436771Y-136047222D02*
X142403437Y-136080556D01*
X142403437Y-136080556D02*
X142370104Y-136147222D01*
X142370104Y-136147222D02*
X142370104Y-136280556D01*
X142370104Y-136280556D02*
X142403437Y-136347222D01*
X142403437Y-136347222D02*
X142436771Y-136380556D01*
X142436771Y-136380556D02*
X142503437Y-136413889D01*
X142503437Y-136413889D02*
X142670104Y-136413889D01*
X142670104Y-136413889D02*
X142736771Y-136380556D01*
X142736771Y-136380556D02*
X142770104Y-136347222D01*
X142770104Y-136347222D02*
X142803437Y-136280556D01*
X142803437Y-136280556D02*
X142803437Y-136147222D01*
X142803437Y-136147222D02*
X142770104Y-136080556D01*
X142770104Y-136080556D02*
X142736771Y-136047222D01*
X142736771Y-136047222D02*
X142670104Y-136013889D01*
X143070104Y-136847223D02*
X143070104Y-136913889D01*
X143070104Y-136913889D02*
X143036771Y-136980556D01*
X143036771Y-136980556D02*
X143003437Y-137013889D01*
X143003437Y-137013889D02*
X142936771Y-137047223D01*
X142936771Y-137047223D02*
X142803437Y-137080556D01*
X142803437Y-137080556D02*
X142636771Y-137080556D01*
X142636771Y-137080556D02*
X142503437Y-137047223D01*
X142503437Y-137047223D02*
X142436771Y-137013889D01*
X142436771Y-137013889D02*
X142403437Y-136980556D01*
X142403437Y-136980556D02*
X142370104Y-136913889D01*
X142370104Y-136913889D02*
X142370104Y-136847223D01*
X142370104Y-136847223D02*
X142403437Y-136780556D01*
X142403437Y-136780556D02*
X142436771Y-136747223D01*
X142436771Y-136747223D02*
X142503437Y-136713889D01*
X142503437Y-136713889D02*
X142636771Y-136680556D01*
X142636771Y-136680556D02*
X142803437Y-136680556D01*
X142803437Y-136680556D02*
X142936771Y-136713889D01*
X142936771Y-136713889D02*
X143003437Y-136747223D01*
X143003437Y-136747223D02*
X143036771Y-136780556D01*
X143036771Y-136780556D02*
X143070104Y-136847223D01*
X111866113Y-45275993D02*
X111812207Y-44802864D01*
X111812207Y-44802864D02*
X112805779Y-44689661D01*
X111963144Y-46127626D02*
X111898457Y-45559871D01*
X111930801Y-45843749D02*
X112924372Y-45730546D01*
X112924372Y-45730546D02*
X112771652Y-45652092D01*
X112771652Y-45652092D02*
X112666245Y-45568247D01*
X112666245Y-45568247D02*
X112608151Y-45479012D01*
X101679573Y-46557744D02*
X101716105Y-46457727D01*
X101716105Y-46457727D02*
X101799949Y-46352320D01*
X101799949Y-46352320D02*
X101925716Y-46194209D01*
X101925716Y-46194209D02*
X101962248Y-46094193D01*
X101962248Y-46094193D02*
X101951467Y-45999567D01*
X101720293Y-46073833D02*
X101756824Y-45973816D01*
X101756824Y-45973816D02*
X101840669Y-45868409D01*
X101840669Y-45868409D02*
X102024530Y-45799534D01*
X102024530Y-45799534D02*
X102355721Y-45761799D01*
X102355721Y-45761799D02*
X102550363Y-45787550D01*
X102550363Y-45787550D02*
X102655770Y-45871394D01*
X102655770Y-45871394D02*
X102713864Y-45960630D01*
X102713864Y-45960630D02*
X102735427Y-46149881D01*
X102735427Y-46149881D02*
X102698895Y-46249898D01*
X102698895Y-46249898D02*
X102615051Y-46355305D01*
X102615051Y-46355305D02*
X102431189Y-46424181D01*
X102431189Y-46424181D02*
X102099999Y-46461915D01*
X102099999Y-46461915D02*
X101905356Y-46436165D01*
X101905356Y-46436165D02*
X101799949Y-46352320D01*
X101799949Y-46352320D02*
X101741855Y-46263085D01*
X101741855Y-46263085D02*
X101720293Y-46073833D01*
X102800114Y-46717637D02*
X102870193Y-47332705D01*
X102870193Y-47332705D02*
X102453955Y-47044639D01*
X102453955Y-47044639D02*
X102470127Y-47186578D01*
X102470127Y-47186578D02*
X102433595Y-47286595D01*
X102433595Y-47286595D02*
X102391673Y-47339298D01*
X102391673Y-47339298D02*
X102302437Y-47397393D01*
X102302437Y-47397393D02*
X102065873Y-47424346D01*
X102065873Y-47424346D02*
X101965856Y-47387814D01*
X101965856Y-47387814D02*
X101913153Y-47345892D01*
X101913153Y-47345892D02*
X101855058Y-47256656D01*
X101855058Y-47256656D02*
X101822715Y-46972779D01*
X101822715Y-46972779D02*
X101859246Y-46872762D01*
X101859246Y-46872762D02*
X101901169Y-46820059D01*
X239151020Y-103045421D02*
X239838159Y-102911854D01*
X239838159Y-102911854D02*
X239869961Y-103075459D01*
X239869961Y-103075459D02*
X239856321Y-103179982D01*
X239856321Y-103179982D02*
X239803599Y-103258144D01*
X239803599Y-103258144D02*
X239744518Y-103303586D01*
X239744518Y-103303586D02*
X239619994Y-103361748D01*
X239619994Y-103361748D02*
X239521832Y-103380829D01*
X239521832Y-103380829D02*
X239384588Y-103373549D01*
X239384588Y-103373549D02*
X239312786Y-103353549D01*
X239312786Y-103353549D02*
X239234623Y-103300828D01*
X239234623Y-103300828D02*
X239182821Y-103209025D01*
X239182821Y-103209025D02*
X239151020Y-103045421D01*
X240028968Y-103893482D02*
X240003527Y-103762598D01*
X240003527Y-103762598D02*
X239958085Y-103703517D01*
X239958085Y-103703517D02*
X239919004Y-103677156D01*
X239919004Y-103677156D02*
X239808121Y-103630795D01*
X239808121Y-103630795D02*
X239670877Y-103623515D01*
X239670877Y-103623515D02*
X239409110Y-103674398D01*
X239409110Y-103674398D02*
X239350028Y-103719839D01*
X239350028Y-103719839D02*
X239323668Y-103758920D01*
X239323668Y-103758920D02*
X239303667Y-103830723D01*
X239303667Y-103830723D02*
X239329108Y-103961606D01*
X239329108Y-103961606D02*
X239374550Y-104020688D01*
X239374550Y-104020688D02*
X239413631Y-104047048D01*
X239413631Y-104047048D02*
X239485433Y-104067049D01*
X239485433Y-104067049D02*
X239649038Y-104035247D01*
X239649038Y-104035247D02*
X239708119Y-103989806D01*
X239708119Y-103989806D02*
X239734480Y-103950724D01*
X239734480Y-103950724D02*
X239754480Y-103878922D01*
X239754480Y-103878922D02*
X239729039Y-103748039D01*
X239729039Y-103748039D02*
X239683597Y-103688957D01*
X239683597Y-103688957D02*
X239644516Y-103662597D01*
X239644516Y-103662597D02*
X239572714Y-103642596D01*
X240156174Y-104547900D02*
X240130733Y-104417016D01*
X240130733Y-104417016D02*
X240085291Y-104357935D01*
X240085291Y-104357935D02*
X240046210Y-104331574D01*
X240046210Y-104331574D02*
X239935327Y-104285213D01*
X239935327Y-104285213D02*
X239798083Y-104277934D01*
X239798083Y-104277934D02*
X239536316Y-104328816D01*
X239536316Y-104328816D02*
X239477234Y-104374258D01*
X239477234Y-104374258D02*
X239450874Y-104413339D01*
X239450874Y-104413339D02*
X239430873Y-104485141D01*
X239430873Y-104485141D02*
X239456314Y-104616025D01*
X239456314Y-104616025D02*
X239501756Y-104675106D01*
X239501756Y-104675106D02*
X239540837Y-104701467D01*
X239540837Y-104701467D02*
X239612639Y-104721467D01*
X239612639Y-104721467D02*
X239776244Y-104689666D01*
X239776244Y-104689666D02*
X239835325Y-104644224D01*
X239835325Y-104644224D02*
X239861686Y-104605143D01*
X239861686Y-104605143D02*
X239881686Y-104533341D01*
X239881686Y-104533341D02*
X239856245Y-104402457D01*
X239856245Y-104402457D02*
X239810804Y-104343376D01*
X239810804Y-104343376D02*
X239771722Y-104317015D01*
X239771722Y-104317015D02*
X239699920Y-104297015D01*
X172002272Y-70163136D02*
X172681479Y-69993791D01*
X172681479Y-69993791D02*
X172721799Y-70155507D01*
X172721799Y-70155507D02*
X172713648Y-70260600D01*
X172713648Y-70260600D02*
X172665090Y-70341415D01*
X172665090Y-70341415D02*
X172608468Y-70389886D01*
X172608468Y-70389886D02*
X172487159Y-70454486D01*
X172487159Y-70454486D02*
X172390130Y-70478678D01*
X172390130Y-70478678D02*
X172252693Y-70478591D01*
X172252693Y-70478591D02*
X172179942Y-70462376D01*
X172179942Y-70462376D02*
X172099128Y-70413818D01*
X172099128Y-70413818D02*
X172042592Y-70324852D01*
X172042592Y-70324852D02*
X172002272Y-70163136D01*
X172583928Y-70842604D02*
X172600143Y-70769853D01*
X172600143Y-70769853D02*
X172624422Y-70729446D01*
X172624422Y-70729446D02*
X172681044Y-70680975D01*
X172681044Y-70680975D02*
X172713388Y-70672911D01*
X172713388Y-70672911D02*
X172786138Y-70689126D01*
X172786138Y-70689126D02*
X172826545Y-70713405D01*
X172826545Y-70713405D02*
X172875017Y-70770027D01*
X172875017Y-70770027D02*
X172907273Y-70899400D01*
X172907273Y-70899400D02*
X172891058Y-70972151D01*
X172891058Y-70972151D02*
X172866779Y-71012558D01*
X172866779Y-71012558D02*
X172810156Y-71061029D01*
X172810156Y-71061029D02*
X172777813Y-71069093D01*
X172777813Y-71069093D02*
X172705063Y-71052878D01*
X172705063Y-71052878D02*
X172664655Y-71028599D01*
X172664655Y-71028599D02*
X172616184Y-70971977D01*
X172616184Y-70971977D02*
X172583928Y-70842604D01*
X172583928Y-70842604D02*
X172535457Y-70785982D01*
X172535457Y-70785982D02*
X172495049Y-70761702D01*
X172495049Y-70761702D02*
X172422299Y-70745487D01*
X172422299Y-70745487D02*
X172292926Y-70777744D01*
X172292926Y-70777744D02*
X172236304Y-70826215D01*
X172236304Y-70826215D02*
X172212025Y-70866622D01*
X172212025Y-70866622D02*
X172195810Y-70939373D01*
X172195810Y-70939373D02*
X172228066Y-71068745D01*
X172228066Y-71068745D02*
X172276537Y-71125368D01*
X172276537Y-71125368D02*
X172316944Y-71149647D01*
X172316944Y-71149647D02*
X172389695Y-71165862D01*
X172389695Y-71165862D02*
X172519068Y-71133606D01*
X172519068Y-71133606D02*
X172575690Y-71085134D01*
X172575690Y-71085134D02*
X172599969Y-71044727D01*
X172599969Y-71044727D02*
X172616184Y-70971977D01*
X172421603Y-71844982D02*
X172324835Y-71456864D01*
X172373219Y-71650923D02*
X173052426Y-71481578D01*
X173052426Y-71481578D02*
X172939268Y-71441084D01*
X172939268Y-71441084D02*
X172858454Y-71392525D01*
X172858454Y-71392525D02*
X172809983Y-71335903D01*
X45152335Y-107571459D02*
X45843717Y-107680963D01*
X45843717Y-107680963D02*
X45817645Y-107845578D01*
X45817645Y-107845578D02*
X45769078Y-107939133D01*
X45769078Y-107939133D02*
X45692804Y-107994549D01*
X45692804Y-107994549D02*
X45621743Y-108017043D01*
X45621743Y-108017043D02*
X45484837Y-108029108D01*
X45484837Y-108029108D02*
X45386068Y-108013465D01*
X45386068Y-108013465D02*
X45259591Y-107959684D01*
X45259591Y-107959684D02*
X45198959Y-107916332D01*
X45198959Y-107916332D02*
X45143542Y-107840057D01*
X45143542Y-107840057D02*
X45126263Y-107736074D01*
X45126263Y-107736074D02*
X45152335Y-107571459D01*
X45682068Y-108701575D02*
X45734213Y-108372345D01*
X45734213Y-108372345D02*
X45410198Y-108287278D01*
X45410198Y-108287278D02*
X45437907Y-108325415D01*
X45437907Y-108325415D02*
X45460401Y-108396475D01*
X45460401Y-108396475D02*
X45434328Y-108561090D01*
X45434328Y-108561090D02*
X45390976Y-108621721D01*
X45390976Y-108621721D02*
X45352839Y-108649430D01*
X45352839Y-108649430D02*
X45281778Y-108671924D01*
X45281778Y-108671924D02*
X45117164Y-108645852D01*
X45117164Y-108645852D02*
X45056532Y-108602500D01*
X45056532Y-108602500D02*
X45028824Y-108564362D01*
X45028824Y-108564362D02*
X45006330Y-108493302D01*
X45006330Y-108493302D02*
X45032402Y-108328687D01*
X45032402Y-108328687D02*
X45075754Y-108268056D01*
X45075754Y-108268056D02*
X45113892Y-108240347D01*
X45577779Y-109360034D02*
X45629923Y-109030805D01*
X45629923Y-109030805D02*
X45305908Y-108945737D01*
X45305908Y-108945737D02*
X45333617Y-108983874D01*
X45333617Y-108983874D02*
X45356111Y-109054935D01*
X45356111Y-109054935D02*
X45330038Y-109219549D01*
X45330038Y-109219549D02*
X45286687Y-109280181D01*
X45286687Y-109280181D02*
X45248549Y-109307889D01*
X45248549Y-109307889D02*
X45177489Y-109330383D01*
X45177489Y-109330383D02*
X45012874Y-109304311D01*
X45012874Y-109304311D02*
X44952243Y-109260959D01*
X44952243Y-109260959D02*
X44924534Y-109222821D01*
X44924534Y-109222821D02*
X44902040Y-109151761D01*
X44902040Y-109151761D02*
X44928113Y-108987146D01*
X44928113Y-108987146D02*
X44971464Y-108926515D01*
X44971464Y-108926515D02*
X45009602Y-108898806D01*
X123351425Y-43558238D02*
X124344997Y-43445035D01*
X123416113Y-44125993D02*
X123935353Y-43635489D01*
X124409685Y-44012790D02*
X123777242Y-43509722D01*
X123523926Y-45072252D02*
X123459238Y-44504497D01*
X123491582Y-44788375D02*
X124485154Y-44675171D01*
X124485154Y-44675171D02*
X124332434Y-44596717D01*
X124332434Y-44596717D02*
X124227026Y-44512873D01*
X124227026Y-44512873D02*
X124168932Y-44423637D01*
X87354256Y-123743114D02*
X86669553Y-123597576D01*
X86669553Y-123597576D02*
X86704205Y-123434551D01*
X86704205Y-123434551D02*
X86757601Y-123343667D01*
X86757601Y-123343667D02*
X86836672Y-123292318D01*
X86836672Y-123292318D02*
X86908812Y-123273574D01*
X86908812Y-123273574D02*
X87046162Y-123268691D01*
X87046162Y-123268691D02*
X87143977Y-123289482D01*
X87143977Y-123289482D02*
X87267466Y-123349808D01*
X87267466Y-123349808D02*
X87325746Y-123396274D01*
X87325746Y-123396274D02*
X87377095Y-123475344D01*
X87377095Y-123475344D02*
X87388908Y-123580090D01*
X87388908Y-123580090D02*
X87354256Y-123743114D01*
X86884395Y-122586824D02*
X86815091Y-122912873D01*
X86815091Y-122912873D02*
X87134210Y-123014782D01*
X87134210Y-123014782D02*
X87108536Y-122975246D01*
X87108536Y-122975246D02*
X87089791Y-122903106D01*
X87089791Y-122903106D02*
X87124443Y-122740081D01*
X87124443Y-122740081D02*
X87170909Y-122681802D01*
X87170909Y-122681802D02*
X87210444Y-122656127D01*
X87210444Y-122656127D02*
X87282585Y-122637383D01*
X87282585Y-122637383D02*
X87445609Y-122672035D01*
X87445609Y-122672035D02*
X87503889Y-122718501D01*
X87503889Y-122718501D02*
X87529563Y-122758036D01*
X87529563Y-122758036D02*
X87548307Y-122830176D01*
X87548307Y-122830176D02*
X87513655Y-122993201D01*
X87513655Y-122993201D02*
X87467190Y-123051481D01*
X87467190Y-123051481D02*
X87427654Y-123077155D01*
X87016073Y-121967330D02*
X86988351Y-122097749D01*
X86988351Y-122097749D02*
X87007095Y-122169890D01*
X87007095Y-122169890D02*
X87032770Y-122209425D01*
X87032770Y-122209425D02*
X87116724Y-122295426D01*
X87116724Y-122295426D02*
X87240213Y-122355752D01*
X87240213Y-122355752D02*
X87501052Y-122411196D01*
X87501052Y-122411196D02*
X87573193Y-122392451D01*
X87573193Y-122392451D02*
X87612728Y-122366777D01*
X87612728Y-122366777D02*
X87659194Y-122308497D01*
X87659194Y-122308497D02*
X87686915Y-122178078D01*
X87686915Y-122178078D02*
X87668171Y-122105938D01*
X87668171Y-122105938D02*
X87642497Y-122066402D01*
X87642497Y-122066402D02*
X87584217Y-122019937D01*
X87584217Y-122019937D02*
X87421193Y-121985285D01*
X87421193Y-121985285D02*
X87349052Y-122004029D01*
X87349052Y-122004029D02*
X87309517Y-122029703D01*
X87309517Y-122029703D02*
X87263051Y-122087983D01*
X87263051Y-122087983D02*
X87235330Y-122218402D01*
X87235330Y-122218402D02*
X87254074Y-122290543D01*
X87254074Y-122290543D02*
X87279748Y-122330078D01*
X87279748Y-122330078D02*
X87338028Y-122376544D01*
X127685108Y-36602480D02*
X127571905Y-35608908D01*
X127571905Y-35608908D02*
X127808470Y-35581955D01*
X127808470Y-35581955D02*
X127955799Y-35613096D01*
X127955799Y-35613096D02*
X128061206Y-35696941D01*
X128061206Y-35696941D02*
X128119300Y-35786176D01*
X128119300Y-35786176D02*
X128188176Y-35970037D01*
X128188176Y-35970037D02*
X128204348Y-36111976D01*
X128204348Y-36111976D02*
X128178597Y-36306618D01*
X128178597Y-36306618D02*
X128142066Y-36406635D01*
X128142066Y-36406635D02*
X128058221Y-36512042D01*
X128058221Y-36512042D02*
X127921673Y-36575527D01*
X127921673Y-36575527D02*
X127685108Y-36602480D01*
X128755931Y-35905349D02*
X128655915Y-35868818D01*
X128655915Y-35868818D02*
X128603211Y-35826895D01*
X128603211Y-35826895D02*
X128545117Y-35737660D01*
X128545117Y-35737660D02*
X128539726Y-35690347D01*
X128539726Y-35690347D02*
X128576258Y-35590331D01*
X128576258Y-35590331D02*
X128618180Y-35537627D01*
X128618180Y-35537627D02*
X128707416Y-35479533D01*
X128707416Y-35479533D02*
X128896667Y-35457970D01*
X128896667Y-35457970D02*
X128996684Y-35494502D01*
X128996684Y-35494502D02*
X129049387Y-35536424D01*
X129049387Y-35536424D02*
X129107482Y-35625660D01*
X129107482Y-35625660D02*
X129112872Y-35672973D01*
X129112872Y-35672973D02*
X129076341Y-35772989D01*
X129076341Y-35772989D02*
X129034418Y-35825693D01*
X129034418Y-35825693D02*
X128945183Y-35883787D01*
X128945183Y-35883787D02*
X128755931Y-35905349D01*
X128755931Y-35905349D02*
X128666696Y-35963444D01*
X128666696Y-35963444D02*
X128624774Y-36016147D01*
X128624774Y-36016147D02*
X128588242Y-36116164D01*
X128588242Y-36116164D02*
X128609804Y-36305416D01*
X128609804Y-36305416D02*
X128667899Y-36394651D01*
X128667899Y-36394651D02*
X128720602Y-36436573D01*
X128720602Y-36436573D02*
X128820619Y-36473105D01*
X128820619Y-36473105D02*
X129009871Y-36451542D01*
X129009871Y-36451542D02*
X129099106Y-36393448D01*
X129099106Y-36393448D02*
X129141028Y-36340745D01*
X129141028Y-36340745D02*
X129177560Y-36240728D01*
X129177560Y-36240728D02*
X129155997Y-36051476D01*
X129155997Y-36051476D02*
X129097903Y-35962241D01*
X129097903Y-35962241D02*
X129045199Y-35920319D01*
X129045199Y-35920319D02*
X128945183Y-35883787D01*
X129984865Y-35333986D02*
X129511736Y-35387892D01*
X129511736Y-35387892D02*
X129518329Y-35866412D01*
X129518329Y-35866412D02*
X129560251Y-35813709D01*
X129560251Y-35813709D02*
X129649487Y-35755615D01*
X129649487Y-35755615D02*
X129886051Y-35728661D01*
X129886051Y-35728661D02*
X129986068Y-35765193D01*
X129986068Y-35765193D02*
X130038771Y-35807115D01*
X130038771Y-35807115D02*
X130096866Y-35896351D01*
X130096866Y-35896351D02*
X130123819Y-36132915D01*
X130123819Y-36132915D02*
X130087287Y-36232932D01*
X130087287Y-36232932D02*
X130045365Y-36285636D01*
X130045365Y-36285636D02*
X129956129Y-36343730D01*
X129956129Y-36343730D02*
X129719565Y-36370683D01*
X129719565Y-36370683D02*
X129619548Y-36334151D01*
X129619548Y-36334151D02*
X129566845Y-36292229D01*
D11*
X142197271Y-92927223D02*
X149877271Y-92927223D01*
X142197271Y-92927223D02*
X142197271Y-90267223D01*
X149877271Y-92927223D02*
X149877271Y-90267223D01*
X139597271Y-91597223D02*
X139597271Y-90267223D01*
X139597271Y-90267223D02*
X140927271Y-90267223D01*
X142197271Y-90267223D02*
X149877271Y-90267223D01*
X148827273Y-72237224D02*
X148827273Y-72837224D01*
X148527273Y-72537224D02*
X148827273Y-72237224D01*
X148827273Y-72837224D02*
X148527273Y-72537224D01*
X151027273Y-73337224D02*
X148527273Y-73337224D01*
X151027273Y-73337224D02*
X151027273Y-86737224D01*
X138427273Y-73337224D02*
X141227273Y-73337224D01*
X144727273Y-79537224D02*
X144727273Y-80537224D01*
X145227273Y-80037224D02*
X144227273Y-80037224D01*
X151027273Y-86737224D02*
X148427273Y-86737224D01*
X146027273Y-86737224D02*
X143427273Y-86737224D01*
X141027273Y-86737224D02*
X138427273Y-86737224D01*
X138427273Y-86737224D02*
X138427273Y-73337224D01*
X147727273Y-80037224D02*
G75*
G03*
X147727273Y-80037224I-3000000J0D01*
G01*
G36*
X202621373Y-118973051D02*
G01*
X202039195Y-119118204D01*
X202476220Y-118390874D01*
X202621373Y-118973051D01*
G37*
D12*
X202621373Y-118973051D02*
X202039195Y-119118204D01*
X202476220Y-118390874D01*
X202621373Y-118973051D01*
G36*
X147624450Y-101815927D02*
G01*
X147024450Y-101815927D01*
X147024450Y-101215927D01*
X147624450Y-101815927D01*
G37*
X147624450Y-101815927D02*
X147024450Y-101815927D01*
X147024450Y-101215927D01*
X147624450Y-101815927D01*
D11*
X117051692Y-41251386D02*
X117167160Y-42264830D01*
X118627710Y-42098421D02*
X115706609Y-42431238D01*
X115706609Y-42431238D02*
X116322434Y-47836269D01*
X118716009Y-42873407D02*
X115794907Y-43206224D01*
X118729593Y-42992636D02*
X115808492Y-43325453D01*
X118743177Y-43111864D02*
X115822076Y-43444682D01*
X119243536Y-47503452D02*
X118627710Y-42098421D01*
X116322434Y-47836269D02*
X119243536Y-47503452D01*
X117898452Y-48683304D02*
X117782985Y-47669860D01*
G36*
X143669708Y-57154171D02*
G01*
X143217492Y-57209696D01*
X143367374Y-56561120D01*
X143669708Y-57154171D01*
G37*
G36*
X146871981Y-56140005D02*
G01*
X146951942Y-56171673D01*
X147024266Y-56217672D01*
X147086667Y-56276486D01*
X147136861Y-56346596D01*
X147172733Y-56426261D01*
X147192171Y-56513742D01*
X147194474Y-56603327D01*
X147178940Y-56689304D01*
X147147297Y-56769462D01*
X147101273Y-56841588D01*
X147042423Y-56903694D01*
X146972301Y-56953789D01*
X146892636Y-56989661D01*
X146805155Y-57009099D01*
X146550685Y-57040344D01*
X146442343Y-56157971D01*
X146696813Y-56126726D01*
X146786300Y-56124435D01*
X146871981Y-56140005D01*
G37*
G36*
X148072336Y-55973827D02*
G01*
X148151283Y-56007818D01*
X148222444Y-56056559D01*
X148283940Y-56118584D01*
X148333891Y-56192422D01*
X148369927Y-56275865D01*
X148389678Y-56366706D01*
X148392505Y-56458926D01*
X148377961Y-56548080D01*
X148347627Y-56631575D01*
X148303085Y-56706820D01*
X148245878Y-56771723D01*
X148177548Y-56824197D01*
X148099479Y-56861672D01*
X148013056Y-56881581D01*
X147924999Y-56883296D01*
X147840452Y-56866387D01*
X147761530Y-56832593D01*
X147690344Y-56783655D01*
X147628824Y-56721433D01*
X147578897Y-56647792D01*
X147542873Y-56564447D01*
X147523061Y-56473114D01*
X147520235Y-56380894D01*
X147534780Y-56291740D01*
X147565112Y-56208245D01*
X147609654Y-56133000D01*
X147666862Y-56068097D01*
X147735191Y-56015623D01*
X147813260Y-55978148D01*
X147899684Y-55958239D01*
X147987754Y-55956623D01*
X148072336Y-55973827D01*
G37*
G36*
X148960364Y-56943867D02*
G01*
X148034660Y-57057530D01*
X146464507Y-57250320D01*
X145241790Y-57400451D01*
X144635159Y-57474936D01*
X143967076Y-57556966D01*
X142303171Y-57761268D01*
X142171865Y-57777390D01*
X142045967Y-57780413D01*
X141921900Y-57758815D01*
X141804429Y-57713428D01*
X141698070Y-57645995D01*
X141606910Y-57559109D01*
X141534452Y-57456108D01*
X141483481Y-57340950D01*
X141455956Y-57218060D01*
X141452933Y-57092162D01*
X141474531Y-56968094D01*
X141519919Y-56850624D01*
X141587351Y-56744265D01*
X141674237Y-56653105D01*
X141777239Y-56580647D01*
X141796402Y-56572165D01*
X142157168Y-56572165D01*
X142292595Y-57675132D01*
X142402891Y-57661589D01*
X142393638Y-57586233D01*
X143016614Y-57586233D01*
X143134001Y-57571820D01*
X143190854Y-57324926D01*
X143724218Y-57259437D01*
X143839112Y-57485243D01*
X143956500Y-57470830D01*
X143608313Y-56787945D01*
X144011301Y-56787945D01*
X144014839Y-56903869D01*
X144039451Y-57017205D01*
X144084267Y-57120863D01*
X144146474Y-57212289D01*
X144223260Y-57288930D01*
X144312303Y-57348971D01*
X144411280Y-57390599D01*
X144517206Y-57411481D01*
X144627098Y-57409284D01*
X144753812Y-57378030D01*
X144866095Y-57317161D01*
X144960241Y-57232328D01*
X145032546Y-57129184D01*
X144928374Y-57088394D01*
X144871682Y-57164829D01*
X144798060Y-57228749D01*
X144710890Y-57275139D01*
X144613555Y-57298987D01*
X144526088Y-57300630D01*
X144441739Y-57283696D01*
X144362816Y-57249903D01*
X144291630Y-57200964D01*
X144230209Y-57138731D01*
X144180577Y-57065053D01*
X144144848Y-56981672D01*
X144125136Y-56890326D01*
X144122211Y-56798119D01*
X144136459Y-56709001D01*
X144166399Y-56625554D01*
X144210547Y-56550358D01*
X144267459Y-56485491D01*
X144335690Y-56433030D01*
X144413759Y-56395554D01*
X144500183Y-56375645D01*
X144597811Y-56375354D01*
X144693740Y-56398663D01*
X144782017Y-56442704D01*
X144856694Y-56504609D01*
X144947904Y-56439829D01*
X144852782Y-56357143D01*
X144740873Y-56297311D01*
X144659157Y-56272245D01*
X144574413Y-56261592D01*
X144486640Y-56265349D01*
X144379481Y-56289802D01*
X144281753Y-56335689D01*
X144195787Y-56400026D01*
X144123914Y-56479824D01*
X144067951Y-56572765D01*
X144029709Y-56676524D01*
X144011301Y-56787945D01*
X143608313Y-56787945D01*
X143419277Y-56417197D01*
X143282194Y-56434029D01*
X143016614Y-57586233D01*
X142393638Y-57586233D01*
X142337112Y-57125862D01*
X142796420Y-57069466D01*
X142782877Y-56959170D01*
X142323569Y-57015566D01*
X142281006Y-56668919D01*
X142815946Y-56603237D01*
X142802403Y-56492940D01*
X142157168Y-56572165D01*
X141796402Y-56572165D01*
X141892396Y-56529676D01*
X142015286Y-56502151D01*
X142146592Y-56486029D01*
X144383688Y-56211348D01*
X145095786Y-56211348D01*
X145231214Y-57314315D01*
X145902448Y-57231898D01*
X145888905Y-57121601D01*
X145327968Y-57190475D01*
X145275731Y-56765045D01*
X145739766Y-56708069D01*
X145726223Y-56597772D01*
X145262189Y-56654748D01*
X145219626Y-56308102D01*
X145780563Y-56239227D01*
X145767021Y-56128931D01*
X145095786Y-56211348D01*
X144383688Y-56211348D01*
X145606406Y-56061217D01*
X146318504Y-56061217D01*
X146453931Y-57164184D01*
X146818698Y-57119396D01*
X146928071Y-57095071D01*
X147027717Y-57050148D01*
X147115378Y-56987403D01*
X147188797Y-56909613D01*
X147246195Y-56819395D01*
X147285794Y-56719368D01*
X147305312Y-56612110D01*
X147302468Y-56500199D01*
X147278154Y-56390925D01*
X147269070Y-56370819D01*
X147409338Y-56370819D01*
X147412764Y-56486656D01*
X147437463Y-56599881D01*
X147482539Y-56703208D01*
X147545115Y-56794389D01*
X147622320Y-56871178D01*
X147711694Y-56931479D01*
X147810782Y-56973193D01*
X147916708Y-56994074D01*
X148026599Y-56991878D01*
X148134347Y-56967352D01*
X148232273Y-56921440D01*
X148318325Y-56856994D01*
X148390457Y-56776863D01*
X148446692Y-56683689D01*
X148485057Y-56580114D01*
X148503500Y-56468988D01*
X148499975Y-56353164D01*
X148475375Y-56239927D01*
X148430596Y-56136563D01*
X148368314Y-56045347D01*
X148291208Y-55968545D01*
X148201833Y-55908245D01*
X148102746Y-55866530D01*
X147996622Y-55845673D01*
X147886141Y-55847942D01*
X147778984Y-55872396D01*
X147681255Y-55918283D01*
X147595202Y-55982730D01*
X147523071Y-56062860D01*
X147466737Y-56156046D01*
X147428077Y-56259657D01*
X147409338Y-56370819D01*
X147269070Y-56370819D01*
X147233268Y-56291574D01*
X147170646Y-56204098D01*
X147093128Y-56130446D01*
X147003070Y-56072728D01*
X146902833Y-56033054D01*
X146795279Y-56013573D01*
X146683271Y-56016429D01*
X146318504Y-56061217D01*
X145606406Y-56061217D01*
X147820218Y-55789395D01*
X148532317Y-55789395D01*
X148949788Y-56857731D01*
X149078993Y-56841867D01*
X149191658Y-55968344D01*
X149512301Y-56788663D01*
X149643081Y-56772605D01*
X149788123Y-55635201D01*
X149674675Y-55649131D01*
X149554379Y-56590766D01*
X149209065Y-55706301D01*
X149111374Y-55718296D01*
X148991078Y-56659931D01*
X148645765Y-55775465D01*
X148532317Y-55789395D01*
X147820218Y-55789395D01*
X149207591Y-55619047D01*
X149919691Y-55619047D01*
X150055118Y-56722014D01*
X150165415Y-56708471D01*
X150054461Y-55804826D01*
X150748411Y-56636888D01*
X150867375Y-56622281D01*
X150731948Y-55519314D01*
X150621651Y-55532857D01*
X150732605Y-56436502D01*
X150039441Y-55604343D01*
X149919691Y-55619047D01*
X149207591Y-55619047D01*
X150721372Y-55433178D01*
X150852677Y-55417056D01*
X150978575Y-55414033D01*
X151102642Y-55435631D01*
X151220113Y-55481018D01*
X151326472Y-55548451D01*
X151417632Y-55635337D01*
X151490090Y-55738338D01*
X151541061Y-55853496D01*
X151568587Y-55976385D01*
X151571609Y-56102284D01*
X151550011Y-56226352D01*
X151504623Y-56343822D01*
X151437191Y-56450181D01*
X151350305Y-56541341D01*
X151247303Y-56613799D01*
X151132146Y-56664770D01*
X151009256Y-56692295D01*
X150877951Y-56708417D01*
X150065694Y-56808150D01*
X148960364Y-56943867D01*
G37*
G36*
X34464257Y-78675901D02*
G01*
X34391136Y-79271429D01*
X33868730Y-78602779D01*
X34464257Y-78675901D01*
G37*
D12*
X34464257Y-78675901D02*
X34391136Y-79271429D01*
X33868730Y-78602779D01*
X34464257Y-78675901D01*
G36*
X253574822Y-69848034D02*
G01*
X252982209Y-69941895D01*
X252888348Y-69349281D01*
X253574822Y-69848034D01*
G37*
X253574822Y-69848034D02*
X252982209Y-69941895D01*
X252888348Y-69349281D01*
X253574822Y-69848034D01*
D11*
X144213052Y-46815666D02*
X145802767Y-46634541D01*
X144477163Y-46483634D02*
X144239436Y-44397133D01*
X159082669Y-44819547D02*
X144477163Y-46483634D01*
X144020607Y-45126594D02*
X144213052Y-46815666D01*
X143673420Y-39429274D02*
X143435693Y-37342773D01*
X143435693Y-37342773D02*
X145224123Y-37139007D01*
X149595839Y-36640913D02*
X158041200Y-35678685D01*
X158041200Y-35678685D02*
X159082669Y-44819547D01*
G36*
X114852342Y-74239300D02*
G01*
X114140707Y-74701442D01*
X114265454Y-74114553D01*
X114852342Y-74239300D01*
G37*
D12*
X114852342Y-74239300D02*
X114140707Y-74701442D01*
X114265454Y-74114553D01*
X114852342Y-74239300D01*
G36*
X146127271Y-138997223D02*
G01*
X146127271Y-138397223D01*
X146727271Y-138397223D01*
X146127271Y-138997223D01*
G37*
X146127271Y-138997223D02*
X146127271Y-138397223D01*
X146727271Y-138397223D01*
X146127271Y-138997223D01*
D11*
X109020723Y-49133688D02*
X110262688Y-48992184D01*
X109284834Y-48801656D02*
X113974493Y-48267337D01*
X110586413Y-48653360D02*
X110517359Y-48047281D01*
X111878056Y-48506195D02*
X111809002Y-47900117D01*
X113974493Y-48267337D02*
X113281689Y-42186677D01*
X109821858Y-48126523D02*
X113299360Y-47730312D01*
X113299360Y-47730312D02*
X112744664Y-42861810D01*
X108879219Y-47891724D02*
X109020723Y-49133688D01*
X108920842Y-47373682D02*
X109119557Y-47351041D01*
X108886882Y-47075610D02*
X108920842Y-47373682D01*
X108986239Y-47064290D02*
X109020200Y-47362361D01*
X109085596Y-47052969D02*
X108886882Y-47075610D01*
X108995033Y-46258112D02*
X109601112Y-46189058D01*
X109601112Y-46189058D02*
X109821858Y-48126523D01*
X112536546Y-45452020D02*
X112513906Y-45253305D01*
X113033332Y-45395418D02*
X112536546Y-45452020D01*
X113022012Y-45296061D02*
X112525226Y-45352662D01*
X112513906Y-45253305D02*
X113010692Y-45196704D01*
X109487909Y-45195486D02*
X108881830Y-45264540D01*
X109267163Y-43258021D02*
X109487909Y-45195486D01*
X112744664Y-42861810D02*
X109267163Y-43258021D01*
X108592030Y-42720996D02*
X109284834Y-48801656D01*
X109893609Y-42572700D02*
X109962663Y-43178779D01*
X111185252Y-42425536D02*
X111254306Y-43031615D01*
X113281689Y-42186677D02*
X108592030Y-42720996D01*
X101969546Y-51850286D02*
X106580713Y-51324910D01*
X101969546Y-51850286D02*
X100810345Y-41676110D01*
X103469840Y-51679349D02*
X102310639Y-41505173D01*
X106580713Y-51324910D02*
X105421512Y-41150734D01*
X101599372Y-48601306D02*
X103099665Y-48430369D01*
X101180407Y-44924096D02*
X102680700Y-44753160D01*
X100810345Y-41676110D02*
X105421512Y-41150734D01*
G36*
X243535610Y-105911460D02*
G01*
X243421125Y-105322483D01*
X244010101Y-105207998D01*
X243535610Y-105911460D01*
G37*
D12*
X243535610Y-105911460D02*
X243421125Y-105322483D01*
X244010101Y-105207998D01*
X243535610Y-105911460D01*
G36*
X176530850Y-72795775D02*
G01*
X176385697Y-72213598D01*
X176967875Y-72068445D01*
X176530850Y-72795775D01*
G37*
X176530850Y-72795775D02*
X176385697Y-72213598D01*
X176967875Y-72068445D01*
X176530850Y-72795775D01*
G36*
X48978734Y-111265520D02*
G01*
X48292260Y-111764273D01*
X48386121Y-111171660D01*
X48978734Y-111265520D01*
G37*
X48978734Y-111265520D02*
X48292260Y-111764273D01*
X48386121Y-111171660D01*
X48978734Y-111265520D01*
D11*
X120183959Y-47424777D02*
X140075267Y-45158449D01*
X140075267Y-45158449D02*
X139448122Y-39654061D01*
X119983589Y-45666155D02*
X120183959Y-47424777D01*
X119556813Y-41920389D02*
X119757183Y-43679011D01*
X139448122Y-39654061D02*
X119556813Y-41920389D01*
X119983589Y-45666155D02*
G75*
G03*
X119757183Y-43679011I-113203J993572D01*
G01*
G36*
X84313324Y-119978605D02*
G01*
X83726436Y-119853858D01*
X84438071Y-119391716D01*
X84313324Y-119978605D01*
G37*
D12*
X84313324Y-119978605D02*
X83726436Y-119853858D01*
X84438071Y-119391716D01*
X84313324Y-119978605D01*
D11*
X133048614Y-35601692D02*
X132035170Y-35717160D01*
X132201579Y-37177710D02*
X131868762Y-34256609D01*
X131868762Y-34256609D02*
X126463731Y-34872434D01*
X131426593Y-37266009D02*
X131093776Y-34344907D01*
X131307364Y-37279593D02*
X130974547Y-34358492D01*
X131188136Y-37293177D02*
X130855318Y-34372076D01*
X126796548Y-37793536D02*
X132201579Y-37177710D01*
X126463731Y-34872434D02*
X126796548Y-37793536D01*
X125616696Y-36448452D02*
X126630140Y-36332985D01*
%LPC*%
D13*
X47850155Y-69312435D03*
D14*
X48084093Y-65109618D03*
D15*
X47433285Y-69261250D03*
D16*
X42391151Y-68642154D03*
D15*
X37349017Y-68023058D03*
D13*
X36932147Y-67971873D03*
D17*
X39306405Y-73089382D03*
D18*
X39250988Y-73374740D03*
D19*
X36965317Y-71804483D03*
D20*
X45124125Y-72272281D03*
D18*
X44385039Y-72917012D03*
D19*
X41672122Y-74498176D03*
D13*
X45528545Y-88220439D03*
D14*
X45762483Y-84017622D03*
D15*
X45111675Y-88169254D03*
D16*
X40069541Y-87550158D03*
D15*
X35027407Y-86931062D03*
D13*
X34610537Y-86879877D03*
D17*
X36984795Y-91997386D03*
D18*
X36929378Y-92282744D03*
D19*
X34643707Y-90712487D03*
D20*
X42802515Y-91180285D03*
D18*
X42063429Y-91825016D03*
D19*
X39350512Y-93406180D03*
D13*
X43206934Y-107128445D03*
D14*
X43440872Y-102925628D03*
D15*
X42790064Y-107077260D03*
D16*
X37747930Y-106458164D03*
D15*
X32705796Y-105839068D03*
D13*
X32288926Y-105787883D03*
D17*
X34663184Y-110905392D03*
D18*
X34607767Y-111190750D03*
D19*
X32322096Y-109620493D03*
D20*
X40480904Y-110088291D03*
D18*
X39741818Y-110733022D03*
D19*
X37028901Y-112314186D03*
D13*
X69041707Y-67854600D03*
D14*
X69422179Y-63662507D03*
D15*
X68626878Y-67788897D03*
D16*
X63609421Y-66994210D03*
D15*
X58591964Y-66199523D03*
D13*
X58177135Y-66133820D03*
D21*
X60371348Y-71331072D03*
D18*
X60306006Y-71614323D03*
D19*
X58076528Y-69965253D03*
D22*
X66214040Y-70717506D03*
D18*
X65452904Y-71336050D03*
D19*
X62686458Y-72821571D03*
D13*
X66061631Y-86670062D03*
D14*
X66442103Y-82477969D03*
D15*
X65646802Y-86604359D03*
D16*
X60629345Y-85809672D03*
D15*
X55611888Y-85014985D03*
D13*
X55197059Y-84949282D03*
D21*
X57391272Y-90146534D03*
D18*
X57325930Y-90429785D03*
D19*
X55096452Y-88780715D03*
D22*
X63233964Y-89532968D03*
D18*
X62472828Y-90151512D03*
D19*
X59706382Y-91637033D03*
D13*
X63081553Y-105485526D03*
D14*
X63462025Y-101293433D03*
D15*
X62666724Y-105419823D03*
D16*
X57649267Y-104625136D03*
D15*
X52631810Y-103830449D03*
D13*
X52216981Y-103764746D03*
D21*
X54411194Y-108961998D03*
D18*
X54345852Y-109245249D03*
D19*
X52116374Y-107596179D03*
D22*
X60253886Y-108348432D03*
D18*
X59492750Y-108966976D03*
D19*
X56726304Y-110452497D03*
D13*
X87046047Y-84593789D03*
D14*
X87645395Y-80427354D03*
D15*
X86635225Y-84506466D03*
D16*
X81666235Y-83450275D03*
D15*
X76697245Y-82394084D03*
D13*
X76286423Y-82306761D03*
D23*
X78205625Y-87611727D03*
D18*
X78125549Y-87891169D03*
D19*
X75985433Y-86127677D03*
D24*
X84072422Y-87304783D03*
D18*
X83279957Y-87882645D03*
D19*
X80439556Y-89221346D03*
D13*
X83085329Y-103227503D03*
D14*
X83684677Y-99061068D03*
D15*
X82674507Y-103140180D03*
D16*
X77705517Y-102083989D03*
D15*
X72736527Y-101027798D03*
D13*
X72325705Y-100940475D03*
D23*
X74244907Y-106245441D03*
D18*
X74164831Y-106524883D03*
D19*
X72024715Y-104761391D03*
D24*
X80111704Y-105938497D03*
D18*
X79319239Y-106516359D03*
D19*
X76478838Y-107855060D03*
D13*
X108650296Y-74579222D03*
D14*
X109249644Y-70412787D03*
D15*
X108239474Y-74491899D03*
D16*
X103270484Y-73435708D03*
D15*
X98301494Y-72379517D03*
D13*
X97890672Y-72292194D03*
D23*
X99809874Y-77597160D03*
D18*
X99729798Y-77876602D03*
D19*
X97589682Y-76113110D03*
D24*
X105676671Y-77290216D03*
D18*
X104884206Y-77868078D03*
D19*
X102043805Y-79206779D03*
D13*
X104689579Y-93212935D03*
D14*
X105288927Y-89046500D03*
D15*
X104278757Y-93125612D03*
D16*
X99309767Y-92069421D03*
D15*
X94340777Y-91013230D03*
D13*
X93929955Y-90925907D03*
D23*
X95849157Y-96230873D03*
D18*
X95769081Y-96510315D03*
D19*
X93628965Y-94746823D03*
D24*
X101715954Y-95923929D03*
D18*
X100923489Y-96501791D03*
D19*
X98083088Y-97840492D03*
D13*
X100728861Y-111846646D03*
D14*
X101328209Y-107680211D03*
D15*
X100318039Y-111759323D03*
D16*
X95349049Y-110703132D03*
D15*
X90380059Y-109646941D03*
D13*
X89969237Y-109559618D03*
D23*
X91888439Y-114864584D03*
D18*
X91808363Y-115144026D03*
D19*
X89668247Y-113380534D03*
D24*
X97755236Y-114557640D03*
D18*
X96962771Y-115135502D03*
D19*
X94122370Y-116474203D03*
D13*
X127284008Y-78539940D03*
D14*
X127883356Y-74373505D03*
D15*
X126873186Y-78452617D03*
D16*
X121904196Y-77396426D03*
D15*
X116935206Y-76340235D03*
D13*
X116524384Y-76252912D03*
D23*
X118443586Y-81557878D03*
D18*
X118363510Y-81837320D03*
D19*
X116223394Y-80073828D03*
D24*
X124310383Y-81250934D03*
D18*
X123517918Y-81828796D03*
D19*
X120677517Y-83167497D03*
D13*
X123323291Y-97173653D03*
D14*
X123922639Y-93007218D03*
D15*
X122912469Y-97086330D03*
D16*
X117943479Y-96030139D03*
D15*
X112974489Y-94973948D03*
D13*
X112563667Y-94886625D03*
D23*
X114482869Y-100191591D03*
D18*
X114402793Y-100471033D03*
D19*
X112262677Y-98707541D03*
D24*
X120349666Y-99884647D03*
D18*
X119557201Y-100462509D03*
D19*
X116716800Y-101801210D03*
D13*
X119362574Y-115807365D03*
D14*
X119961922Y-111640930D03*
D15*
X118951752Y-115720042D03*
D16*
X113982762Y-114663851D03*
D15*
X109013772Y-113607660D03*
D13*
X108602950Y-113520337D03*
D23*
X110522152Y-118825303D03*
D18*
X110442076Y-119104745D03*
D19*
X108301960Y-117341253D03*
D24*
X116388949Y-118518359D03*
D18*
X115596484Y-119096221D03*
D19*
X112756083Y-120434922D03*
D13*
X115399566Y-134428349D03*
D14*
X115998914Y-130261914D03*
D15*
X114988744Y-134341026D03*
D16*
X110019754Y-133284835D03*
D15*
X105050764Y-132228644D03*
D13*
X104639942Y-132141321D03*
D23*
X106559144Y-137446287D03*
D18*
X106479068Y-137725729D03*
D19*
X104338952Y-135962237D03*
D24*
X112425941Y-137139343D03*
D18*
X111633476Y-137717205D03*
D19*
X108793075Y-139055906D03*
D13*
X171664957Y-75704338D03*
D14*
X170377203Y-71696834D03*
D15*
X171257433Y-75805945D03*
D16*
X166328331Y-77034908D03*
D15*
X161399229Y-78263871D03*
D13*
X160991705Y-78365478D03*
D25*
X165042216Y-82292227D03*
D18*
X165092743Y-82578492D03*
D19*
X162396156Y-81931641D03*
D26*
X170180703Y-79444514D03*
D18*
X169721758Y-80311286D03*
D19*
X167755670Y-82759653D03*
D13*
X176273570Y-94188473D03*
D14*
X174985816Y-90180969D03*
D15*
X175866046Y-94290080D03*
D16*
X170936944Y-95519043D03*
D15*
X166007842Y-96748006D03*
D13*
X165600318Y-96849613D03*
D25*
X169650829Y-100776362D03*
D18*
X169701356Y-101062627D03*
D19*
X167004769Y-100415776D03*
D26*
X174789316Y-97928649D03*
D18*
X174330371Y-98795421D03*
D19*
X172364283Y-101243788D03*
D13*
X180882179Y-112672606D03*
D14*
X179594425Y-108665102D03*
D15*
X180474655Y-112774213D03*
D16*
X175545553Y-114003176D03*
D15*
X170616451Y-115232139D03*
D13*
X170208927Y-115333746D03*
D25*
X174259438Y-119260495D03*
D18*
X174309965Y-119546760D03*
D19*
X171613378Y-118899909D03*
D26*
X179397925Y-116412782D03*
D18*
X178938980Y-117279554D03*
D19*
X176972892Y-119727921D03*
D13*
X185462861Y-131147597D03*
D14*
X184175107Y-127140093D03*
D15*
X185055337Y-131249204D03*
D16*
X180126235Y-132478167D03*
D15*
X175197133Y-133707130D03*
D13*
X174789609Y-133808737D03*
D25*
X178840120Y-137735486D03*
D18*
X178890647Y-138021751D03*
D19*
X176194060Y-137374900D03*
D26*
X183978607Y-134887773D03*
D18*
X183519662Y-135754545D03*
D19*
X181553574Y-138202912D03*
D13*
X190149090Y-71095728D03*
D14*
X188861336Y-67088224D03*
D15*
X189741566Y-71197335D03*
D16*
X184812464Y-72426298D03*
D15*
X179883362Y-73655261D03*
D13*
X179475838Y-73756868D03*
D25*
X183526349Y-77683617D03*
D18*
X183576876Y-77969882D03*
D19*
X180880289Y-77323031D03*
D26*
X188664836Y-74835904D03*
D18*
X188205891Y-75702676D03*
D19*
X186239803Y-78151043D03*
D13*
X194757702Y-89579861D03*
D14*
X193469948Y-85572357D03*
D15*
X194350178Y-89681468D03*
D16*
X189421076Y-90910431D03*
D15*
X184491974Y-92139394D03*
D13*
X184084450Y-92241001D03*
D25*
X188134961Y-96167750D03*
D18*
X188185488Y-96454015D03*
D19*
X185488901Y-95807164D03*
D26*
X193273448Y-93320037D03*
D18*
X192814503Y-94186809D03*
D19*
X190848415Y-96635176D03*
D13*
X199366314Y-108063994D03*
D14*
X198078560Y-104056490D03*
D15*
X198958790Y-108165601D03*
D16*
X194029688Y-109394564D03*
D15*
X189100586Y-110623527D03*
D13*
X188693062Y-110725134D03*
D25*
X192743573Y-114651883D03*
D18*
X192794100Y-114938148D03*
D19*
X190097513Y-114291297D03*
D26*
X197882060Y-111804170D03*
D18*
X197423115Y-112670942D03*
D19*
X195457027Y-115119309D03*
D13*
X203941683Y-126561411D03*
D14*
X202653929Y-122553907D03*
D15*
X203534159Y-126663018D03*
D16*
X198605057Y-127891981D03*
D15*
X193675955Y-129120944D03*
D13*
X193268431Y-129222551D03*
D25*
X197318942Y-133149300D03*
D18*
X197369469Y-133435565D03*
D19*
X194672882Y-132788714D03*
D26*
X202457429Y-130301587D03*
D18*
X201998484Y-131168359D03*
D19*
X200032396Y-133616726D03*
D13*
X207481071Y-61866081D03*
D14*
X206193317Y-57858577D03*
D15*
X207073547Y-61967688D03*
D16*
X202144445Y-63196651D03*
D15*
X197215343Y-64425614D03*
D13*
X196807819Y-64527221D03*
D25*
X200858330Y-68453970D03*
D18*
X200908857Y-68740235D03*
D19*
X198212270Y-68093384D03*
D26*
X205996817Y-65606257D03*
D18*
X205537872Y-66473029D03*
D19*
X203571784Y-68921396D03*
D13*
X212089683Y-80350215D03*
D14*
X210801929Y-76342711D03*
D15*
X211682159Y-80451822D03*
D16*
X206753057Y-81680785D03*
D15*
X201823955Y-82909748D03*
D13*
X201416431Y-83011355D03*
D25*
X205466942Y-86938104D03*
D18*
X205517469Y-87224369D03*
D19*
X202820882Y-86577518D03*
D26*
X210605429Y-84090391D03*
D18*
X210146484Y-84957163D03*
D19*
X208180396Y-87405530D03*
D13*
X216698294Y-98834349D03*
D14*
X215410540Y-94826845D03*
D15*
X216290770Y-98935956D03*
D16*
X211361668Y-100164919D03*
D15*
X206432566Y-101393882D03*
D13*
X206025042Y-101495489D03*
D25*
X210075553Y-105422238D03*
D18*
X210126080Y-105708503D03*
D19*
X207429493Y-105061652D03*
D26*
X215214040Y-102574525D03*
D18*
X214755095Y-103441297D03*
D19*
X212789007Y-105889664D03*
D13*
X229315722Y-61188050D03*
D14*
X228239468Y-57118642D03*
D15*
X228903438Y-61268189D03*
D16*
X223916772Y-62237499D03*
D15*
X218930106Y-63206809D03*
D13*
X218517822Y-63286948D03*
D27*
X222357274Y-67420303D03*
D18*
X222392749Y-67708820D03*
D19*
X219733710Y-66921727D03*
D28*
X227637755Y-64845420D03*
D18*
X227134076Y-65686985D03*
D19*
X225042545Y-68029099D03*
D13*
X232950632Y-79888045D03*
D14*
X231874378Y-75818637D03*
D15*
X232538348Y-79968184D03*
D16*
X227551682Y-80937494D03*
D15*
X222565016Y-81906804D03*
D13*
X222152732Y-81986943D03*
D27*
X225992184Y-86120298D03*
D18*
X226027659Y-86408815D03*
D19*
X223368620Y-85621722D03*
D28*
X231272665Y-83545415D03*
D18*
X230768986Y-84386980D03*
D19*
X228677455Y-86729094D03*
D13*
X236585546Y-98588043D03*
D14*
X235509292Y-94518635D03*
D15*
X236173262Y-98668182D03*
D16*
X231186596Y-99637492D03*
D15*
X226199930Y-100606802D03*
D13*
X225787646Y-100686941D03*
D27*
X229627098Y-104820296D03*
D18*
X229662573Y-105108813D03*
D19*
X227003534Y-104321720D03*
D28*
X234907579Y-102245413D03*
D18*
X234403900Y-103086978D03*
D19*
X232312369Y-105429092D03*
D13*
X250580275Y-62096044D03*
D14*
X249646697Y-57991555D03*
D15*
X250165446Y-62161747D03*
D16*
X245147989Y-62956434D03*
D15*
X240130532Y-63751121D03*
D13*
X239715703Y-63816824D03*
D29*
X243408563Y-68081655D03*
D18*
X243433948Y-68371234D03*
D19*
X240803998Y-67491822D03*
D30*
X248775690Y-65692627D03*
D18*
X248242948Y-66516101D03*
D19*
X246070952Y-68783795D03*
D13*
X253560353Y-80911505D03*
D14*
X252626775Y-76807016D03*
D15*
X253145524Y-80977208D03*
D16*
X248128067Y-81771895D03*
D15*
X243110610Y-82566582D03*
D13*
X242695781Y-82632285D03*
D29*
X246388641Y-86897116D03*
D18*
X246414026Y-87186695D03*
D19*
X243784076Y-86307283D03*
D30*
X251755768Y-84508088D03*
D18*
X251223026Y-85331562D03*
D19*
X249051030Y-87599256D03*
D13*
X256540430Y-99726970D03*
D14*
X255606852Y-95622481D03*
D15*
X256125601Y-99792673D03*
D16*
X251108144Y-100587360D03*
D15*
X246090687Y-101382047D03*
D13*
X245675858Y-101447750D03*
D29*
X249368718Y-105712581D03*
D18*
X249394103Y-106002160D03*
D19*
X246764153Y-105122748D03*
D30*
X254735845Y-103323553D03*
D18*
X254203103Y-104147027D03*
D19*
X252031107Y-106414721D03*
D31*
X140927270Y-91597222D03*
D32*
X143467270Y-91597222D03*
X146007270Y-91597222D03*
X148547270Y-91597222D03*
D13*
X96757085Y-130477601D03*
D14*
X97356433Y-126311166D03*
D15*
X96346263Y-130390278D03*
D16*
X91377273Y-129334087D03*
D15*
X86408283Y-128277896D03*
D13*
X85997461Y-128190573D03*
D23*
X87916663Y-133495539D03*
D18*
X87836587Y-133774981D03*
D19*
X85696471Y-132011489D03*
D24*
X93783460Y-133188595D03*
D18*
X92990995Y-133766457D03*
D19*
X90150594Y-135105158D03*
D13*
X91006764Y-65960077D03*
D14*
X91606112Y-61793642D03*
D15*
X90595942Y-65872754D03*
D16*
X85626952Y-64816563D03*
D15*
X80657962Y-63760372D03*
D13*
X80247140Y-63673049D03*
D23*
X82166342Y-68978015D03*
D18*
X82086266Y-69257457D03*
D19*
X79946150Y-67493965D03*
D24*
X88033139Y-68671071D03*
D18*
X87240674Y-69248933D03*
D19*
X84400273Y-70587634D03*
D33*
X147227272Y-72537223D03*
D19*
X142227273Y-72537224D03*
X144727273Y-72537224D03*
X142227273Y-87037224D03*
X147227273Y-87037224D03*
D13*
X150227272Y-79787224D03*
D14*
X149947272Y-75587224D03*
D15*
X149807272Y-79787224D03*
D16*
X144727272Y-79787224D03*
D15*
X139647272Y-79787224D03*
D13*
X139227272Y-79787224D03*
D34*
X142207500Y-84577239D03*
D18*
X142187272Y-84867224D03*
D19*
X139727272Y-83587224D03*
D35*
X147882276Y-83057227D03*
D18*
X147227272Y-83787224D03*
D19*
X144727272Y-85687224D03*
D36*
X205866072Y-123099664D03*
X204410628Y-123462547D03*
D37*
X203157957Y-118438357D03*
D38*
X204605152Y-118077529D03*
D39*
X142235449Y-103965926D03*
X142235449Y-102465926D03*
D40*
X147413450Y-102465927D03*
D41*
X147413449Y-103957426D03*
D13*
X134072708Y-138382180D03*
D14*
X134672056Y-134215745D03*
D15*
X133661886Y-138294857D03*
D16*
X128692896Y-137238666D03*
D15*
X123723906Y-136182475D03*
D13*
X123313084Y-136095152D03*
D23*
X125232286Y-141400118D03*
D18*
X125152210Y-141679560D03*
D19*
X123012094Y-139916068D03*
D24*
X131099083Y-141093174D03*
D18*
X130306618Y-141671036D03*
D19*
X127466217Y-143009737D03*
D42*
X116899999Y-39919999D03*
D43*
X118050144Y-50014689D03*
D44*
X39479579Y-77125558D03*
X39296775Y-78614377D03*
D45*
X34157372Y-77983339D03*
D46*
X34339139Y-76502955D03*
D47*
X248588503Y-72814588D03*
X248353851Y-71333056D03*
D48*
X253468102Y-70523039D03*
D49*
X253701423Y-71996175D03*
D13*
X166920692Y-135809014D03*
D14*
X165632938Y-131801510D03*
D15*
X166513168Y-135910621D03*
D16*
X161584066Y-137139584D03*
D15*
X156654964Y-138368547D03*
D13*
X156247440Y-138470154D03*
D25*
X160297951Y-142396903D03*
D18*
X160348478Y-142683168D03*
D19*
X157651891Y-142036317D03*
D26*
X165436438Y-139549190D03*
D18*
X164977493Y-140415962D03*
D19*
X163011405Y-142864329D03*
D50*
X144949999Y-41799999D03*
D51*
X150712716Y-41143420D03*
D52*
X147387339Y-36691244D03*
D53*
X113158125Y-68983193D03*
X114625346Y-69295061D03*
D54*
X113548780Y-74359910D03*
D55*
X112089872Y-74049809D03*
D56*
X143977270Y-133608222D03*
X145477270Y-133608222D03*
D57*
X145477271Y-138786223D03*
D58*
X143985770Y-138786222D03*
D59*
X110850000Y-46550000D03*
D60*
X110623593Y-44562855D03*
D61*
X104926461Y-48916695D03*
D62*
X104638925Y-46393022D03*
X104351389Y-43869350D03*
D63*
X240396841Y-101031709D03*
X241869282Y-100745495D03*
D64*
X242857292Y-105828362D03*
D65*
X241393194Y-106112953D03*
D66*
X173140996Y-68086983D03*
X174596440Y-67724100D03*
D67*
X175849113Y-72748292D03*
D68*
X174401916Y-73109118D03*
D69*
X47011755Y-106105285D03*
X48493287Y-106339937D03*
D70*
X47683270Y-111454188D03*
D71*
X46210132Y-111220865D03*
D72*
X122676326Y-48187535D03*
D73*
X125200000Y-47900000D03*
X135394047Y-46738535D03*
X137818362Y-46462319D03*
X136955754Y-38891301D03*
X134531438Y-39167517D03*
X124337391Y-40328982D03*
X121813719Y-40616518D03*
D74*
X85420651Y-125109963D03*
X83953430Y-124798095D03*
D75*
X85029998Y-119733248D03*
D76*
X86488904Y-120043347D03*
D77*
X134379999Y-35449999D03*
D78*
X124285309Y-36600144D03*
D79*
X160470625Y-62666599D03*
X157946953Y-62954135D03*
X155423280Y-63241671D03*
X152899608Y-63529207D03*
X150375935Y-63816743D03*
X147852263Y-64104279D03*
X145328590Y-64391816D03*
X142804918Y-64679352D03*
X140281245Y-64966888D03*
X137757573Y-65254424D03*
X135233900Y-65541960D03*
X132710228Y-65829496D03*
X130985011Y-50687461D03*
X133508683Y-50399925D03*
X136032356Y-50112389D03*
X138556028Y-49824853D03*
X141079701Y-49537317D03*
X143603373Y-49249781D03*
X146127046Y-48962244D03*
X148650718Y-48674708D03*
X151174391Y-48387172D03*
X153698063Y-48099636D03*
X156221736Y-47812100D03*
D80*
X158745407Y-47524563D03*
D79*
X137470037Y-62730752D03*
X132422692Y-63305824D03*
X137182500Y-60207079D03*
X132135155Y-60782151D03*
X136894964Y-57683407D03*
X131847619Y-58258479D03*
X131560083Y-55734806D03*
X131272547Y-53211134D03*
M02*
