0
SECTION
2
HEADER
9
$INSUNITS
70
4
9
$ACADVER
1
AC1014
9
$HANDSEED
5
FFFF
0
ENDSEC
0
SECTION
2
TABLES
0
TABLE
2
VPORT
5
8
100
AcDbSymbolTable
0
ENDTAB
0
TABLE
2
LTYPE
5
5
100
AcDbSymbolTable
0
LTYPE
5
14
100
AcDbSymbolTableRecord
100
AcDbLinetypeTableRecord
2
BYBLOCK
70
0
0
LTYPE
5
15
100
AcDbSymbolTableRecord
100
AcDbLinetypeTableRecord
2
BYLAYER
70
0
0
ENDTAB
0
TABLE
2
LAYER
5
2
100
AcDbSymbolTable
70
2
0
LAYER
5
50
100
AcDbSymbolTableRecord
100
AcDbLayerTableRecord
2
0
70
0
6
CONTINUOUS
0
ENDTAB
0
TABLE
2
STYLE
5
3
100
AcDbSymbolTable
70
1
0
STYLE
5
11
100
AcDbSymbolTableRecord
100
AcDbTextStyleTableRecord
2
STANDARD
70
0
0
ENDTAB
0
TABLE
2
VIEW
5
6
100
AcDbSymbolTable
70
0
0
ENDTAB
0
TABLE
2
UCS
5
7
100
AcDbSymbolTable
70
0
0
ENDTAB
0
TABLE
2
APPID
5
9
100
AcDbSymbolTable
70
2
0
APPID
5
12
100
AcDbSymbolTableRecord
100
AcDbRegAppTableRecord
2
ACAD
70
0
0
ENDTAB
0
TABLE
2
DIMSTYLE
5
A
100
AcDbSymbolTable
70
1
0
ENDTAB
0
TABLE
2
BLOCK_RECORD
5
1
100
AcDbSymbolTable
70
1
0
BLOCK_RECORD
5
1F
100
AcDbSymbolTableRecord
100
AcDbBlockTableRecord
2
*MODEL_SPACE
0
BLOCK_RECORD
5
1B
100
AcDbSymbolTableRecord
100
AcDbBlockTableRecord
2
*PAPER_SPACE
0
ENDTAB
0
ENDSEC
0
SECTION
2
BLOCKS
0
BLOCK
5
20
100
AcDbEntity
100
AcDbBlockBegin
2
*MODEL_SPACE
0
ENDBLK
5
21
100
AcDbEntity
100
AcDbBlockEnd
0
BLOCK
5
1C
100
AcDbEntity
100
AcDbBlockBegin
2
*PAPER_SPACE
0
ENDBLK
5
1D
100
AcDbEntity
100
AcDbBlockEnd
0
ENDSEC
0
SECTION
2
ENTITIES
0
LWPOLYLINE
5
100
100
AcDbEntity
8
0
100
AcDbPolyline
90
14
70
1
43
0.0
10
232.23100000000002
20
-95.787400000000019
10
232.22200000000001
20
-95.832400000000021
10
232.18400000000003
20
-95.857799999999997
10
228.846
20
-96.506500000000003
10
228.80099999999999
20
-96.497400000000013
10
228.77600000000001
20
-96.459100000000007
10
228.77600000000001
20
-96.459100000000007
10
228.20300000000003
20
-93.514200000000017
10
228.21300000000002
20
-93.469200000000001
10
228.25099999999998
20
-93.443900000000014
10
231.58799999999999
20
-92.795100000000005
10
231.63299999999998
20
-92.804300000000012
10
231.64600000000002
20
-92.823100000000011
10
231.65900000000005
20
-92.842600000000019
0
LWPOLYLINE
5
101
100
AcDbEntity
8
0
100
AcDbPolyline
90
14
70
1
43
0.0
10
60.416899999999998
20
-98.401500000000013
10
59.947600000000001
20
-101.36499999999999
10
59.923600000000008
20
-101.404
10
59.878999999999998
20
-101.41400000000002
10
56.520800000000008
20
-100.88300000000001
10
56.481700000000004
20
-100.85900000000001
10
56.471000000000011
20
-100.81400000000001
10
56.471000000000011
20
-100.81400000000001
10
56.940300000000008
20
-97.850800000000007
10
56.956100000000006
20
-97.824900000000014
10
56.964300000000001
20
-97.811700000000016
10
57.008900000000004
20
-97.800900000000013
10
60.367100000000001
20
-98.33280000000002
10
60.406200000000005
20
-98.356800000000021
0
LWPOLYLINE
5
102
100
AcDbEntity
8
0
100
AcDbPolyline
90
12
70
1
43
0.0
10
98.392400000000009
20
-104.56200000000003
10
98.430300000000003
20
-104.58799999999999
10
98.438599999999994
20
-104.63300000000001
10
97.814899999999994
20
-107.56700000000002
10
97.788900000000012
20
-107.605
10
97.743700000000018
20
-107.614
10
94.417999999999992
20
-106.90700000000001
10
94.380200000000002
20
-106.881
10
94.371799999999993
20
-106.83500000000001
10
94.99560000000001
20
-103.90100000000002
10
95.021600000000021
20
-103.863
10
95.066699999999997
20
-103.855
0
LWPOLYLINE
5
103
100
AcDbEntity
8
0
100
AcDbPolyline
90
4
70
1
43
0.0
10
49.026300000000006
20
-107.38500000000002
10
46.18180000000001
20
-106.935
10
45.668700000000008
20
-110.17400000000001
10
48.513200000000005
20
-110.625
0
LWPOLYLINE
5
104
100
AcDbEntity
8
0
100
AcDbPolyline
90
12
70
1
43
0.0
10
80.100200000000001
20
-98.994399999999999
10
76.774500000000003
20
-98.287499999999994
10
76.736699999999999
20
-98.261400000000009
10
76.728300000000019
20
-98.216300000000004
10
77.352000000000004
20
-95.281900000000007
10
77.378
20
-95.244
10
77.423199999999994
20
-95.235600000000019
10
80.74890000000002
20
-95.94250000000001
10
80.78670000000001
20
-95.96850000000002
10
80.795100000000005
20
-96.013700000000014
10
80.171400000000006
20
-98.948099999999997
10
80.145399999999995
20
-98.986000000000018
0
LWPOLYLINE
5
105
100
AcDbEntity
8
0
100
AcDbPolyline
90
13
70
1
43
0.0
10
194.87099999999998
20
-105.49500000000002
10
194.86500000000004
20
-105.541
10
194.828
20
-105.56800000000001
10
191.52900000000002
20
-106.39000000000001
10
191.48300000000003
20
-106.38400000000001
10
191.45599999999999
20
-106.34700000000002
10
191.45599999999999
20
-106.34700000000002
10
190.73000000000002
20
-103.43600000000002
10
190.73699999999999
20
-103.39
10
190.774
20
-103.36300000000001
10
194.07299999999998
20
-102.54100000000001
10
194.11799999999999
20
-102.54700000000001
10
194.14600000000002
20
-102.58400000000002
0
LWPOLYLINE
5
106
100
AcDbEntity
8
0
100
AcDbPolyline
90
4
70
1
43
0.0
10
39.819299999999998
20
-103.04500000000002
10
40.170299999999997
20
-100.18700000000003
10
36.914700000000011
20
-99.786900000000003
10
36.563800000000001
20
-102.645
0
LWPOLYLINE
5
107
100
AcDbEntity
8
0
100
AcDbPolyline
90
12
70
1
43
0.0
10
167.637
20
-89.560299999999998
10
167.64400000000001
20
-89.514899999999997
10
167.68100000000001
20
-89.487500000000011
10
170.97999999999999
20
-88.665000000000006
10
171.02599999999998
20
-88.671800000000019
10
171.053
20
-88.708699999999993
10
171.77900000000005
20
-91.619600000000005
10
171.77200000000002
20
-91.665000000000006
10
171.73500000000001
20
-91.692300000000003
10
168.43599999999998
20
-92.514900000000011
10
168.38999999999999
20
-92.508099999999999
10
168.363
20
-92.47120000000001
0
LWPOLYLINE
5
108
100
AcDbEntity
8
0
100
AcDbPolyline
90
12
70
1
43
0.0
10
36.4373
20
-102.69
10
36.802900000000001
20
-99.712700000000012
10
36.825600000000009
20
-99.672700000000006
10
36.869799999999998
20
-99.660500000000013
10
40.244500000000009
20
-100.075
10
40.284399999999998
20
-100.09700000000002
10
40.296700000000001
20
-100.14200000000002
10
39.931100000000001
20
-103.11900000000001
10
39.908500000000004
20
-103.15899999999999
10
39.864199999999997
20
-103.17200000000001
10
36.48960000000001
20
-102.75700000000001
10
36.449599999999997
20
-102.735
0
LWPOLYLINE
5
109
100
AcDbEntity
8
0
100
AcDbPolyline
90
16
70
1
43
0.0
10
42.627699999999997
20
-83.584000000000017
10
42.627699999999997
20
-83.584000000000017
10
42.651700000000005
20
-83.544899999999998
10
42.651700000000005
20
-83.544899999999998
10
43.121000000000002
20
-80.581800000000001
10
43.121000000000002
20
-80.581800000000001
10
43.110300000000009
20
-80.537100000000009
10
43.071100000000008
20
-80.513099999999994
10
39.713000000000001
20
-79.981300000000005
10
39.668300000000002
20
-79.992000000000004
10
39.660200000000003
20
-80.005300000000005
10
39.644300000000001
20
-80.031099999999995
10
39.174999999999997
20
-82.994200000000006
10
39.185699999999997
20
-83.038900000000012
10
39.224899999999998
20
-83.062900000000013
10
42.582999999999998
20
-83.594700000000003
0
LWPOLYLINE
5
110
100
AcDbEntity
8
0
100
AcDbPolyline
90
12
70
1
43
0.0
10
120.98700000000001
20
-89.8887
10
121.02500000000001
20
-89.914699999999996
10
121.03299999999999
20
-89.959900000000005
10
120.40900000000001
20
-92.894300000000015
10
120.383
20
-92.932100000000005
10
120.33799999999999
20
-92.9405
10
117.012
20
-92.233599999999996
10
116.97499999999999
20
-92.207599999999999
10
116.96600000000002
20
-92.162400000000005
10
117.59
20
-89.228000000000009
10
117.61600000000001
20
-89.190200000000019
10
117.66100000000002
20
-89.181799999999996
0
LWPOLYLINE
5
111
100
AcDbEntity
8
0
100
AcDbPolyline
90
4
70
1
43
0.0
10
143.28700000000001
20
-137.83700000000005
10
146.16700000000003
20
-137.83700000000005
10
146.16700000000003
20
-134.55700000000002
10
143.28700000000001
20
-134.55700000000002
0
LWPOLYLINE
5
112
100
AcDbEntity
8
0
100
AcDbPolyline
90
12
70
1
43
0.0
10
212.16000000000003
20
-96.338200000000001
10
208.86099999999999
20
-97.16070000000002
10
208.81500000000003
20
-97.154000000000011
10
208.78799999999998
20
-97.117000000000004
10
208.06200000000004
20
-94.206199999999995
10
208.06900000000002
20
-94.16070000000002
10
208.10599999999999
20
-94.133399999999995
10
211.40500000000003
20
-93.310900000000018
10
211.44999999999999
20
-93.317700000000002
10
211.47800000000001
20
-93.354600000000005
10
212.20300000000003
20
-96.265500000000017
10
212.19700000000003
20
-96.310900000000004
0
LWPOLYLINE
5
113
100
AcDbEntity
8
0
100
AcDbPolyline
90
4
70
1
43
0.0
10
42.542499999999997
20
-83.466800000000006
10
42.993099999999998
20
-80.622299999999996
10
39.753500000000003
20
-80.109200000000001
10
39.302900000000001
20
-82.953699999999998
0
LWPOLYLINE
5
114
100
AcDbEntity
8
0
100
AcDbPolyline
90
12
70
1
43
0.0
10
109.04299999999999
20
-129.417
10
109.666
20
-126.48299999999999
10
109.69200000000001
20
-126.44500000000001
10
109.73700000000001
20
-126.43600000000001
10
113.063
20
-127.143
10
113.101
20
-127.16900000000001
10
113.10900000000001
20
-127.215
10
112.48600000000002
20
-130.149
10
112.46000000000001
20
-130.18700000000001
10
112.414
20
-130.19499999999999
10
109.08900000000001
20
-129.488
10
109.05100000000002
20
-129.46200000000002
0
LWPOLYLINE
5
115
100
AcDbEntity
8
0
100
AcDbPolyline
90
13
70
1
43
0.0
10
239.77100000000002
20
-102.059
10
239.78099999999998
20
-102.014
10
239.81900000000002
20
-101.989
10
242.76400000000001
20
-101.416
10
242.80900000000003
20
-101.425
10
242.834
20
-101.464
10
243.483
20
-104.801
10
243.47400000000005
20
-104.846
10
243.43500000000003
20
-104.87100000000001
10
243.43500000000003
20
-104.87100000000001
10
240.49000000000004
20
-105.44400000000002
10
240.44499999999999
20
-105.43500000000002
10
240.42000000000002
20
-105.396
0
LWPOLYLINE
5
116
100
AcDbEntity
8
0
100
AcDbPolyline
90
4
70
1
43
0.0
10
56.598900000000008
20
-100.77300000000001
10
59.838500000000003
20
-101.286
10
60.289000000000001
20
-98.442000000000007
10
57.049400000000006
20
-97.928899999999999
0
LWPOLYLINE
5
117
100
AcDbEntity
8
0
100
AcDbPolyline
90
12
70
1
43
0.0
10
131.774
20
-131.12299999999999
10
131.78200000000001
20
-131.16800000000001
10
131.15899999999999
20
-134.10300000000001
10
131.13299999999998
20
-134.14099999999999
10
131.08799999999999
20
-134.149
10
127.76200000000001
20
-133.44200000000001
10
127.72399999999999
20
-133.416
10
127.71600000000001
20
-133.37100000000001
10
128.339
20
-130.43700000000001
10
128.36500000000001
20
-130.399
10
128.411
20
-130.38999999999999
10
131.73599999999999
20
-131.09700000000001
0
LWPOLYLINE
5
118
100
AcDbEntity
8
0
100
AcDbPolyline
90
4
70
1
43
0.0
10
93.749400000000009
20
-126.117
10
94.348200000000006
20
-123.3
10
91.139799999999994
20
-122.61800000000001
10
90.5411
20
-125.43500000000002
0
LWPOLYLINE
5
119
100
AcDbEntity
8
0
100
AcDbPolyline
90
13
70
1
43
0.0
10
158.28399999999999
20
-131.18100000000001
10
158.291
20
-131.13499999999999
10
158.328
20
-131.108
10
161.62700000000001
20
-130.286
10
161.673
20
-130.292
10
161.69999999999999
20
-130.32900000000001
10
162.42600000000004
20
-133.24000000000001
10
162.42600000000004
20
-133.24000000000001
10
162.41899999999998
20
-133.286
10
162.38200000000003
20
-133.31299999999999
10
159.083
20
-134.13499999999999
10
159.03799999999998
20
-134.12900000000002
10
159.00999999999999
20
-134.09200000000001
0
LWPOLYLINE
5
120
100
AcDbEntity
8
0
100
AcDbPolyline
90
1
70
1
43
0.0
10
232.23100000000002
20
-95.787400000000019
0
LWPOLYLINE
5
121
100
AcDbEntity
8
0
100
AcDbPolyline
90
13
70
1
43
0.0
10
83.346000000000004
20
-123.76000000000002
10
83.346000000000004
20
-123.76000000000002
10
83.354300000000009
20
-123.80500000000001
10
83.392200000000003
20
-123.831
10
86.326599999999999
20
-124.45500000000001
10
86.371799999999993
20
-124.447
10
86.397800000000004
20
-124.40899999999999
10
87.104699999999994
20
-121.083
10
87.096300000000014
20
-121.038
10
87.058499999999995
20
-121.012
10
84.123999999999995
20
-120.38800000000001
10
84.078900000000004
20
-120.39700000000002
10
84.052899999999994
20
-120.434
0
LWPOLYLINE
5
122
100
AcDbEntity
8
0
100
AcDbPolyline
90
13
70
1
43
0.0
10
251.74800000000002
20
-93.763199999999998
10
251.79300000000001
20
-93.773899999999998
10
251.81700000000004
20
-93.812999999999988
10
252.286
20
-96.776100000000014
10
252.286
20
-96.776100000000014
10
252.27599999999998
20
-96.820800000000006
10
252.23700000000002
20
-96.844800000000006
10
248.87799999999999
20
-97.376599999999996
10
248.834
20
-97.365899999999996
10
248.81
20
-97.32680000000002
10
248.34000000000003
20
-94.363699999999994
10
248.351
20
-94.319000000000003
10
248.38999999999999
20
-94.295000000000016
0
LWPOLYLINE
5
123
100
AcDbEntity
8
0
100
AcDbPolyline
90
12
70
1
43
0.0
10
102.39100000000001
20
-85.953999999999994
10
102.399
20
-85.999099999999999
10
101.77600000000001
20
-88.933599999999998
10
101.75
20
-88.971400000000003
10
101.70400000000001
20
-88.979800000000012
10
98.378799999999998
20
-88.272900000000021
10
98.340900000000019
20
-88.246900000000011
10
98.332600000000014
20
-88.201700000000017
10
98.956299999999999
20
-85.267300000000006
10
98.982299999999995
20
-85.229399999999998
10
99.027500000000003
20
-85.221100000000007
10
102.35300000000001
20
-85.927999999999997
0
LWPOLYLINE
5
124
100
AcDbEntity
8
0
100
AcDbPolyline
90
4
70
1
43
0.0
10
186.94900000000001
20
-87.775300000000001
10
190.13200000000001
20
-86.981800000000007
10
189.435
20
-84.187299999999993
10
186.25200000000004
20
-84.98090000000002
0
LWPOLYLINE
5
125
100
AcDbEntity
8
0
100
AcDbPolyline
90
12
70
1
43
0.0
10
195.30500000000004
20
-121.93300000000001
10
195.31200000000001
20
-121.88800000000001
10
195.34900000000005
20
-121.86
10
198.64800000000002
20
-121.038
10
198.69400000000002
20
-121.04500000000002
10
198.721
20
-121.08200000000002
10
199.447
20
-123.99299999999999
10
199.44000000000003
20
-124.03800000000001
10
199.40300000000002
20
-124.06500000000001
10
196.10400000000001
20
-124.88799999999999
10
196.05900000000005
20
-124.88100000000001
10
196.03099999999998
20
-124.84400000000001
0
LWPOLYLINE
5
126
100
AcDbEntity
8
0
100
AcDbPolyline
90
12
70
1
43
0.0
10
113.01400000000001
20
-110.84100000000001
10
113.00600000000001
20
-110.79600000000001
10
113.62899999999999
20
-107.86200000000001
10
113.655
20
-107.82400000000001
10
113.70000000000002
20
-107.816
10
117.02600000000002
20
-108.52200000000002
10
117.06400000000001
20
-108.54799999999999
10
117.072
20
-108.59400000000001
10
116.449
20
-111.52799999999999
10
116.42299999999999
20
-111.566
10
116.37700000000002
20
-111.57400000000001
10
113.05200000000001
20
-110.867
0
LWPOLYLINE
5
127
100
AcDbEntity
8
0
100
AcDbPolyline
90
4
70
1
43
0.0
10
80.066500000000005
20
-98.864500000000021
10
80.665300000000002
20
-96.047399999999996
10
77.456900000000005
20
-95.365499999999997
10
76.858199999999997
20
-98.182600000000008
0
LWPOLYLINE
5
128
100
AcDbEntity
8
0
100
AcDbPolyline
90
4
70
1
43
0.0
10
127.846
20
-133.33700000000002
10
131.054
20
-134.01900000000001
10
131.65299999999999
20
-131.202
10
128.44400000000002
20
-130.52000000000001
0
LWPOLYLINE
5
129
100
AcDbEntity
8
0
100
AcDbPolyline
90
12
70
1
43
0.0
10
176.833
20
-126.47399999999999
10
176.87
20
-126.447
10
180.16900000000004
20
-125.624
10
180.215
20
-125.631
10
180.24200000000005
20
-125.66800000000001
10
180.96799999999999
20
-128.57900000000001
10
180.96100000000001
20
-128.62400000000002
10
180.92400000000001
20
-128.65100000000001
10
177.625
20
-129.47399999999999
10
177.58000000000004
20
-129.46700000000001
10
177.55200000000002
20
-129.43000000000001
10
176.827
20
-126.51899999999999
0
LWPOLYLINE
5
130
100
AcDbEntity
8
0
100
AcDbPolyline
90
4
70
1
43
0.0
10
116.943
20
-108.62700000000002
10
113.73400000000001
20
-107.94499999999999
10
113.13500000000002
20
-110.762
10
116.34399999999999
20
-111.44400000000002
0
LWPOLYLINE
5
131
100
AcDbEntity
8
0
100
AcDbPolyline
90
12
70
1
43
0.0
10
80.697400000000016
20
-79.627700000000004
10
80.688999999999993
20
-79.582599999999999
10
81.31280000000001
20
-76.648099999999999
10
81.33880000000002
20
-76.610299999999995
10
81.383899999999997
20
-76.601900000000001
10
84.709599999999995
20
-77.308800000000005
10
84.747500000000002
20
-77.334800000000001
10
84.755799999999994
20
-77.379999999999995
10
84.132099999999994
20
-80.31440000000002
10
84.106099999999998
20
-80.3523
10
84.060900000000004
20
-80.360600000000005
10
80.735200000000006
20
-79.653700000000001
0
LWPOLYLINE
5
132
100
AcDbEntity
8
0
100
AcDbPolyline
90
4
70
1
43
0.0
10
180.83700000000005
20
-128.55000000000001
10
180.13999999999999
20
-125.755
10
176.95800000000003
20
-126.54899999999999
10
177.65400000000002
20
-129.34300000000002
0
LWPOLYLINE
5
133
100
AcDbEntity
8
0
100
AcDbPolyline
90
12
70
1
43
0.0
10
146.56700000000001
20
-101.67400000000001
10
146.584
20
-101.71600000000001
10
146.584
20
-104.71600000000002
10
146.56700000000001
20
-104.758
10
146.524
20
-104.77600000000002
10
143.124
20
-104.77600000000002
10
143.08199999999999
20
-104.758
10
143.06399999999999
20
-104.71600000000002
10
143.06399999999999
20
-101.71600000000001
10
143.08199999999999
20
-101.67400000000001
10
143.124
20
-101.65600000000001
10
146.524
20
-101.65600000000001
0
LWPOLYLINE
5
134
100
AcDbEntity
8
0
100
AcDbPolyline
90
4
70
1
43
0.0
10
206.30600000000001
20
-122.012
10
205.512
20
-118.82899999999999
10
202.71799999999999
20
-119.52600000000002
10
203.51200000000003
20
-122.709
0
LWPOLYLINE
5
135
100
AcDbEntity
8
0
100
AcDbPolyline
90
12
70
1
43
0.0
10
38.748199999999997
20
-76.280100000000004
10
38.382599999999996
20
-79.257800000000003
10
38.35990000000001
20
-79.29770000000002
10
38.3157
20
-79.310000000000002
10
34.941000000000003
20
-78.895600000000002
10
34.9011
20
-78.873000000000005
10
34.888800000000003
20
-78.828800000000001
10
35.254399999999997
20
-75.851100000000002
10
35.277000000000001
20
-75.811199999999999
10
35.321300000000008
20
-75.798900000000003
10
38.695900000000009
20
-76.213300000000004
10
38.735900000000001
20
-76.235900000000001
0
LWPOLYLINE
5
136
100
AcDbEntity
8
0
100
AcDbPolyline
90
13
70
1
43
0.0
10
91.106099999999998
20
-122.48800000000001
10
94.431799999999996
20
-123.19499999999999
10
94.469600000000014
20
-123.221
10
94.477999999999994
20
-123.26600000000001
10
93.854299999999995
20
-126.20100000000001
10
93.828299999999999
20
-126.23800000000001
10
93.783100000000005
20
-126.24700000000003
10
90.457400000000007
20
-125.54000000000002
10
90.419600000000017
20
-125.51400000000001
10
90.411199999999994
20
-125.46900000000001
10
90.411199999999994
20
-125.46900000000001
10
91.034899999999993
20
-122.53399999999999
10
91.060900000000004
20
-122.49600000000001
0
LWPOLYLINE
5
137
100
AcDbEntity
8
0
100
AcDbPolyline
90
12
70
1
43
0.0
10
172.24599999999998
20
-108.04400000000001
10
172.25300000000001
20
-107.99900000000001
10
172.28999999999999
20
-107.97200000000002
10
175.58900000000006
20
-107.149
10
175.63400000000001
20
-107.15600000000002
10
175.661
20
-107.19300000000001
10
176.387
20
-110.10400000000001
10
176.38000000000002
20
-110.149
10
176.34299999999999
20
-110.17600000000002
10
173.04400000000001
20
-110.999
10
172.99900000000005
20
-110.99200000000002
10
172.97200000000001
20
-110.95500000000001
0
LWPOLYLINE
5
138
100
AcDbEntity
8
0
100
AcDbPolyline
90
4
70
1
43
0.0
10
86.292900000000003
20
-124.32500000000002
10
86.974800000000002
20
-121.117
10
84.157799999999995
20
-120.518
10
83.475800000000007
20
-123.726
0
LWPOLYLINE
5
139
100
AcDbEntity
8
0
100
AcDbPolyline
90
4
70
1
43
0.0
10
170.95099999999999
20
-88.796000000000021
10
167.76800000000003
20
-89.589500000000001
10
168.46500000000003
20
-92.383900000000011
10
171.648
20
-91.590400000000017
0
LWPOLYLINE
5
140
100
AcDbEntity
8
0
100
AcDbPolyline
90
13
70
1
43
0.0
10
205.54200000000003
20
-118.69799999999999
10
205.58700000000002
20
-118.705
10
205.61400000000003
20
-118.74200000000002
10
206.43700000000001
20
-122.041
10
206.43000000000001
20
-122.087
10
206.39300000000003
20
-122.11399999999999
10
203.48200000000003
20
-122.84
10
203.43700000000001
20
-122.833
10
203.43700000000001
20
-122.833
10
203.41000000000003
20
-122.79600000000002
10
202.58700000000005
20
-119.49700000000001
10
202.59400000000002
20
-119.45100000000002
10
202.63099999999997
20
-119.42399999999999
0
LWPOLYLINE
5
141
100
AcDbEntity
8
0
100
AcDbPolyline
90
13
70
1
43
0.0
10
45.540799999999997
20
-110.21500000000002
10
46.072699999999998
20
-106.85700000000003
10
46.096700000000006
20
-106.81700000000001
10
46.141300000000001
20
-106.80700000000002
10
49.104400000000005
20
-107.27600000000002
10
49.104400000000005
20
-107.27600000000002
10
49.143500000000003
20
-107.30000000000001
10
49.15420000000001
20
-107.345
10
48.622399999999999
20
-110.703
10
48.598399999999998
20
-110.74200000000002
10
48.553700000000006
20
-110.75299999999999
10
45.590699999999998
20
-110.283
10
45.551500000000004
20
-110.259
0
LWPOLYLINE
5
142
100
AcDbEntity
8
0
100
AcDbPolyline
90
1
70
1
43
0.0
10
46.141300000000001
20
-106.80700000000002
0
LWPOLYLINE
5
143
100
AcDbEntity
8
0
100
AcDbPolyline
90
4
70
1
43
0.0
10
173.07400000000001
20
-110.86799999999999
10
176.25599999999997
20
-110.075
10
175.56
20
-107.28000000000002
10
172.37700000000001
20
-108.07400000000001
0
LWPOLYLINE
5
144
100
AcDbEntity
8
0
100
AcDbPolyline
90
12
70
1
43
0.0
10
146.27000000000004
20
-134.45500000000004
10
146.28700000000003
20
-134.49700000000001
10
146.28700000000003
20
-137.89700000000005
10
146.27000000000004
20
-137.94
10
146.22700000000003
20
-137.95699999999999
10
143.227
20
-137.95699999999999
10
143.185
20
-137.94
10
143.167
20
-137.89700000000005
10
143.167
20
-134.49700000000001
10
143.185
20
-134.45500000000004
10
143.227
20
-134.43700000000001
10
146.22700000000003
20
-134.43700000000001
0
LWPOLYLINE
5
145
100
AcDbEntity
8
0
100
AcDbPolyline
90
4
70
1
43
0.0
10
95.100499999999997
20
-103.985
10
94.5017
20
-106.80200000000001
10
97.710000000000008
20
-107.48400000000001
10
98.308800000000005
20
-104.66700000000002
0
LWPOLYLINE
5
146
100
AcDbEntity
8
0
100
AcDbPolyline
90
4
70
1
43
0.0
10
243.35400000000004
20
-104.76500000000001
10
242.72800000000001
20
-101.545
10
239.90099999999998
20
-102.095
10
240.52599999999998
20
-105.31500000000001
0
LWPOLYLINE
5
147
100
AcDbEntity
8
0
100
AcDbPolyline
90
4
70
1
43
0.0
10
232.102
20
-95.751400000000018
10
231.55200000000005
20
-92.924400000000006
10
228.33300000000003
20
-93.550200000000018
10
228.88200000000001
20
-96.37730000000002
0
LWPOLYLINE
5
148
100
AcDbEntity
8
0
100
AcDbPolyline
90
1
70
1
43
0.0
10
45.540799999999997
20
-110.21500000000002
0
LWPOLYLINE
5
149
100
AcDbEntity
8
0
100
AcDbPolyline
90
14
70
1
43
0.0
10
62.903700000000001
20
-82.588200000000001
10
62.859100000000005
20
-82.5989
10
59.500900000000001
20
-82.067099999999996
10
59.461799999999997
20
-82.043099999999995
10
59.451000000000001
20
-81.998400000000004
10
59.920400000000001
20
-79.035399999999996
10
59.936199999999999
20
-79.009500000000003
10
59.944300000000005
20
-78.996200000000002
10
59.988999999999997
20
-78.985500000000002
10
63.347100000000005
20
-79.517399999999995
10
63.386300000000006
20
-79.541399999999996
10
63.397000000000006
20
-79.586000000000013
10
63.397000000000006
20
-79.586000000000013
10
62.927700000000009
20
-82.54910000000001
0
LWPOLYLINE
5
150
100
AcDbEntity
8
0
100
AcDbPolyline
90
12
70
1
43
0.0
10
190.21900000000002
20
-87.083700000000007
10
186.92000000000002
20
-87.906300000000002
10
186.875
20
-87.899500000000018
10
186.84700000000004
20
-87.8626
10
186.12200000000001
20
-84.951700000000002
10
186.12799999999999
20
-84.906199999999998
10
186.16499999999999
20
-84.878900000000002
10
189.46400000000006
20
-84.056399999999996
10
189.50999999999999
20
-84.063199999999995
10
189.53700000000001
20
-84.100099999999998
10
190.26300000000003
20
-87.011000000000024
10
190.25599999999997
20
-87.056400000000011
0
LWPOLYLINE
5
151
100
AcDbEntity
8
0
100
AcDbPolyline
90
4
70
1
43
0.0
10
195.43599999999998
20
-121.96200000000002
10
196.13299999999998
20
-124.75700000000002
10
199.316
20
-123.96299999999999
10
198.61900000000006
20
-121.16900000000001
0
LWPOLYLINE
5
152
100
AcDbEntity
8
0
100
AcDbPolyline
90
4
70
1
43
0.0
10
99.061200000000014
20
-85.350899999999996
10
98.462400000000017
20
-88.167999999999992
10
101.67100000000002
20
-88.849900000000005
10
102.27000000000001
20
-86.032899999999998
0
LWPOLYLINE
5
153
100
AcDbEntity
8
0
100
AcDbPolyline
90
2
70
1
43
0.0
10
231.58799999999999
20
-92.795100000000005
10
231.58799999999999
20
-92.795100000000005
0
LWPOLYLINE
5
154
100
AcDbEntity
8
0
100
AcDbPolyline
90
4
70
1
43
0.0
10
80.818899999999999
20
-79.5488
10
84.027200000000008
20
-80.230800000000002
10
84.626000000000005
20
-77.413700000000006
10
81.417699999999996
20
-76.731800000000007
0
LWPOLYLINE
5
155
100
AcDbEntity
8
0
100
AcDbPolyline
90
1
70
1
43
0.0
10
59.923600000000008
20
-101.404
0
LWPOLYLINE
5
156
100
AcDbEntity
8
0
100
AcDbPolyline
90
4
70
1
43
0.0
10
190.86099999999999
20
-103.465
10
191.55799999999999
20
-106.25900000000001
10
194.74000000000004
20
-105.46600000000001
10
194.04400000000004
20
-102.67100000000001
0
LWPOLYLINE
5
157
100
AcDbEntity
8
0
100
AcDbPolyline
90
4
70
1
43
0.0
10
248.46800000000002
20
-94.404200000000017
10
248.91900000000004
20
-97.248700000000014
10
252.15900000000005
20
-96.735600000000019
10
251.708
20
-93.891100000000009
0
LWPOLYLINE
5
158
100
AcDbEntity
8
0
100
AcDbPolyline
90
1
70
1
43
0.0
10
59.947600000000001
20
-101.36499999999999
0
LWPOLYLINE
5
159
100
AcDbEntity
8
0
100
AcDbPolyline
90
4
70
1
43
0.0
10
212.072
20
-96.2363
10
211.37599999999998
20
-93.441800000000001
10
208.19299999999998
20
-94.235299999999995
10
208.88999999999999
20
-97.029799999999994
0
LWPOLYLINE
5
160
100
AcDbEntity
8
0
100
AcDbPolyline
90
1
70
1
43
0.0
10
196.03099999999998
20
-124.84400000000001
0
LWPOLYLINE
5
161
100
AcDbEntity
8
0
100
AcDbPolyline
90
4
70
1
43
0.0
10
60.029499999999999
20
-79.113399999999999
10
59.578999999999994
20
-81.957900000000009
10
62.818600000000011
20
-82.471000000000018
10
63.269100000000009
20
-79.626499999999993
0
LWPOLYLINE
5
162
100
AcDbEntity
8
0
100
AcDbPolyline
90
4
70
1
43
0.0
10
159.11200000000002
20
-134.00399999999999
10
162.29499999999999
20
-133.21100000000001
10
161.59800000000001
20
-130.417
10
158.41499999999999
20
-131.21000000000004
0
LWPOLYLINE
5
163
100
AcDbEntity
8
0
100
AcDbPolyline
90
1
70
1
43
0.0
10
59.451000000000001
20
-81.998400000000004
0
LWPOLYLINE
5
164
100
AcDbEntity
8
0
100
AcDbPolyline
90
4
70
1
43
0.0
10
109.771
20
-126.566
10
109.17200000000001
20
-129.38299999999998
10
112.38100000000001
20
-130.065
10
112.979
20
-127.248
0
LWPOLYLINE
5
165
100
AcDbEntity
8
0
100
AcDbPolyline
90
1
70
1
43
0.0
10
251.81700000000004
20
-93.812999999999988
0
LWPOLYLINE
5
166
100
AcDbEntity
8
0
100
AcDbPolyline
90
1
70
1
43
0.0
10
194.87099999999998
20
-105.49500000000002
0
LWPOLYLINE
5
167
100
AcDbEntity
8
0
100
AcDbPolyline
90
4
70
1
43
0.0
10
117.09600000000002
20
-92.128700000000009
10
120.304
20
-92.810699999999997
10
120.90299999999999
20
-89.993600000000015
10
117.69500000000001
20
-89.311599999999999
0
LWPOLYLINE
5
168
100
AcDbEntity
8
0
100
AcDbPolyline
90
1
70
1
43
0.0
10
60.416899999999998
20
-98.401500000000013
0
LWPOLYLINE
5
169
100
AcDbEntity
8
0
100
AcDbPolyline
90
4
70
1
43
0.0
10
146.464
20
-101.77600000000001
10
143.184
20
-101.77600000000001
10
143.184
20
-104.65600000000002
10
146.464
20
-104.65600000000002
0
LWPOLYLINE
5
170
100
AcDbEntity
8
0
100
AcDbPolyline
90
1
70
1
43
0.0
10
62.927700000000009
20
-82.54910000000001
0
LWPOLYLINE
5
171
100
AcDbEntity
8
0
100
AcDbPolyline
90
1
70
1
43
0.0
10
109.04299999999999
20
-129.417
0
LWPOLYLINE
5
172
100
AcDbEntity
8
0
100
AcDbPolyline
90
1
70
1
43
0.0
10
186.84700000000004
20
-87.8626
0
LWPOLYLINE
5
173
100
AcDbEntity
8
0
100
AcDbPolyline
90
1
70
1
43
0.0
10
113.00600000000001
20
-110.79600000000001
0
LWPOLYLINE
5
174
100
AcDbEntity
8
0
100
AcDbPolyline
90
1
70
1
43
0.0
10
62.903700000000001
20
-82.588200000000001
0
LWPOLYLINE
5
175
100
AcDbEntity
8
0
100
AcDbPolyline
90
1
70
1
43
0.0
10
243.43500000000003
20
-104.87100000000001
0
LWPOLYLINE
5
176
100
AcDbEntity
8
0
100
AcDbPolyline
90
13
70
1
43
0.0
10
163.029
20
-71.076099999999997
10
163.036
20
-71.030699999999996
10
163.072
20
-71.003399999999999
10
166.37100000000001
20
-70.180899999999994
10
166.417
20
-70.187700000000007
10
166.44400000000002
20
-70.224599999999995
10
167.16999999999999
20
-73.135499999999993
10
167.16999999999999
20
-73.135499999999993
10
167.16300000000001
20
-73.180899999999994
10
167.12599999999998
20
-73.208200000000005
10
163.827
20
-74.030699999999996
10
163.78200000000004
20
-74.023899999999998
10
163.755
20
-73.986999999999995
0
LWPOLYLINE
5
177
100
AcDbEntity
8
0
100
AcDbPolyline
90
12
70
1
43
0.0
10
121.62200000000001
20
-70.548100000000005
10
124.94799999999999
20
-71.254999999999995
10
124.985
20
-71.281000000000006
10
124.99400000000001
20
-71.326099999999997
10
124.37
20
-74.260599999999997
10
124.34399999999999
20
-74.298400000000001
10
124.29900000000001
20
-74.306799999999996
10
120.97300000000001
20
-73.599900000000005
10
120.935
20
-73.573899999999995
10
120.92700000000001
20
-73.528700000000001
10
121.55100000000002
20
-70.594300000000004
10
121.57700000000003
20
-70.556399999999996
0
LWPOLYLINE
5
178
100
AcDbEntity
8
0
100
AcDbPolyline
90
13
70
1
43
0.0
10
112.25200000000001
20
-69.638099999999994
10
115.18700000000003
20
-70.261899999999997
10
115.22399999999999
20
-70.287899999999993
10
115.23299999999999
20
-70.332999999999998
10
114.52600000000002
20
-73.658699999999996
10
114.50000000000001
20
-73.696600000000004
10
114.45500000000001
20
-73.704999999999998
10
111.52000000000001
20
-73.081199999999995
10
111.48200000000003
20
-73.055199999999999
10
111.47399999999999
20
-73.010099999999994
10
111.47399999999999
20
-73.010099999999994
10
112.181
20
-69.684399999999997
10
112.20700000000001
20
-69.646500000000003
0
LWPOLYLINE
5
179
100
AcDbEntity
8
0
100
AcDbPolyline
90
12
70
1
43
0.0
10
142.98500000000001
20
-74.180800000000005
10
143.02700000000002
20
-74.163200000000003
10
146.42700000000002
20
-74.163200000000003
10
146.47
20
-74.180800000000005
10
146.48699999999999
20
-74.223200000000006
10
146.48699999999999
20
-77.223200000000006
10
146.47
20
-77.265600000000006
10
146.42700000000002
20
-77.283199999999994
10
143.02700000000002
20
-77.283199999999994
10
142.98500000000001
20
-77.265600000000006
10
142.96700000000001
20
-77.223200000000006
10
142.96700000000001
20
-74.223200000000006
0
LWPOLYLINE
5
180
100
AcDbEntity
8
0
100
AcDbPolyline
90
13
70
1
43
0.0
10
228.58700000000002
20
-77.132400000000004
10
228.54900000000001
20
-77.157799999999995
10
225.21100000000001
20
-77.8065
10
225.166
20
-77.79740000000001
10
225.14099999999999
20
-77.759100000000004
10
225.14099999999999
20
-77.759100000000004
10
224.56800000000001
20
-74.8142
10
224.57800000000003
20
-74.769199999999998
10
224.61600000000001
20
-74.743899999999996
10
227.953
20
-74.095100000000002
10
227.99800000000002
20
-74.104299999999995
10
228.02400000000003
20
-74.142600000000002
10
228.596
20
-77.087400000000002
0
LWPOLYLINE
5
181
100
AcDbEntity
8
0
100
AcDbPolyline
90
4
70
1
43
0.0
10
146.36700000000002
20
-74.283199999999994
10
143.08700000000002
20
-74.283199999999994
10
143.08700000000002
20
-77.163200000000003
10
146.36700000000002
20
-77.163200000000003
0
LWPOLYLINE
5
182
100
AcDbEntity
8
0
100
AcDbPolyline
90
1
70
1
43
0.0
10
120.92700000000001
20
-73.528700000000001
0
LWPOLYLINE
5
183
100
AcDbEntity
8
0
100
AcDbPolyline
90
12
70
1
43
0.0
10
203.45300000000003
20
-75.721999999999994
10
203.46000000000004
20
-75.676600000000008
10
203.49700000000001
20
-75.649300000000011
10
206.79599999999999
20
-74.826800000000006
10
206.84200000000004
20
-74.833500000000001
10
206.86900000000006
20
-74.870500000000007
10
207.59500000000003
20
-77.781300000000016
10
207.58800000000002
20
-77.826800000000006
10
207.55099999999999
20
-77.854100000000003
10
204.25200000000004
20
-78.676599999999993
10
204.20699999999999
20
-78.669799999999995
10
204.17900000000003
20
-78.632900000000006
0
LWPOLYLINE
5
184
100
AcDbEntity
8
0
100
AcDbPolyline
90
4
70
1
43
0.0
10
163.16
20
-71.1053
10
163.85599999999999
20
-73.899799999999999
10
167.03900000000002
20
-73.106300000000005
10
166.34200000000004
20
-70.311800000000005
0
LWPOLYLINE
5
185
100
AcDbEntity
8
0
100
AcDbPolyline
90
12
70
1
43
0.0
10
245.898
20
-78.561200000000014
10
245.85400000000004
20
-78.5505
10
245.83000000000001
20
-78.511300000000006
10
245.36000000000001
20
-75.548199999999994
10
245.37099999999998
20
-75.503600000000006
10
245.41
20
-75.479600000000005
10
248.76800000000003
20
-74.947699999999998
10
248.81299999999999
20
-74.958399999999997
10
248.83700000000005
20
-74.997600000000006
10
249.30599999999998
20
-77.960599999999999
10
249.29599999999999
20
-78.005300000000005
10
249.256
20
-78.029300000000006
0
LWPOLYLINE
5
186
100
AcDbEntity
8
0
100
AcDbPolyline
90
1
70
1
43
0.0
10
248.83700000000005
20
-74.997600000000006
0
LWPOLYLINE
5
187
100
AcDbEntity
8
0
100
AcDbPolyline
90
4
70
1
43
0.0
10
207.46400000000006
20
-77.752200000000016
10
206.767
20
-74.957700000000003
10
203.58400000000003
20
-75.751199999999997
10
204.28100000000001
20
-78.545699999999997
0
LWPOLYLINE
5
188
100
AcDbEntity
8
0
100
AcDbPolyline
90
12
70
1
43
0.0
10
252.46300000000002
20
-69.862099999999998
10
252.50799999999998
20
-69.872799999999998
10
252.53200000000004
20
-69.911999999999992
10
253.001
20
-72.875
10
252.99099999999999
20
-72.919700000000006
10
252.95100000000002
20
-72.943700000000007
10
249.59299999999999
20
-73.475499999999997
10
249.54900000000004
20
-73.464799999999997
10
249.52500000000001
20
-73.425700000000006
10
249.05500000000004
20
-70.462600000000009
10
249.06599999999997
20
-70.418000000000006
10
249.10499999999999
20
-70.393999999999991
0
LWPOLYLINE
5
189
100
AcDbEntity
8
0
100
AcDbPolyline
90
1
70
1
43
0.0
10
163.755
20
-73.986999999999995
0
LWPOLYLINE
5
190
100
AcDbEntity
8
0
100
AcDbPolyline
90
4
70
1
43
0.0
10
124.864
20
-71.359899999999996
10
121.65600000000001
20
-70.677899999999994
10
121.057
20
-73.495000000000005
10
124.26500000000001
20
-74.176900000000003
0
LWPOLYLINE
5
191
100
AcDbEntity
8
0
100
AcDbPolyline
90
4
70
1
43
0.0
10
111.60400000000001
20
-72.976299999999995
10
114.42100000000002
20
-73.57510000000002
10
115.10300000000001
20
-70.366800000000012
10
112.286
20
-69.768000000000001
0
LWPOLYLINE
5
192
100
AcDbEntity
8
0
100
AcDbPolyline
90
1
70
1
43
0.0
10
252.53200000000004
20
-69.911999999999992
0
LWPOLYLINE
5
193
100
AcDbEntity
8
0
100
AcDbPolyline
90
1
70
1
43
0.0
10
245.83000000000001
20
-78.511300000000006
0
LWPOLYLINE
5
194
100
AcDbEntity
8
0
100
AcDbPolyline
90
1
70
1
43
0.0
10
249.30599999999998
20
-77.960599999999999
0
LWPOLYLINE
5
195
100
AcDbEntity
8
0
100
AcDbPolyline
90
4
70
1
43
0.0
10
249.178
20
-77.920199999999994
10
248.72799999999998
20
-75.075599999999994
10
245.488
20
-75.588700000000003
10
245.93900000000005
20
-78.433300000000003
0
LWPOLYLINE
5
196
100
AcDbEntity
8
0
100
AcDbPolyline
90
2
70
1
43
0.0
10
227.953
20
-74.095100000000002
10
227.953
20
-74.095100000000002
0
LWPOLYLINE
5
197
100
AcDbEntity
8
0
100
AcDbPolyline
90
4
70
1
43
0.0
10
224.69799999999998
20
-74.850200000000001
10
225.24700000000001
20
-77.677300000000002
10
228.46700000000001
20
-77.051400000000001
10
227.91700000000003
20
-74.224400000000003
0
LWPOLYLINE
5
198
100
AcDbEntity
8
0
100
AcDbPolyline
90
1
70
1
43
0.0
10
253.001
20
-72.875
0
LWPOLYLINE
5
199
100
AcDbEntity
8
0
100
AcDbPolyline
90
4
70
1
43
0.0
10
252.423
20
-69.989999999999995
10
249.18300000000002
20
-70.503100000000003
10
249.63400000000004
20
-73.3476
10
252.87300000000002
20
-72.834500000000006
0
LWPOLYLINE
5
200
100
AcDbEntity
8
0
100
AcDbPolyline
90
12
70
1
43
0.0
10
172.577
20
-69.100099999999998
10
172.61400000000003
20
-69.072800000000001
10
175.52500000000003
20
-68.346999999999994
10
175.56999999999999
20
-68.353800000000007
10
175.59700000000004
20
-68.390699999999995
10
176.41999999999999
20
-71.689700000000002
10
176.41299999999998
20
-71.735200000000006
10
176.37599999999998
20
-71.762500000000003
10
173.46500000000003
20
-72.488200000000006
10
173.41999999999999
20
-72.481499999999997
10
173.39300000000003
20
-72.444500000000005
10
172.57000000000002
20
-69.145499999999998
0
LWPOLYLINE
5
201
100
AcDbEntity
8
0
100
AcDbPolyline
90
4
70
1
43
0.0
10
35.0152
20
-78.783799999999999
10
38.270800000000008
20
-79.183599999999998
10
38.621699999999997
20
-76.325000000000003
10
35.366199999999999
20
-75.925299999999993
0
LWPOLYLINE
5
202
100
AcDbEntity
8
0
100
AcDbPolyline
90
58
70
1
43
0.0
10
144.10900000000001
20
-149.63299999999998
10
142.85499999999999
20
-149.56899999999999
10
141.60300000000001
20
-149.471
10
140.35499999999999
20
-149.339
10
139.11000000000001
20
-149.173
10
137.87
20
-148.97299999999998
10
136.637
20
-148.74000000000001
10
136.637
20
-148.74000000000001
10
136.636
20
-148.74000000000001
10
61.438629479649691
20
-132.78075134287272
42
-0.41016944666491395
10
59.50517490605116
20
-129.85006557930754
10
61.87957171877305
20
-117.84742315521065
42
0.47527313503998569
10
59.405631166323914
20
-114.86236012803475
10
31.560460254269636
20
-115.10147460916008
42
-0.44424661476195193
10
29.049762203691834
20
-112.36976751274065
10
34.06324354084164
20
-58.531326287310151
42
-0.29275652869753793
10
35.721702425444413
20
-56.405198856673913
10
97.422945284104031
20
-34.665910321747845
42
-0.057092217869075659
10
97.979812532749946
20
-34.548707719829665
10
156.648
20
-29.875100000000003
10
156.88
20
-29.868400000000005
10
157.11099999999999
20
-29.892700000000005
10
157.33700000000002
20
-29.947700000000005
10
157.55400000000003
20
-30.032300000000003
10
157.75700000000001
20
-30.145099999999999
10
157.94299999999998
20
-30.283899999999999
10
158.11000000000001
20
-30.446400000000004
10
158.25299999999999
20
-30.6297
10
158.37
20
-30.830300000000005
10
158.459
20
-31.044900000000002
10
158.52000000000001
20
-31.269500000000004
10
158.54900000000001
20
-31.498500000000003
10
158.54900000000001
20
-31.498799999999999
10
160.137
20
-45.644400000000005
10
160.137
20
-45.644500000000001
10
160.137
20
-45.644500000000001
10
161.91069455605955
20
-61.648181428846627
42
0.46180886264735493
10
165.06256501588408
20
-63.782147959099717
10
208.80910228106171
20
-51.669932136181444
42
-0.067993444764083713
10
209.4798107825001
20
-51.579291118400604
10
251.4569943967949
20
-51.640138554028205
42
-0.37776861918812388
10
253.93400044165662
20
-53.829531043282309
10
260.3703120125964
20
-105.23280128175355
42
-0.42378703843399634
10
258.11933022596213
20
-108.03283617166755
10
230.00724664632537
20
-110.62615528664813
42
0.44731847994556379
10
227.78857240393535
20
-113.62127070434225
10
230.63717241070071
20
-127.41302909396512
42
-0.40251028995198046
10
228.79233411098227
20
-130.34478272792973
10
154.11000000000001
20
-148.922
10
154.10900000000001
20
-148.92099999999999
10
154.108
20
-148.922
10
152.87
20
-149.12900000000002
10
151.626
20
-149.303
10
150.37900000000002
20
-149.44299999999998
10
149.12799999999999
20
-149.54900000000004
10
147.874
20
-149.62100000000001
10
146.619
20
-149.65899999999999
10
145.364
20
-149.66299999999998
0
LWPOLYLINE
5
203
100
AcDbEntity
8
0
100
AcDbPolyline
90
4
70
1
43
0.0
10
41.661500000000004
20
-63.775599999999997
10
44.896500000000003
20
-64.316900000000004
10
45.3718
20
-61.476399999999998
10
42.136800000000001
20
-60.935000000000002
0
LWPOLYLINE
5
204
100
AcDbEntity
8
0
100
AcDbPolyline
90
54
70
1
43
0.0
10
158.089
20
-30.4922
10
157.91399999999999
20
-30.318500000000004
10
157.715
20
-30.1722
10
157.49700000000001
20
-30.0564
10
157.26400000000001
20
-29.973600000000005
10
157.02200000000002
20
-29.9254
10
156.77500000000003
20
-29.913100000000004
10
156.65200000000002
20
-29.924900000000001
10
98.029888158225617
20
-34.598812769378
42
0.064869573609823289
10
97.397983856039318
20
-34.732916402135615
10
35.768678074666042
20
-56.441742155215152
42
0.2927767734181238
10
34.110044856513831
20
-58.56793274216939
10
29.104689385860478
20
-112.31953332753669
42
0.44424616927721994
10
31.615385690673961
20
-115.0512386409941
10
59.466618285422626
20
-114.81209342419535
42
-0.47527312171855807
10
61.940556574317334
20
-117.79715823821824
10
59.563894986406495
20
-129.81120360727954
42
0.4101697027581519
10
61.49734958873772
20
-132.74189122168974
10
136.64700000000005
20
-148.691
10
137.261
20
-148.816
10
138.49700000000001
20
-149.03200000000001
10
139.738
20
-149.21500000000003
10
140.983
20
-149.363
10
142.232
20
-149.47799999999998
10
143.48400000000001
20
-149.559
10
144.73700000000002
20
-149.60599999999999
10
145.99100000000001
20
-149.619
10
147.24600000000004
20
-149.59799999999998
10
148.499
20
-149.54300000000001
10
149.75
20
-149.45400000000001
10
150.99799999999999
20
-149.33199999999999
10
152.24200000000002
20
-149.17500000000001
10
153.482
20
-148.98500000000001
10
154.09799999999998
20
-148.87299999999999
10
228.73333852110443
20
-130.30774318547742
42
0.40251384842549265
10
230.57818062588507
20
-127.37596585355313
10
227.72793689617237
20
-113.57686492186937
42
-0.44732359339472516
10
229.94662709445618
20
-110.58172598037385
10
258.06310909289465
20
-107.98823377032205
42
0.42378886225540457
10
260.31411193257418
20
-105.18820200795774
10
253.88973507340989
20
-53.879406866818293
42
0.37776959663749415
10
251.41272489807579
20
-51.690009360784245
10
209.48654353703682
20
-51.629294601061034
42
0.067992984409074517
10
208.81583957881685
20
-51.719935335895293
10
165.01884216509853
20
-63.846101829901485
42
-0.46181246723529901
10
161.86696935412655
20
-61.712104409856067
10
160.08700000000002
20
-45.650000000000006
10
158.499
20
-31.5044
10
158.5
20
-31.503800000000002
10
158.499
20
-31.503100000000003
10
158.49200000000002
20
-31.379800000000003
10
158.441
20
-31.138200000000005
10
158.35599999999999
20
-30.906400000000005
10
158.238
20
-30.689600000000002
0
LWPOLYLINE
5
205
100
AcDbEntity
8
0
100
AcDbPolyline
90
4
70
1
43
0.0
10
175.49599999999998
20
-68.478000000000009
10
172.70099999999999
20
-69.174700000000001
10
173.49500000000003
20
-72.357300000000009
10
176.28900000000002
20
-71.660600000000002
0
LWPOLYLINE
5
206
100
AcDbEntity
8
0
100
AcDbPolyline
90
13
70
1
43
0.0
10
85.677199999999999
20
-57.41790000000001
10
85.722399999999993
20
-57.4099
10
89.041799999999995
20
-58.145800000000001
10
89.079400000000021
20
-58.1721
10
89.087400000000002
20
-58.217300000000009
10
88.43810000000002
20
-61.146200000000007
10
88.411699999999996
20
-61.183900000000008
10
88.366500000000002
20
-61.191800000000001
10
88.366500000000002
20
-61.191800000000001
10
85.047100000000015
20
-60.455900000000007
10
85.009500000000017
20
-60.429600000000008
10
85.001499999999993
20
-60.384400000000007
10
85.650800000000004
20
-57.455500000000008
0
LWPOLYLINE
5
207
100
AcDbEntity
8
0
100
AcDbPolyline
90
13
70
1
43
0.0
10
45.004899999999999
20
-64.395899999999997
10
44.98060000000001
20
-64.434799999999996
10
44.935900000000004
20
-64.4452
10
41.58250000000001
20
-63.884
10
41.543500000000002
20
-63.859700000000004
10
41.533200000000001
20
-63.814900000000002
10
41.533200000000001
20
-63.814900000000002
10
42.028400000000005
20
-60.856099999999998
10
42.052700000000002
20
-60.817100000000011
10
42.0974
20
-60.80680000000001
10
45.450800000000001
20
-61.368000000000009
10
45.489800000000002
20
-61.392300000000006
10
45.500100000000003
20
-61.436999999999998
0
LWPOLYLINE
5
208
100
AcDbEntity
8
0
100
AcDbPolyline
90
12
70
1
43
0.0
10
102.917
20
-66.633600000000001
10
102.943
20
-66.595699999999994
10
102.988
20
-66.587400000000002
10
106.31399999999999
20
-67.294300000000007
10
106.352
20
-67.320300000000003
10
106.36000000000001
20
-67.365399999999994
10
105.736
20
-70.299899999999994
10
105.70999999999999
20
-70.337700000000012
10
105.66500000000002
20
-70.346100000000007
10
102.339
20
-69.639200000000002
10
102.30200000000002
20
-69.613200000000006
10
102.29300000000001
20
-69.567999999999998
0
LWPOLYLINE
5
209
100
AcDbEntity
8
0
100
AcDbPolyline
90
13
70
1
43
0.0
10
184.85600000000002
20
-65.572300000000013
10
184.90099999999998
20
-65.579099999999997
10
184.928
20
-65.616
10
185.65400000000005
20
-68.526899999999998
10
185.65400000000005
20
-68.526899999999998
10
185.64700000000002
20
-68.572299999999998
10
185.61000000000004
20
-68.599599999999995
10
182.31099999999998
20
-69.4221
10
182.26600000000002
20
-69.415300000000002
10
182.239
20
-69.378399999999999
10
181.51300000000003
20
-66.467500000000001
10
181.52000000000001
20
-66.4221
10
181.55700000000002
20
-66.394800000000004
0
LWPOLYLINE
5
210
100
AcDbEntity
8
0
100
AcDbPolyline
90
12
70
1
43
0.0
10
63.328500000000005
20
-59.4163
10
66.681799999999996
20
-59.977499999999999
10
66.720799999999997
20
-60.001800000000003
10
66.731099999999998
20
-60.046600000000005
10
66.236000000000004
20
-63.005400000000009
10
66.211600000000004
20
-63.044400000000003
10
66.166899999999998
20
-63.054699999999997
10
62.813499999999998
20
-62.493600000000001
10
62.774600000000007
20
-62.469200000000001
10
62.76420000000001
20
-62.424500000000009
10
63.259399999999999
20
-59.465600000000009
10
63.283700000000003
20
-59.426699999999997
0
LWPOLYLINE
5
211
100
AcDbEntity
8
0
100
AcDbPolyline
90
2
70
1
43
0.0
10
224.31900000000002
20
-55.395099999999999
10
224.31900000000002
20
-55.395099999999999
0
LWPOLYLINE
5
212
100
AcDbEntity
8
0
100
AcDbPolyline
90
14
70
1
43
0.0
10
242.43000000000001
20
-56.664099999999998
10
245.78800000000001
20
-56.132199999999997
10
245.83300000000003
20
-56.143000000000001
10
245.85700000000003
20
-56.182100000000005
10
246.32599999999999
20
-59.145200000000003
10
246.32599999999999
20
-59.145200000000003
10
246.31599999999997
20
-59.189800000000005
10
246.27600000000001
20
-59.213799999999999
10
242.91800000000001
20
-59.745699999999999
10
242.87400000000005
20
-59.735000000000007
10
242.84999999999999
20
-59.695800000000006
10
242.84999999999999
20
-59.695800000000006
10
242.38
20
-56.732799999999997
10
242.39100000000002
20
-56.688100000000006
0
LWPOLYLINE
5
213
100
AcDbEntity
8
0
100
AcDbPolyline
90
4
70
1
43
0.0
10
103.02200000000001
20
-66.717200000000005
10
102.423
20
-69.534300000000002
10
105.631
20
-70.216200000000001
10
106.23000000000002
20
-67.399199999999993
0
LWPOLYLINE
5
214
100
AcDbEntity
8
0
100
AcDbPolyline
90
4
70
1
43
0.0
10
181.64400000000001
20
-66.496700000000004
10
182.34099999999998
20
-69.291200000000003
10
185.523
20
-68.497699999999995
10
184.82600000000002
20
-65.703199999999995
0
LWPOLYLINE
5
215
100
AcDbEntity
8
0
100
AcDbPolyline
90
4
70
1
43
0.0
10
242.50799999999998
20
-56.773300000000006
10
242.95900000000003
20
-59.61780000000001
10
246.19799999999998
20
-59.104700000000001
10
245.74799999999999
20
-56.260200000000005
0
LWPOLYLINE
5
216
100
AcDbEntity
8
0
100
AcDbPolyline
90
1
70
1
43
0.0
10
136.64700000000005
20
-148.691
0
LWPOLYLINE
5
217
100
AcDbEntity
8
0
100
AcDbPolyline
90
13
70
1
43
0.0
10
202.18800000000002
20
-56.342600000000004
10
202.233
20
-56.349400000000003
10
202.25999999999999
20
-56.386299999999999
10
202.98599999999999
20
-59.297199999999997
10
202.97900000000001
20
-59.342600000000004
10
202.94200000000004
20
-59.369900000000008
10
199.64300000000003
20
-60.192500000000003
10
199.59800000000001
20
-60.185700000000004
10
199.571
20
-60.148800000000008
10
199.571
20
-60.148800000000008
10
198.84500000000003
20
-57.23790000000001
10
198.852
20
-57.19250000000001
10
198.88900000000004
20
-57.165199999999999
0
LWPOLYLINE
5
218
100
AcDbEntity
8
0
100
AcDbPolyline
90
4
70
1
43
0.0
10
66.602900000000005
20
-60.086000000000013
10
63.36780000000001
20
-59.54460000000001
10
62.892499999999998
20
-62.385100000000008
10
66.127499999999998
20
-62.926500000000004
0
LWPOLYLINE
5
219
100
AcDbEntity
8
0
100
AcDbPolyline
90
12
70
1
43
0.0
10
220.94300000000001
20
-56.069200000000009
10
220.98100000000002
20
-56.043900000000008
10
224.31900000000002
20
-55.395099999999999
10
224.36400000000003
20
-55.404300000000006
10
224.38900000000004
20
-55.442600000000006
10
224.96099999999998
20
-58.387400000000007
10
224.952
20
-58.432400000000008
10
224.91400000000002
20
-58.457800000000006
10
221.57600000000002
20
-59.106500000000004
10
221.53099999999998
20
-59.0974
10
221.50599999999997
20
-59.059100000000001
10
220.93400000000003
20
-56.114199999999997
0
LWPOLYLINE
5
220
100
AcDbEntity
8
0
100
AcDbPolyline
90
4
70
1
43
0.0
10
224.28300000000002
20
-55.524400000000007
10
221.06300000000002
20
-56.150200000000005
10
221.61200000000002
20
-58.9773
10
224.83199999999999
20
-58.351399999999998
0
LWPOLYLINE
5
221
100
AcDbEntity
8
0
100
AcDbPolyline
90
1
70
1
43
0.0
10
182.239
20
-69.378399999999999
0
LWPOLYLINE
5
222
100
AcDbEntity
8
0
100
AcDbPolyline
90
1
70
1
43
0.0
10
160.08700000000002
20
-45.650000000000006
0
LWPOLYLINE
5
223
100
AcDbEntity
8
0
100
AcDbPolyline
90
4
70
1
43
0.0
10
202.85499999999999
20
-59.268000000000001
10
202.15800000000002
20
-56.473599999999998
10
198.976
20
-57.267100000000006
10
199.673
20
-60.061500000000009
0
LWPOLYLINE
5
224
100
AcDbEntity
8
0
100
AcDbPolyline
90
1
70
1
43
0.0
10
245.85700000000003
20
-56.182100000000005
0
LWPOLYLINE
5
225
100
AcDbEntity
8
0
100
AcDbPolyline
90
1
70
1
43
0.0
10
102.29300000000001
20
-69.567999999999998
0
LWPOLYLINE
5
226
100
AcDbEntity
8
0
100
AcDbPolyline
90
1
70
1
43
0.0
10
156.648
20
-29.875100000000003
0
LWPOLYLINE
5
227
100
AcDbEntity
8
0
100
AcDbPolyline
90
3
70
1
43
0.0
10
156.65200000000002
20
-29.924900000000001
10
156.65200000000002
20
-29.924900000000001
10
156.65200000000002
20
-29.924800000000005
0
LWPOLYLINE
5
228
100
AcDbEntity
8
0
100
AcDbPolyline
90
4
70
1
43
0.0
10
85.131600000000006
20
-60.351800000000004
10
88.3339
20
-61.061700000000002
10
88.9572
20
-58.25
10
85.754999999999995
20
-57.540000000000006
0
LWPOLYLINE
5
229
100
AcDbEntity
8
0
100
AcDbPolyline
90
1
70
1
43
0.0
10
154.108
20
-148.922
0
LWPOLYLINE
5
230
100
AcDbEntity
8
0
100
AcDbPolyline
90
1
70
1
43
0.0
10
88.366500000000002
20
-61.191800000000001
0
LWPOLYLINE
5
231
100
AcDbEntity
8
0
100
AcDbPolyline
90
1
70
1
43
0.0
10
221.50599999999997
20
-59.059100000000001
0
LWPOLYLINE
5
232
100
AcDbEntity
8
0
100
AcDbPolyline
90
1
70
1
43
0.0
10
136.637
20
-148.74000000000001
0
LWPOLYLINE
5
233
100
AcDbEntity
8
0
100
AcDbPolyline
90
1
70
1
43
0.0
10
224.96099999999998
20
-58.387400000000007
0
LWPOLYLINE
5
234
100
AcDbEntity
8
0
100
AcDbPolyline
90
1
70
1
43
0.0
10
158.499
20
-31.503100000000003
0
LINE
5
235
100
AcDbEntity
8
0
100
AcDbLine
10
162.18700000000001
20
-64.599999999999994
30
0
11
162.1902484391309
21
-64.629313295966696
31
0
0
LINE
5
236
100
AcDbEntity
8
0
100
AcDbLine
10
162.1902484391309
20
-64.629313295966696
30
0
11
162.21900000000002
21
-64.621300000000005
31
0
0
ENDSEC
0
SECTION
2
OBJECTS
0
DICTIONARY
5
C
100
AcDbDictionary
3
ACAD_GROUP
350
D
3
ACAD_MLINESTYLE
350
17
0
DICTIONARY
5
D
100
AcDbDictionary
0
DICTIONARY
5
1A
330
C
100
AcDbDictionary
0
DICTIONARY
5
17
100
AcDbDictionary
0
ENDSEC
0
EOF
